<?xml version="1.0" encoding="UTF-8"?><svg id="Layer_2" xmlns="http://www.w3.org/2000/svg" viewBox="0 0 209.24609 66.95752"><g id="Layer_1-2"><path d="m11.60986,59.12744v3.06055c0,2.42969-1.3501,3.7793-3.78027,3.7793h-3.95947c-2.43018,0-3.87012-1.34961-3.87012-3.7793V4.67969C0,2.25,1.43994.8999,3.87012.8999h3.95947c2.43018,0,3.78027,1.3501,3.78027,3.77979v22.40918c3.86963-5.57959,9.44922-7.82959,15.479-7.82959,13.22949,0,22.31934,10.5293,22.31934,23.84961,0,13.31934-9.08984,23.84863-22.31934,23.84863-6.02979,0-11.60938-2.25-15.479-7.83008Zm26.18848-16.01855c0-7.74023-4.67969-14.22021-12.95898-14.22021-7.91992,0-13.31982,6.02979-13.40967,14.22021.08984,8.18945,5.48975,14.21875,13.40967,14.21875,8.2793,0,12.95898-6.38965,12.95898-14.21875Z" style="fill:#d83f26;"/><path d="m57.51025,6.74951c0-3.77979,2.79004-6.74951,7.28955-6.74951,4.5,0,7.37988,2.96973,7.37988,6.74951,0,3.78027-2.97021,6.75-7.37988,6.75s-7.28955-2.96973-7.28955-6.75Zm1.52979,55.43848V24.11914c0-2.43018,1.3501-3.87012,3.77979-3.87012h4.0498c2.43018,0,3.78027,1.43994,3.78027,3.87012v38.06885c0,2.42969-1.3501,3.7793-3.78027,3.7793h-4.0498c-2.42969,0-3.77979-1.34961-3.77979-3.7793Z" style="fill:#d83f26;"/><path d="m85.85986,51.11768v-22.04883h-5.04004c-1.3501,0-2.06982-.72021-2.06982-2.06982v-4.68018c0-1.25977.71973-2.06982,2.06982-2.06982h5.58008l1.61963-9.80957c.27002-1.7998,1.43994-2.69971,3.1499-2.69971h3.1499c1.89014,0,2.96973,1.08008,2.96973,2.96973v9.53955h11.33984c1.34961,0,2.06982.81006,2.06982,2.06982v4.68018c0,1.34961-.72021,2.06982-2.06982,2.06982h-11.33984v22.49902c0,4.13965,2.06982,5.75977,4.5,5.75977,2.52002,0,4.58984-1.70996,4.58984-4.5,0-.44922,0-.98926-.08984-1.61914-.18018-1.44043.27002-2.25,1.70947-2.25h4.77002c1.16992,0,2.06982.44922,2.33984,1.62012.35986,1.5293.4502,3.05957.4502,3.41895,0,8.45996-5.93994,12.95996-14.48975,12.95996-7.55957,0-15.20898-3.59961-15.20898-15.83984Z" style="fill:#d83f26;"/><path d="m119.69873,43.28857c0-13.0498,9.98926-24.0293,24.83887-24.0293,12.23926,0,22.85889,7.37939,23.75879,21.95898.18018,2.33984-1.34961,3.60059-3.77979,3.60059h-33.56836c-.18018,6.92969,5.93945,12.59863,15.38916,12.59863,3.77979,0,7.55957-.98926,11.24951-3.3291,1.97998-1.16992,3.77979-.99023,5.31006.71973l.80957.99023c1.62012,1.7998,1.53027,4.0498-.71973,5.75977-5.21973,4.0498-11.42969,5.39941-17.18945,5.39941-16.19922,0-26.09863-10.61914-26.09863-23.66895Zm37.43848-5.76025c-1.80029-7.19971-7.56006-8.99951-12.41992-8.99951-5.03955,0-11.06934,2.06982-13.229,8.99951h25.64893Z" style="fill:#d83f26;"/><path d="m174.59717,57.95752c-1.16992-2.42969.09033-4.13965,2.52002-4.76953l2.33984-.54004c2.16016-.54004,3.24023.4502,4.77002,2.16016,1.62012,1.97949,4.40967,3.23926,7.55957,3.23926,3.95996,0,6.75-2.15918,6.75-5.03906,0-2.42969-1.89014-3.69043-4.85986-4.77051l-5.8501-2.06934c-5.84961-1.7998-12.14941-5.40039-12.14941-12.86963,0-8.1001,6.65967-14.03955,16.10938-14.03955,5.75977,0,11.06982,1.88965,14.21973,7.28955,1.52979,2.33984.26953,4.22998-2.25,4.85986l-2.06982.54004c-2.16016.54004-3.33008-.27002-4.77002-1.7998-1.3501-1.62012-3.1499-2.07031-4.94971-2.07031-3.50977,0-5.58008,2.16016-5.58008,4.77002,0,2.42969,2.16016,3.68994,4.68018,4.5l6.11963,2.15967c9.08936,2.87988,11.96924,8.19043,12.05957,13.41016,0,9.17969-8.09961,14.03906-17.45947,14.03906-7.64941,0-14.12939-3.05957-17.18945-9Z" style="fill:#d83f26;"/></g></svg>