<?xml version="1.0" encoding="UTF-8"?><svg id="Layer_2" xmlns="http://www.w3.org/2000/svg" viewBox="0 0 243.35742 66.05762"><g id="Layer_1-2"><path d="m11.60986,58.22754v3.06055c0,2.42969-1.3501,3.7793-3.78027,3.7793h-3.95947c-2.43018,0-3.87012-1.34961-3.87012-3.7793V3.77979C0,1.3501,1.43994,0,3.87012,0h3.95947c2.43018,0,3.78027,1.3501,3.78027,3.77979v22.40918c3.86963-5.57959,9.44922-7.82959,15.479-7.82959,13.22949,0,22.31934,10.5293,22.31934,23.84961,0,13.31934-9.08984,23.84863-22.31934,23.84863-6.02979,0-11.60938-2.25-15.479-7.83008Zm26.18848-16.01855c0-7.74023-4.67969-14.22021-12.95898-14.22021-7.91992,0-13.31982,6.02979-13.40967,14.22021.08984,8.18945,5.48975,14.21875,13.40967,14.21875,8.2793,0,12.95898-6.38965,12.95898-14.21875Z" style="fill:#d83f26;"/><path d="m55.71045,42.20898c0-13.14014,10.70947-23.84961,24.65869-23.84961s24.74902,10.79932,24.74902,23.84961c0,13.22949-10.79932,23.84863-24.74902,23.84863s-24.65869-10.61914-24.65869-23.84863Zm38.1582.08984c0-7.92041-5.93945-14.21973-13.49951-14.21973-7.55957,0-13.49951,6.29932-13.49951,14.21973,0,7.8291,5.93994,14.03906,13.49951,14.03906,7.56006,0,13.49951-6.20996,13.49951-14.03906Z" style="fill:#d83f26;"/><path d="m123.56934,62.00781l-13.76953-38.24854c-.8999-2.7002.27002-4.41016,3.1499-4.41016h4.41016c2.15967,0,3.59961.99023,4.22949,3.1499l8.90967,26.99902,8.00977-25.64893c.71973-2.06982,2.06982-3.1499,4.31982-3.1499h1.62012c2.24951,0,3.59961,1.08008,4.22949,3.1499l8.09961,25.64893,8.81982-26.99902c.72021-2.15967,2.06982-3.1499,4.31982-3.1499h4.40967c2.79004,0,4.0498,1.70996,3.06006,4.41016l-13.67969,38.24854c-.71973,2.16016-2.15967,3.05957-4.31982,3.05957h-3.50977c-2.15967,0-3.59961-.98926-4.22949-3.14941l-8.00977-25.19922-8.00977,25.19922c-.62988,2.16016-2.06982,3.14941-4.31982,3.14941h-3.41992c-2.15967,0-3.59961-.98926-4.31982-3.05957Z" style="fill:#d83f26;"/><path d="m187.10889,61.28809V3.77979c0-2.42969,1.3501-3.77979,3.77979-3.77979h4.0498c2.43018,0,3.77979,1.3501,3.77979,3.77979v57.5083c0,2.42969-1.34961,3.7793-3.77979,3.7793h-4.0498c-2.42969,0-3.77979-1.34961-3.77979-3.7793Z" style="fill:#d83f26;"/><path d="m208.7085,57.05762c-1.16992-2.42969.09033-4.13965,2.52002-4.76953l2.33984-.54004c2.16016-.54004,3.24023.4502,4.77002,2.16016,1.62012,1.97949,4.40967,3.23926,7.55957,3.23926,3.95996,0,6.75-2.15918,6.75-5.03906,0-2.42969-1.89014-3.69043-4.85986-4.77051l-5.8501-2.06934c-5.84961-1.7998-12.14941-5.40039-12.14941-12.86963,0-8.1001,6.65967-14.03955,16.10938-14.03955,5.75977,0,11.06982,1.88965,14.21973,7.28955,1.52979,2.33984.26953,4.22998-2.25,4.85986l-2.06982.54004c-2.16016.54004-3.33008-.27002-4.77002-1.7998-1.3501-1.62012-3.1499-2.07031-4.94971-2.07031-3.50977,0-5.58008,2.16016-5.58008,4.77002,0,2.42969,2.16016,3.68994,4.68018,4.5l6.11963,2.15967c9.08936,2.87988,11.96924,8.19043,12.05957,13.41016,0,9.17969-8.09961,14.03906-17.45947,14.03906-7.64941,0-14.12939-3.05957-17.18945-9Z" style="fill:#d83f26;"/></g></svg>