<?xml version="1.0" encoding="UTF-8"?><svg id="Layer_2" xmlns="http://www.w3.org/2000/svg" viewBox="0 0 371.38222 102.62224"><g id="Layer_1-2"><path d="m0,48.30273c0-14.80078,10.7998-26.90137,29.00098-26.90137,4.40039,0,10.00098,1,15.60156,4.30078,2.40039,1.39941,2.7002,3.7002,1,5.90039l-1.2002,1.5c-1.60059,2.2002-3.40039,2.2998-5.90039,1.09961-3.7998-1.90039-7.60059-2-8.80078-2-9.7002,0-16.80078,6.5-16.80078,15.70117,0,9.30078,7.10059,15.80078,16.80078,15.80078,1.2002,0,5.00098-.2002,8.80078-2,2.5-1.2002,4.40039-1.10059,5.90039,1l1.2002,1.59961c1.59961,2.2002,1.09961,4.80078-2.2002,6.50098-5.10059,2.7998-10.30078,3.59961-14.40137,3.59961C11.2002,74.4043,0,62.80371,0,48.30273Z" style="fill:#f5804b;"/><path d="m57.49902,69.10449V5.2002c0-2.7002,1.5-4.2002,4.2002-4.2002h4.5c2.7002,0,4.20117,1.5,4.20117,4.2002v63.9043c0,2.7002-1.50098,4.2002-4.20117,4.2002h-4.5c-2.7002,0-4.2002-1.5-4.2002-4.2002Z" style="fill:#f5804b;"/><path d="m80.99805,47.90332c0-14.80078,10.10156-26.50195,24.80176-26.50195,6.7002,0,12.90137,2.5,17.20117,8.70117v-3.30078c0-2.7002,1.5-4.2998,4.2002-4.2998h4.40039c2.7002,0,4.30078,1.59961,4.30078,4.2998v42.30273c0,2.7002-1.60059,4.2002-4.30078,4.2002h-4.40039c-2.7002,0-4.2002-1.5-4.2002-4.2002v-3.40039c-4.2998,6.2002-10.50098,8.7002-17.20117,8.7002-14.7002,0-24.80176-11.7002-24.80176-26.50098Zm42.20312,0c-.09961-9.10059-6-15.80078-14.90137-15.80078-9.10059,0-14.40039,7.2002-14.40039,15.80078,0,8.7002,5.2998,15.80078,14.40039,15.80078,8.90137,0,14.80176-6.7002,14.90137-15.80078Z" style="fill:#f5804b;"/><path d="m146.69824,64.4043c-1.30078-2.7002.09961-4.60059,2.7998-5.30078l2.59961-.59961c2.40039-.60059,3.60059.5,5.30078,2.40039,1.7998,2.2002,4.90039,3.59961,8.40039,3.59961,4.40039,0,7.50098-2.39941,7.50098-5.60059,0-2.69922-2.10059-4.09961-5.40039-5.2998l-6.50098-2.2998c-6.5-2-13.50098-6.00098-13.50098-14.30078,0-9.00098,7.40039-15.60156,17.90137-15.60156,6.40039,0,12.30078,2.10059,15.80078,8.10059,1.7002,2.60059.30078,4.7002-2.5,5.40039l-2.2998.59961c-2.40039.60059-3.7002-.2998-5.30078-2-1.5-1.7998-3.5-2.2998-5.5-2.2998-3.90039,0-6.2002,2.40039-6.2002,5.30078,0,2.69922,2.39941,4.09961,5.2002,5l6.7998,2.40039c10.10156,3.2002,13.30176,9.10059,13.40137,14.90039,0,10.20117-9.00098,15.60059-19.40137,15.60059-8.5,0-15.70117-3.39941-19.10059-10Z" style="fill:#f5804b;"/><path d="m192.59766,64.4043c-1.2998-2.7002.09961-4.60059,2.7998-5.30078l2.60059-.59961c2.40039-.60059,3.60059.5,5.2998,2.40039,1.80078,2.2002,4.90039,3.59961,8.40137,3.59961,4.39941,0,7.5-2.39941,7.5-5.60059,0-2.69922-2.09961-4.09961-5.40039-5.2998l-6.5-2.2998c-6.50098-2-13.50098-6.00098-13.50098-14.30078,0-9.00098,7.40039-15.60156,17.90137-15.60156,6.40039,0,12.30078,2.10059,15.80078,8.10059,1.7002,2.60059.2998,4.7002-2.5,5.40039l-2.30078.59961c-2.39941.60059-3.7002-.2998-5.2998-2-1.5-1.7998-3.5-2.2998-5.50098-2.2998-3.89941,0-6.2002,2.40039-6.2002,5.30078,0,2.69922,2.40039,4.09961,5.2002,5l6.80078,2.40039c10.10059,3.2002,13.30078,9.10059,13.40039,14.90039,0,10.20117-9,15.60059-19.40039,15.60059-8.50098,0-15.70117-3.39941-19.10156-10Z" style="fill:#f5804b;"/><path d="m239.89844,7.50098c0-4.2002,3.09961-7.50098,8.10059-7.50098,5,0,8.2002,3.30078,8.2002,7.50098s-3.2998,7.5-8.2002,7.5-8.10059-3.2998-8.10059-7.5Zm1.7002,61.60352V26.80176c0-2.7002,1.5-4.2998,4.2002-4.2998h4.5c2.7002,0,4.2002,1.59961,4.2002,4.2998v42.30273c0,2.7002-1.5,4.2002-4.2002,4.2002h-4.5c-2.7002,0-4.2002-1.5-4.2002-4.2002Z" style="fill:#f5804b;"/><path d="m264.99805,48.30273c0-14.80078,10.7998-26.90137,29.00098-26.90137,4.40039,0,10.00098,1,15.60156,4.30078,2.40039,1.39941,2.7002,3.7002,1,5.90039l-1.2002,1.5c-1.60059,2.2002-3.40039,2.2998-5.90039,1.09961-3.7998-1.90039-7.60059-2-8.80078-2-9.7002,0-16.80078,6.5-16.80078,15.70117,0,9.30078,7.10059,15.80078,16.80078,15.80078,1.2002,0,5.00098-.2002,8.80078-2,2.5-1.2002,4.40039-1.10059,5.90039,1l1.2002,1.59961c1.59961,2.2002,1.09961,4.80078-2.2002,6.50098-5.10059,2.7998-10.30078,3.59961-14.40137,3.59961-17.80078,0-29.00098-11.60059-29.00098-26.10156Z" style="fill:#f5804b;"/><path d="m253.46387,100.03809c-.03809-.71875.44824-1.38477,1.16699-1.42285,1.03223-.17383,1.89551,1.02246,3.33398.94727,1.1582-.06055,2.21777-1.23828,2.17188-2.11523-.09082-.95703-1.25293-1.7373-2.61719-2.54688-1.57129-.95898-2.78027-1.85645-2.85352-3.25391-.14258-2.71582,3.66016-5.03809,6.69629-5.19727,1.59277-.16406,3.10645.43848,3.16504,1.55566.07715,1.47852-1.20703,1.42578-2.48535,1.49316-1.12012.01855-2.18555.31348-3.19629.8877-1.00977.61328-1.01953,1.1748-.06836,1.76562,2.6123,1.70508,4.21387,2.46191,4.3584,5.2168.14258,2.7168-2.41602,5.09375-5.37207,5.24805-1.95605.10352-4.22461-1.14062-4.2998-2.57812Z" style="fill:#f57f49;"/><path d="m276.61035,100.74902c-.03125-1.36133.68652-3.7207,1.4209-7.28418.12793-.60645-.60352-.80957-.9375-.31152-.37207.54102-1.65918,2.73047-2.00391,3.02832-.94629,1.05176-2.2373.87793-2.78711-.4541-.40332-.82031-.72461-3.88672-1.64258-3.83887-.75879.04004-1.81152,4.41992-2.20508,6.84277-.20996,1.33301-.89746,1.96973-1.82715,1.81836-.68945-.16309-1.20605-.85742-1.16602-1.62109.0127-.52051.10938-.96582.2041-1.45215.72168-3.04102,2.3584-9.25391,3.28418-10.70508.70898-.99707,1.8623-1.1377,2.74902-.2627.79688.67871,1.35547,2.1709,2.07812,3.73535.4082.89941.84863.91602,1.44629.08398l1.53125-2.12305c2.12988-2.91406,3.21387-3.6123,4.40332-3.07422,1.14551.46094,1.32617,1.61328.81543,4.08203-1.0127,5.13965-2.32324,11.45703-2.56934,12.11035-.32422.69727-.94922,1.00977-1.67578.88867-.76953-.16016-1.07422-.62402-1.11816-1.46289Z" style="fill:#f57f49;"/><path d="m283.24707,97.43652c-.26562-5.07227,3.56543-12.20117,7.79883-12.42285,1.99805-.10449,2.62402,2.66602,2.73242,4.74219.30078,4.99121-2.65527,11.23242-6.76953,11.44727-2.11621.11133-3.64648-1.56934-3.76172-3.7666Zm7.65527-7.53027c-.0293-.55859-.17969-1.15137-.73926-1.12207-1.79688.09375-4.14844,5.66406-4.02734,7.98145.0459.87793.35254,1.38281.95215,1.35156,2.08496.0498,3.94824-5.65527,3.81445-8.21094Z" style="fill:#f57f49;"/><path d="m295.35059,96.80273c-.26562-5.07227,3.56543-12.20117,7.79883-12.42383,1.99805-.10449,2.62402,2.66699,2.73242,4.74316.30078,4.99023-2.65527,11.23145-6.76953,11.44727-2.11621.11035-3.64648-1.56934-3.76172-3.7666Zm7.65527-7.53027c-.0293-.55859-.17969-1.15234-.73926-1.12305-1.79688.09473-4.14844,5.66406-4.02734,7.98145.0459.87793.35254,1.38281.95117,1.35156,2.08594.05078,3.94922-5.6543,3.81543-8.20996Z" style="fill:#f57f49;"/><path d="m310.75098,98.71875c.16016-.76953,1.36914-4.4375,3.44531-10.67285.12207-.72754-.41406-1.02051-1.33203-.97266-1.39551.11328-2.35254.2041-2.99121.2373-1.75293.17188-2.71191.22266-2.94531-1.16699-.13184-.99512.75293-1.68164,2.35059-1.76562l7.22949-.37891c6.8291-.35742,7.82324-.49023,8.48145-.16406.53613.29199.84473.83691.75586,1.44336-.11328.88672-.7373,1.19922-2.25488,1.27832-1.39844.07324-2.83594.14844-4.27539.18359-.96094.01074-1.57715.48438-1.88867,1.4209-.40527,1.42285-.89355,2.81055-1.38184,4.19824-1.31934,3.87402-2.27637,7.00781-2.57812,7.34375-.40625.66211-1.11426.89941-1.80664.69531-.61328-.24902-.97266-.99023-.80859-1.67969Z" style="fill:#f57f49;"/><path d="m324.54102,98.15625c.21484-2.01367,3.55371-13.20215,4.50391-14.93457.25586-.4541.68359-.71582,1.16016-.78125,1.19824-.0625,1.73438.99121,1.45703,1.80664-.1377.44727-1.47949,4.6416-1.75781,5.45703-.20117.73145.06152,1.16016.82227,1.16016l1.39746-.07324c1.99805-.10449,2.00781.09473,2.65527-2.0625.41504-1.2627.72363-2.24023,1.20215-3.82617.37988-1.14258,1.02344-1.85645,1.78223-1.89648.91895-.04785,1.84961.9043,1.42285,1.92676-1.19727,3.14746-2.06543,6.43652-2.93848,9.64648-.7002,2.67969-.80566,2.96582-.99512,3.17676-.41016.58105-1.03906.81543-1.56836.64258-1.09277-.22461-1.19629-1.41895-.81934-2.64062.48828-1.3877.17969-1.93262-.81934-1.87988-.48145-.01562-1.1582.06055-2.47559.12891-.63965.03418-1.0625.37695-1.19043.98438-.40332,1.46289-.81641,3.52734-1.18652,4.10645-.4082.62305-1.15625.8623-1.80762.65723-.61328-.24902-.92676-.87305-.84473-1.59863Z" style="fill:#f57f49;"/><path d="m339.56055,96.6084c-.05273-.99902,1.11523-3.94434,1.68945-5.97656,1.17773-3.50488,1.54395-5.6875,1.84863-6.74512.33887-1.17773.91504-1.64941,1.68457-1.48926,1.09277.22363,1.38086,1.12988,1,3.03125-.84766,3.68848-2.01758,7.35449-3.22949,10.98242-.4248,1.0625-1.07031,1.73828-2.08984,1.39062-.5293-.17285-.83203-.59668-.90332-1.19336Z" style="fill:#f57f49;"/><path d="m346.2373,97.13965c-.05664-1.0791,1.41211-5.92188,2.20898-8.28613,1.27051-4.03027,1.71387-5.49609,2.10742-6.39746.39746-.82227,1.01562-1.25488,1.89453-1.30078,1.1582-.06055,6.10645-.40039,6.70703-.3916.68164.00488,1.27344.61426,1.31348,1.37305-.00586.6416-.45801,1.18457-1.12891,1.38086-.35449.09863-3.74414.39453-4.8623.45312-1,.01465-1.57812.44434-1.76758,1.41602-.09863.4043-.51562,1.62793-.61816,1.9541-.16699.64941.13867,1.11328.81934,1.11816,2.24902.12305,3.65039.12988,3.2998,1.83008-.08887.60547-.5498.98926-1.10547,1.05859-.99316.17285-3.80957-.08008-4.37988.50977-.26367.29395-.87207,2.44922-1.0293,3.25879-.26855,1.01562.89453,1.0332,1.85352.9834l3.03418-.15918c1.23828-.06445,1.94531.41895,1.98926,1.25781.00586.88086-.68164,1.51758-1.7959,1.65625-2.19043.23438-6.4707.33887-7.2041.09668-.85742-.31445-1.29004-.93359-1.33594-1.81152Z" style="fill:#f57f49;"/><path d="m360.31543,94.43848c-.03809-.71875.44824-1.38574,1.16699-1.42285,1.03223-.17383,1.89551,1.02246,3.33398.94727,1.1582-.06055,2.21777-1.23828,2.17188-2.11523-.09082-.95703-1.25293-1.7373-2.61719-2.54688-1.57129-.95898-2.78027-1.85742-2.85352-3.25488-.14258-2.71582,3.66016-5.03809,6.69629-5.19727,1.59277-.16309,3.10645.43848,3.16504,1.55566.07715,1.47852-1.20703,1.42676-2.48535,1.49414-1.12012.01855-2.18555.3125-3.19727.8877-1.00879.61328-1.01953,1.1748-.06738,1.76562,2.6123,1.70508,4.21387,2.46191,4.3584,5.2168.14258,2.7168-2.41602,5.09375-5.37207,5.24805-1.95605.10254-4.22461-1.14062-4.2998-2.57812Z" style="fill:#f57f49;"/></g></svg>