<?xml version="1.0" encoding="UTF-8"?><svg id="Layer_2" xmlns="http://www.w3.org/2000/svg" xmlns:xlink="http://www.w3.org/1999/xlink" viewBox="0 0 34.95 37.21761"><defs><clipPath id="clippath"><path d="m17.475,34.94801c9.651,0,17.475-7.824,17.475-17.475C34.95,7.82301,27.126,0,17.475,0S0,7.82301,0,17.47301c0,9.651,7.824,17.475,17.475,17.475" style="fill:none;"/></clipPath></defs><g id="Layer_1-2"><path d="m17.475,34.94801c9.651,0,17.475-7.824,17.475-17.475C34.95,7.82301,27.126,0,17.475,0S0,7.82301,0,17.47301c0,9.651,7.824,17.475,17.475,17.475" style="fill:#f5804b;"/><g style="clip-path:url(#clippath);"><path d="m3.3894,6.46561c4.755,2.494,10.021,3.922,15.349,4.433.894.086,1.826.141,2.664-.186.838-.328,1.557-1.143,1.496-2.052-.047-.695-.52-1.282-1.033-1.745-1.504-1.35799-3.493-2.059-5.487-2.341-2.092-.296-4.424-.087-5.98,1.361-1.772,1.64799-2.013,4.526-1.095,6.783.918,2.256,2.773,3.982,4.737,5.393,1.55,1.11301,3.233,2.094,5.081,2.53101,1.85.438,3.893.283,5.499-.742.242-.155.49599-.364.52-.654.018-.219-.101-.424-.231-.601-1.217-1.664-3.499-2.107-5.537-1.988-2.006.117-4.247.87-5.031,2.746-.673,1.60699-.024,3.481.932,4.933,1.514,2.296,3.813,4.047,6.407,4.88,1.102.353,2.661.318,3.003-.801-.746-1.514-3.031-1.738-4.297-.636-1.266,1.101-1.531,3.075-.98,4.672.552,1.599,1.773,2.868,3.098,3.898" style="fill:none; stroke:#fffbf7; stroke-linecap:round; stroke-linejoin:round; stroke-width:1.736px;"/></g></g></svg>