<?xml version="1.0" encoding="UTF-8"?><svg id="Layer_2" xmlns="http://www.w3.org/2000/svg" xmlns:xlink="http://www.w3.org/1999/xlink" viewBox="0 0 148.96508 37.21761"><defs><clipPath id="clippath"><path d="m17.475,34.94801c9.651,0,17.475-7.824,17.475-17.475C34.95,7.82301,27.126,0,17.475,0S0,7.82301,0,17.47301c0,9.651,7.824,17.475,17.475,17.475" style="fill:none;"/></clipPath></defs><g id="Layer_1-2"><path d="m44.65401,19.45115v-5.89648h-.77246c-.26904,0-.41992-.15137-.41992-.41992v-.97461c0-.26855.15088-.41992.41992-.41992h.77246v-.55469c0-2.6377,1.74756-3.25879,3.19238-3.25879,1.51172,0,2.88916.70508,2.88916,2.30176,0,.08398-.0166.18457-.0332.26855-.03369.20117-.18506.31934-.40332.31934h-1.20947c-.21875,0-.35303-.13477-.35303-.30273v-.10059c0-.31934-.31934-.55469-.72217-.55469-.5376,0-.82324.37012-.82324.99121v.89062h1.51172c.26904,0,.41992.15137.41992.41992v.97461c0,.26855-.15088.41992-.41992.41992h-1.46143v5.89648c0,.52148-.30225.80664-.82324.80664h-.95752c-.521,0-.80664-.28516-.80664-.80664Z" style="fill:#2b3937;"/><path d="m50.58468,15.9404c0-2.53711,1.72998-4.50293,4.14941-4.50293,1.14258,0,2.15039.4375,2.77197,1.41113v-.41992c0-.52051.28564-.80566.80615-.80566h.99121c.521,0,.80664.28516.80664.80566v7.02246c0,.52148-.28564.80664-.80664.80664h-.99121c-.52051,0-.80615-.28516-.80615-.80664v-.40332c-.62158.95801-1.62939,1.39453-2.77197,1.39453-2.41943,0-4.14941-1.94824-4.14941-4.50195Zm6.95508,0c0-1.37793-.87354-2.41895-2.20068-2.41895-1.36084,0-2.15039,1.0918-2.15039,2.41895,0,1.34375.78955,2.41895,2.15039,2.41895,1.32715,0,2.20068-1.04199,2.20068-2.41895Z" style="fill:#2b3937;"/><path d="m62.86495,19.45115v-7.02246c0-.52051.28564-.80566.80664-.80566h.99121c.52051,0,.80615.28516.80615.80566v.57129c.41992-.99121,1.34424-1.5625,2.62109-1.5625,2.31836,0,3.1582,1.81445,3.1582,3.84766v4.16602c0,.52148-.30225.80664-.82324.80664h-.97461c-.52051,0-.80615-.28516-.80615-.80664v-3.98145c0-1.20996-.47021-1.91504-1.36084-1.91504-.89014,0-1.81445.68848-1.81445,2.30176v3.59473c0,.52148-.28564.80664-.80615.80664h-.99121c-.521,0-.80664-.28516-.80664-.80664Z" style="fill:#2b3937;"/><path d="m79.19405,19.45115v-5.89648h-.77246c-.26904,0-.41992-.15137-.41992-.41992v-.97461c0-.26855.15088-.41992.41992-.41992h.77246v-.55469c0-2.6377,1.74756-3.25879,3.19238-3.25879,1.51172,0,2.88867.70508,2.88867,2.30176,0,.08398-.01562.18457-.0332.26855-.0332.20117-.18457.31934-.40234.31934h-1.20996c-.21875,0-.35254-.13477-.35254-.30273v-.10059c0-.31934-.32031-.55469-.72266-.55469-.53711,0-.82324.37012-.82324.99121v.89062h1.51172c.26855,0,.41992.15137.41992.41992v.97461c0,.26855-.15137.41992-.41992.41992h-1.46143v5.89648c0,.52148-.30225.80664-.82324.80664h-.95752c-.521,0-.80664-.28516-.80664-.80664Z" style="fill:#2b3937;"/><path d="m85.12472,15.9404c0-2.53711,1.73047-4.50293,4.15039-4.50293,1.14258,0,2.15039.4375,2.77148,1.41113v-.41992c0-.52051.28516-.80566.80664-.80566h.99023c.52148,0,.80664.28516.80664.80566v7.02246c0,.52148-.28516.80664-.80664.80664h-.99023c-.52148,0-.80664-.28516-.80664-.80664v-.40332c-.62109.95801-1.62891,1.39453-2.77148,1.39453-2.41992,0-4.15039-1.94824-4.15039-4.50195Zm6.95508,0c0-1.37793-.87305-2.41895-2.2002-2.41895-1.36035,0-2.15039,1.0918-2.15039,2.41895,0,1.34375.79004,2.41895,2.15039,2.41895,1.32715,0,2.2002-1.04199,2.2002-2.41895Z" style="fill:#2b3937;"/><path d="m99.87472,19.63572l-2.95703-7.07227c-.23438-.55469.01758-.94043.62207-.94043h1.0752c.4707,0,.77344.20117.92383.65527l1.84766,5.15723,1.86523-5.15723c.15137-.4375.4541-.65527.92383-.65527h1.0918c.60547,0,.85742.38574.62207.94043l-2.95605,7.07227c-.16797.4209-.48828.62207-.94141.62207h-1.15918c-.46973,0-.77246-.20117-.95801-.62207Z" style="fill:#2b3937;"/><path d="m107.19991,15.9404c0-2.48633,2.0498-4.50293,4.78809-4.50293s4.78711,2.0166,4.78711,4.50293-2.04883,4.50195-4.78711,4.50195-4.78809-1.99902-4.78809-4.50195Zm7.10645.0166c0-1.36035-1.02539-2.40234-2.31836-2.40234-1.31055,0-2.31836,1.04199-2.31836,2.40234,0,1.34375,1.00781,2.38574,2.31836,2.38574,1.29297,0,2.31836-1.04199,2.31836-2.38574Z" style="fill:#2b3937;"/><path d="m118.97628,19.45115v-7.02246c0-.52051.28516-.80566.80664-.80566h.92383c.52148,0,.80664.28516.80664.80566v1.0752c.28516-1.5791,1.49512-2.06641,2.23438-2.06641l.28516.01758c.40332.0332.4873.35254.4873.68848v1.17578c0,.4707-.23535.67188-.58789.62207-.15137-.01758-.28613-.03418-.41992-.03418-1.00781,0-1.93262.65527-1.93262,2.82227v2.72168c0,.52148-.28516.80664-.80566.80664h-.99121c-.52148,0-.80664-.28516-.80664-.80664Z" style="fill:#2b3937;"/><path d="m126.18331,9.25388c0-.77246.55469-1.36133,1.5625-1.36133.99121,0,1.5625.58887,1.5625,1.36133,0,.75586-.60547,1.34375-1.5625,1.34375s-1.5625-.58789-1.5625-1.34375Zm.26953,10.19727v-7.02246c0-.52051.28516-.80566.80566-.80566h.97461c.52051,0,.82324.28516.82324.80566v7.02246c0,.52148-.30273.80664-.82324.80664h-.97461c-.52051,0-.80566-.28516-.80566-.80664Z" style="fill:#2b3937;"/><path d="m132.38253,17.38474v-3.83008h-.85742c-.26855,0-.43652-.15137-.43652-.41992v-1.0918c0-.26953.16797-.41992.43652-.41992h1.05859l.28516-1.74805c.06836-.35254.30273-.53711.65625-.53711h.82227c.38672,0,.58789.21875.58789.58789v1.69727h1.94922c.26953,0,.41992.15039.41992.41992v1.0918c0,.26855-.15039.41992-.41992.41992h-1.94922v3.91406c0,.63867.32031.89062.70605.89062.43652,0,.72266-.33594.72266-.78906,0-.08496,0-.18555-.0166-.30273-.0332-.30273.06641-.4541.35254-.4541h1.02441c.21875,0,.4043.08398.4707.33594.06738.25195.10156.52148.10156.65527,0,1.86523-1.32812,2.6377-2.89062,2.6377-1.46094,0-3.02344-.67188-3.02344-3.05762Z" style="fill:#2b3937;"/><path d="m139.64034,15.97361c0-2.43555,1.83008-4.53613,4.7373-4.53613,2.45215,0,4.46875,1.47852,4.58691,4.23438.01562.48633-.32031.70508-.82422.70508h-6.01367c-.03418,1.02441.99023,2.01562,2.6543,2.01562.62109,0,1.25977-.15039,1.91504-.52051.4541-.25195.82324-.21777,1.1416.16797l.18555.23535c.33594.40332.30273.85645-.15137,1.19238-.99121.72266-2.15039.97461-3.25879.97461-3.0918,0-4.97266-1.99902-4.97266-4.46875Zm6.8877-1.04102c-.23535-1.15918-1.22656-1.5293-2.11621-1.5293-.9082,0-1.93262.40332-2.21875,1.5293h4.33496Z" style="fill:#2b3937;"/><path d="m17.475,34.94801c9.651,0,17.475-7.824,17.475-17.475C34.95,7.82301,27.126,0,17.475,0S0,7.82301,0,17.47301c0,9.651,7.824,17.475,17.475,17.475" style="fill:#f5804b;"/><g style="clip-path:url(#clippath);"><path d="m3.3894,6.46561c4.755,2.494,10.021,3.922,15.349,4.433.894.086,1.826.141,2.664-.186.838-.328,1.557-1.143,1.496-2.052-.047-.695-.52-1.282-1.033-1.745-1.504-1.35799-3.493-2.059-5.487-2.341-2.092-.296-4.424-.087-5.98,1.361-1.772,1.64799-2.013,4.526-1.095,6.783.918,2.256,2.773,3.982,4.737,5.393,1.55,1.11301,3.233,2.094,5.081,2.53101,1.85.438,3.893.283,5.499-.742.242-.155.49599-.364.52-.654.018-.219-.101-.424-.231-.601-1.217-1.664-3.499-2.107-5.537-1.988-2.006.117-4.247.87-5.031,2.746-.673,1.60699-.024,3.481.932,4.933,1.514,2.296,3.813,4.047,6.407,4.88,1.102.353,2.661.318,3.003-.801-.746-1.514-3.031-1.738-4.297-.636-1.266,1.101-1.531,3.075-.98,4.672.552,1.599,1.773,2.868,3.098,3.898" style="fill:none; stroke:#fffbf7; stroke-linecap:round; stroke-linejoin:round; stroke-width:1.736px;"/></g></g></svg>