<?xml version="1.0" encoding="UTF-8"?><svg id="Layer_2" xmlns="http://www.w3.org/2000/svg" viewBox="0 0 656.09229 87.1167"><g id="Layer_1-2"><path d="m0,6.74951C0,2.96973,2.79004,0,7.28955,0c4.5,0,7.37988,2.96973,7.37988,6.74951,0,3.78027-2.97021,6.75-7.37988,6.75S0,10.52979,0,6.74951Zm1.52979,55.43799V24.11914c0-2.43018,1.3501-3.87012,3.77979-3.87012h4.0498c2.43018,0,3.78027,1.43994,3.78027,3.87012v38.06836c0,2.42969-1.3501,3.77979-3.78027,3.77979h-4.0498c-2.42969,0-3.77979-1.3501-3.77979-3.77979Z" style="fill:#10725a;"/><path d="m22.13965,43.46826c0-13.31934,9.71924-24.20898,26.09863-24.20898,3.95996,0,9,.8999,14.03955,3.86963,2.15967,1.26025,2.42969,3.33008.8999,5.31006l-1.08008,1.34961c-1.43994,1.97998-3.05957,2.07031-5.30957.99023-3.41992-1.70996-6.83984-1.7998-7.91992-1.7998-8.72949,0-15.11914,5.84961-15.11914,14.12939,0,8.36963,6.38965,14.21924,15.11914,14.21924,1.08008,0,4.5-.18018,7.91992-1.7998,2.25-1.08008,3.95996-.99023,5.30957.8999l1.08008,1.43994c1.43994,1.97998.99023,4.31982-1.97998,5.84961-4.58984,2.52002-9.26953,3.23975-12.95947,3.23975-16.01904,0-26.09863-10.43945-26.09863-23.48877Z" style="fill:#10725a;"/><path d="m69.02979,43.28809c0-13.04932,9.98926-24.02881,24.83887-24.02881,12.23926,0,22.85889,7.37939,23.75879,21.95898.18018,2.33984-1.34961,3.6001-3.77979,3.6001h-33.56836c-.18018,6.92969,5.93945,12.59912,15.38916,12.59912,3.77979,0,7.55957-.98975,11.24951-3.32959,1.97998-1.16992,3.77979-.99023,5.31006.71973l.80957.99023c1.62012,1.7998,1.53027,4.0498-.71973,5.75977-5.21973,4.0498-11.42969,5.39941-17.18945,5.39941-16.19922,0-26.09863-10.61914-26.09863-23.66895Zm37.43848-5.75977c-1.80029-7.19971-7.56006-8.99951-12.41943-8.99951-5.04004,0-11.06982,2.06982-13.22949,8.99951h25.64893Z" style="fill:#10725a;"/><path d="m123.11816,43.1084c0-13.31982,9-23.84912,22.229-23.84912,6.12012,0,11.69971,2.25,15.47949,7.82959V4.67969c0-2.42969,1.43994-3.77979,3.87012-3.77979h3.95947c2.43018,0,3.78027,1.3501,3.78027,3.77979v57.50781c0,2.42969-1.3501,3.77979-3.78027,3.77979h-3.95947c-2.43018,0-3.87012-1.3501-3.87012-3.77979v-3.06006c-3.77979,5.58008-9.35938,7.82959-15.47949,7.82959-13.229,0-22.229-10.5293-22.229-23.84863Zm37.97852,0c-.08984-8.18994-5.48975-14.21973-13.49951-14.21973-8.18945,0-12.86914,6.47998-12.86914,14.21973,0,7.82959,4.67969,14.21924,12.86914,14.21924,8.00977,0,13.40967-6.02979,13.49951-14.21924Z" style="fill:#10725a;"/><path d="m218.15771,59.12744v3.06006c0,2.42969-1.3501,3.77979-3.78027,3.77979h-3.95947c-2.43018,0-3.87012-1.3501-3.87012-3.77979V4.67969c0-2.42969,1.43994-3.77979,3.87012-3.77979h3.95947c2.43018,0,3.78027,1.3501,3.78027,3.77979v22.40918c3.86963-5.57959,9.44922-7.82959,15.479-7.82959,13.22949,0,22.31934,10.5293,22.31934,23.84912s-9.08984,23.84863-22.31934,23.84863c-6.02979,0-11.60938-2.24951-15.479-7.82959Zm26.18896-16.01904c0-7.73975-4.68018-14.21973-12.95996-14.21973-7.91943,0-13.31934,6.02979-13.40918,14.21973.08984,8.18945,5.48975,14.21924,13.40918,14.21924,8.27979,0,12.95996-6.38965,12.95996-14.21924Z" style="fill:#10725a;"/><path d="m261.8081,43.28809c0-13.04932,9.98927-24.02881,24.83888-24.02881,12.23926,0,22.85889,7.37939,23.75879,21.95898.18018,2.33984-1.34961,3.6001-3.77979,3.6001h-33.56836c-.18018,6.92969,5.93945,12.59912,15.38916,12.59912,3.77979,0,7.55957-.98975,11.24951-3.32959,1.97998-1.16992,3.77979-.99023,5.31006.71973l.80957.99023c1.62012,1.7998,1.53027,4.0498-.71973,5.75977-5.21973,4.0498-11.42969,5.39941-17.18945,5.39941-16.19922,0-26.09864-10.61914-26.09864-23.66895Zm37.43848-5.75977c-1.80029-7.19971-7.56006-8.99951-12.41943-8.99951-5.04004,0-11.06982,2.06982-13.22949,8.99951h25.64893Z" style="fill:#10725a;"/><path d="m329.39697,62.99756l-15.38965-38.33838c-1.07959-2.60986,0-4.41016,2.87988-4.41016h4.31982c2.25,0,3.68994.99023,4.41016,3.1499l10.97949,29.87891,10.97949-29.87891c.71973-2.15967,2.15967-3.1499,4.31982-3.1499h4.40967c2.79004,0,3.95996,1.80029,2.87988,4.41016l-15.38916,38.33838c-.81006,1.97998-2.25,2.96973-4.5,2.96973h-5.3999c-2.15967,0-3.68945-.98975-4.49951-2.96973Z" style="fill:#10725a;"/><path d="m363.14697,43.28809c0-13.04932,9.98926-24.02881,24.83887-24.02881,12.23926,0,22.85889,7.37939,23.75879,21.95898.18018,2.33984-1.34961,3.6001-3.77979,3.6001h-33.56836c-.18018,6.92969,5.93945,12.59912,15.38916,12.59912,3.77979,0,7.55957-.98975,11.24951-3.32959,1.97998-1.16992,3.77979-.99023,5.31006.71973l.80957.99023c1.62012,1.7998,1.53027,4.0498-.71973,5.75977-5.21973,4.0498-11.42969,5.39941-17.18945,5.39941-16.19922,0-26.09863-10.61914-26.09863-23.66895Zm37.43848-5.75977c-1.80029-7.19971-7.56006-8.99951-12.41943-8.99951-5.04004,0-11.06982,2.06982-13.22949,8.99951h25.64893Z" style="fill:#10725a;"/><path d="m420.20605,62.1875V24.11914c0-2.43018,1.34961-3.87012,3.77979-3.87012h3.77979c2.42969,0,3.77979,1.43994,3.77979,3.87012v6.2998c1.52979-7.83008,7.37988-11.15967,12.05957-11.15967.35986,0,1.3501.08984,1.7998.17969,1.97998.18018,2.33984,1.80029,2.33984,3.6001v4.5c0,2.33984-1.08008,3.32959-2.78955,3.05957-.81006-.17969-1.62012-.27002-2.34033-.27002-4.31982,0-10.79932,2.60986-10.79932,17.54932v14.30957c0,2.42969-1.43994,3.77979-3.87012,3.77979h-3.95947c-2.43018,0-3.77979-1.3501-3.77979-3.77979Z" style="fill:#10725a;"/><path d="m450.89648,43.1084c0-13.31982,9.08984-23.84912,22.31885-23.84912,6.02979,0,11.60986,2.25,15.47949,7.82959v-2.96973c0-2.43018,1.3501-3.87012,3.77979-3.87012h3.95996c2.42969,0,3.87012,1.43994,3.87012,3.87012v38.06836c0,2.42969-1.44043,3.77979-3.87012,3.77979h-3.95996c-2.42969,0-3.77979-1.3501-3.77979-3.77979v-3.06006c-3.86963,5.58008-9.44971,7.82959-15.47949,7.82959-13.229,0-22.31885-10.5293-22.31885-23.84863Zm37.97852,0c-.08984-8.18994-5.3999-14.21973-13.40967-14.21973-8.18945,0-12.95947,6.47998-12.95947,14.21973,0,7.82959,4.77002,14.21924,12.95947,14.21924,8.00977,0,13.31982-6.02979,13.40967-14.21924Z" style="fill:#10725a;"/><path d="m516.05518,82.70654c-2.06982-1.16992-2.42969-3.05957-1.3501-5.21973l.8999-1.62012c1.26025-2.25,2.97021-2.60938,5.12988-1.34961,3.68994,2.16016,7.82959,3.23926,12.14941,3.23926,8.27979,0,14.03955-4.58887,14.03955-13.94922v-4.67969c-3.77979,5.58008-9.53955,7.82959-15.56934,7.82959-13.22949,0-22.229-10.70947-22.229-23.84863,0-13.0498,8.99951-23.84912,22.229-23.84912,6.02979,0,11.69971,2.25,15.47949,7.82959v-3.23975c0-2.33984,1.3501-3.6001,3.77979-3.6001h3.86963c2.43018,0,3.78027,1.43994,3.78027,3.87012v39.77832c0,16.46924-11.51953,23.21924-24.74902,23.21924-7.46973,0-12.95947-1.7998-17.45947-4.41016Zm30.9585-39.59814c-.08984-8.18994-5.39941-14.30957-13.40918-14.30957-8.18945,0-12.95947,6.56982-12.95947,14.30957,0,7.82959,4.77002,14.30908,12.95947,14.30908,8.00977,0,13.31934-6.11963,13.40918-14.30908Z" style="fill:#10725a;"/><path d="m566.99463,43.28809c0-13.04932,9.98926-24.02881,24.83887-24.02881,12.23926,0,22.85938,7.37939,23.75879,21.95898.18066,2.33984-1.34961,3.6001-3.7793,3.6001h-33.56885c-.18018,6.92969,5.93945,12.59912,15.38916,12.59912,3.78027,0,7.55957-.98975,11.25-3.32959,1.97949-1.16992,3.7793-.99023,5.30957.71973l.80957.99023c1.62012,1.7998,1.53027,4.0498-.71973,5.75977-5.21973,4.0498-11.42969,5.39941-17.18945,5.39941-16.19922,0-26.09863-10.61914-26.09863-23.66895Zm37.43846-5.75977c-1.79979-7.19971-7.55955-8.99951-12.41893-8.99951-5.04004,0-11.07031,2.06982-13.22998,8.99951h25.64891Z" style="fill:#10725a;"/><path d="m621.44385,57.95752c-1.1709-2.42969.08984-4.13965,2.51953-4.76953l2.33984-.54004c2.16016-.54004,3.24023.44971,4.76953,2.15967,1.62012,1.97998,4.41016,3.23975,7.55957,3.23975,3.95996,0,6.75-2.15967,6.75-5.03955,0-2.42969-1.88965-3.68994-4.85938-4.77002l-5.85059-2.06982c-5.84961-1.7998-12.14941-5.3999-12.14941-12.86914,0-8.1001,6.66014-14.03955,16.10938-14.03955,5.75977,0,11.07031,1.88965,14.21973,7.28955,1.53027,2.33984.27051,4.22998-2.25,4.85986l-2.06934.54004c-2.16016.54004-3.33008-.27002-4.77051-1.7998-1.34961-1.62012-3.14941-2.07031-4.94922-2.07031-3.50977,0-5.58008,2.16016-5.58008,4.77002,0,2.42969,2.16016,3.68994,4.67969,4.5l6.12012,2.15967c9.08984,2.87988,11.96973,8.18994,12.05957,13.40967,0,9.17969-8.09961,14.03906-17.45996,14.03906-7.64941,0-14.12891-3.05957-17.18848-8.99951Z" style="fill:#10725a;"/></g></svg>