<?xml version="1.0" encoding="UTF-8"?><svg id="Layer_2" xmlns="http://www.w3.org/2000/svg" viewBox="0 0 203.17097 193.21808"><g id="Layer_5"><circle cx="48.27369" cy="172.70898" r="19.50907" style="fill:#71bf1f;"/><path d="m41.01581,191.66619s-.77593-8.09183,2.66033-17.73552c1.99668-5.60357,8.31353-11.64131,8.31353-11.64131" style="fill:none; stroke:#fff; stroke-linecap:round; stroke-miterlimit:10; stroke-width:2px;"/><path d="m40.23988,182.57436s-6.20743-5.76404-2.66033-13.41249,19.95246-13.29926,19.95246-13.29926c0,0,2.36551,15.64325.55424,20.94771-3.10372,9.08945-13.96672,7.87014-13.96672,7.87014" style="fill:none; stroke:#fff; stroke-linecap:round; stroke-miterlimit:10; stroke-width:2px;"/><line x1="48.88595" y1="172.02982" x2="53.09821" y2="169.71613" style="fill:none; stroke:#fff; stroke-linecap:round; stroke-miterlimit:10;"/><line x1="45.67139" y1="178.30675" x2="48.88595" y2="177.4754" style="fill:none; stroke:#fff; stroke-linecap:round; stroke-miterlimit:10;"/><line x1="40.01569" y1="175.81744" x2="39.57233" y2="172.24219" style="fill:none; stroke:#fff; stroke-linecap:round; stroke-miterlimit:10;"/><line x1="43.78461" y1="169.27747" x2="43.78461" y2="166.39545" style="fill:none; stroke:#fff; stroke-linecap:round; stroke-miterlimit:10;"/><path d="m67.95173,21.79077c0,10.77454-8.73438,19.50909-19.50928,19.50909s-19.50879-8.73456-19.50879-19.50909S37.66804,2.28168,48.44245,2.28168s19.50928,8.73456,19.50928,19.50909Z" style="fill:#3faaff;"/><path d="m37.50872,31.93329c.73592,3.32539-5.4541-7.28876-2.21729-15.0752,2.49707-6.00659,8.16211-7.97125,8.86768-8.2027.34033-.11169,8.64697-2.68048,14.41016,3.10376,3.68408,3.69769,5.55908,10.03601,2.66064,15.29688-2.82129,5.12036-9.52588,8.06079-14.63184,5.76404-3.06494-1.37866-5.97705-4.83459-5.76416-8.8678.021-.39832.32764-4.82898,3.99023-6.65082,2.79199-1.38885,6.87402-.93292,8.64648,1.77356,1.13135,1.72784,1.51562,4.66852-.22168,6.42914-1.57666,1.59802-4.75439,2.07495-5.98584.44342-.771-1.02142-.6543-2.70398.22168-4.21222" style="fill:none; stroke:#fff; stroke-linecap:round; stroke-miterlimit:10; stroke-width:2px;"/><circle cx="47.6269" cy="73.33463" r="19.50907" style="fill:#e9008a;"/><polygon points="40.01819 92.84371 40.25182 81.09652 34.78067 81.73129 41.01581 62.30535 39.73288 77.46725 47.55579 76.71547 40.01819 92.84371" style="fill:#fff;"/><polygon points="57.53202 54.98945 44.92317 71.92133 53.54153 75.3853 46.00393 92.84371 63.12979 72.0876 53.44055 69.09623 57.53202 54.98945" style="fill:#fff;"/><path d="m67.95173,123.9917c0,10.7746-8.73438,19.50909-19.50879,19.50909s-19.50928-8.7345-19.50928-19.50909,8.73486-19.50903,19.50928-19.50903,19.50879,8.7345,19.50879,19.50903Z" style="fill:#ff9d00;"/><path d="m48.69635,121.997c.03973-3.15916,3.94777-4.66827,6.17534-4.71153,2.85431-.05542,3.27116,2.15181,4.98812,3.7927,1.14387,1.0932,3.26999-.60585,2.54948-1.9083-.70574-1.27577-4.0182-4.93032-7.48277-4.88616-2.2481.02865-5.76344,1.36677-6.65282,2.78007v-2.10609s2.51998-.76598,2.49666-3.21456c-.02771-2.90973-1.52415-4.34301-4.21219-4.32303-2.22794.01656-4.37846,1.4133-4.17755,4.22608.23502,3.29036,2.54255,3.53321,2.54255,3.53321,0,0,.4711,4.87965,0,5.87727,0,0-1.65208.36362-3.75494.49643-1.31631.08314-3.69952-3.71337-3.69952-3.71337-.9422-2.52177-4.18447-1.60728-3.21456.88678,0,0,2.21694,5.87493,5.54235,6.15203s5.6532-.05306,5.6532-.05306v3.10134s-3.68566-.55424-6.17972.44339c-2.14469.85788-2.02296,7.64844-2.02296,7.64844.19398,2.41092,3.92121,2.49406,3.92121,0,0,0,.1931-3.36241.76207-4.07363.66508-.83135,3.99049.00238,3.99049.00238,0,0,4.21751,4.68881,9.28344,4.62549,4.43388-.05542,6.88686-2.76629,7.92556-7.09421.66508-2.77118-2.93745-3.32541-3.38083-.44339s-2.21752,3.87498-4.43388,3.82422c-3.63024-.08314-6.61873-5.32066-6.61873-5.32066v-5.54182Z" style="fill:#fff;"/><text transform="translate(78.59284 17)" style="font-family:FilsonSoftRegular, &apos;Filson Soft&apos;; font-size:20px;"><tspan x="0" y="0">immuni</tspan><tspan x="71.5791" y="0" style="letter-spacing:-.01504em;">t</tspan><tspan x="79.73828" y="0" style="letter-spacing:-.02896em;">y</tspan><tspan x="90.31934" y="0" style="letter-spacing:-.00005em;"> </tspan><tspan x="0" y="23">boost</tspan><tspan x="0" y="69">ene</tspan><tspan x="35.97949" y="69" style="letter-spacing:-.00903em;">r</tspan><tspan x="43.19922" y="69">g</tspan><tspan x="56.0791" y="69" style="letter-spacing:-.029em;">y</tspan><tspan x="0" y="115">per</tspan><tspan x="32.23926" y="115" style="letter-spacing:-.025em;">f</tspan><tspan x="39.23926" y="115">orman</tspan><tspan x="102.25879" y="115" style="letter-spacing:-.01099em;">c</tspan><tspan x="112.63867" y="115">e</tspan><tspan x="0" y="161">pla</tspan><tspan x="30.99902" y="161" style="letter-spacing:-.00596em;">n</tspan><tspan x="42.97949" y="161">t-based</tspan></text><path d="m10.08942,2.28168s-.75391,1.61334-1.82764,5.70667" style="fill:none; stroke:#000; stroke-linecap:round; stroke-miterlimit:10; stroke-width:2px;"/><path d="m5.82673,19.67822C3.4571,33.76642.98493,57.90131,1.00007,97.24988c.00977,25.20715,4.78662,63.80469,7.41064,83.11029" style="fill:none; stroke:#000; stroke-dasharray:0 0 11.94663 11.94663; stroke-linecap:round; stroke-miterlimit:10; stroke-width:2px;"/><path d="m9.23054,186.28229c.53125,3.76117.85889,5.93579.85889,5.93579" style="fill:none; stroke:#000; stroke-linecap:round; stroke-miterlimit:10; stroke-width:2px;"/></g></svg>