<?xml version="1.0" encoding="UTF-8"?><svg id="Layer_2" xmlns="http://www.w3.org/2000/svg" viewBox="0 0 39.01807 39.01819"><g id="Layer_5"><path d="m39.01807,19.50909c0,10.77454-8.73438,19.50909-19.50928,19.50909S0,30.28363,0,19.50909,8.73438,0,19.50879,0s19.50928,8.73456,19.50928,19.50909Z" style="fill:#3faaff;"/><path d="m8.57506,29.65162c.73592,3.32539-5.4541-7.28876-2.21729-15.0752,2.49707-6.00659,8.16211-7.97125,8.86768-8.2027.34033-.11169,8.64697-2.68048,14.41016,3.10376,3.68408,3.69769,5.55908,10.03601,2.66064,15.29688-2.82129,5.12036-9.52588,8.06079-14.63184,5.76404-3.06494-1.37866-5.97705-4.83459-5.76416-8.8678.021-.39832.32764-4.82898,3.99023-6.65082,2.79199-1.38885,6.87402-.93292,8.64648,1.77356,1.13135,1.72784,1.51562,4.66852-.22168,6.42914-1.57666,1.59802-4.75439,2.07495-5.98584.44342-.771-1.02142-.6543-2.70398.22168-4.21222" style="fill:none; stroke:#fff; stroke-linecap:round; stroke-miterlimit:10; stroke-width:2px;"/></g></svg>