<?xml version="1.0" encoding="UTF-8"?><svg id="Layer_2" xmlns="http://www.w3.org/2000/svg" viewBox="0 0 91.0005 22.3223"><g id="Layer_1-2"><polygon points="12.2832 .2063 10.6672 11.7493 9.0822 .2063 4.8232 .2063 4.8232 22.0573 7.7892 22.0573 7.7892 7.9303 9.8152 22.0573 11.1372 22.0573 13.1342 7.9303 13.1342 22.0573 16.2472 22.0573 16.2472 .2063 12.2832 .2063" style="fill:#2b3937;"/><path d="m21.0962,10.6296h.851c.998,0,1.146-.707,1.146-1.589v-4.37c0-.851-.176-1.498-1.146-1.498h-.851v7.457Zm0,3.14v8.288h-3.319V.2076h5.257c2.348,0,3.406.999,3.406,3.612v5.955c0,2.586-1.145,3.995-3.406,3.995h-1.938Z" style="fill:#2b3937;"/><path d="m33.0493,4.8473c0-1.144-.383-1.675-1.145-1.675-.853,0-1.175.559-1.175,1.675v12.572c0,.939.264,1.672,1.204,1.672.882,0,1.116-.733,1.116-1.672V4.8473Zm3.376,12.334c0,3.055-1.027,5.141-4.227,5.141h-.559c-3.172,0-4.288-2.086-4.288-5.141V5.0233C27.3513,1.9983,28.4973.0003,31.6093.0003h.558C35.3983.0003,36.4253,1.9983,36.4253,4.9943v12.187Z" style="fill:#2b3937;"/><path d="m42.182.0017c2.732,0,3.789,1.204,3.789,3.788v3.584h-3.202v-3.143c0-.734-.145-1.292-.939-1.292s-.969.499-.969,1.527v.41c0,1.234.235,1.909,1.351,3.351l2.114,2.728c1.498,1.941,1.968,3.057,1.968,5.523v.704c0,3.202-1.38,5.11-4.288,5.11h-.647c-2.642,0-4.052-1.438-4.052-4.141v-4.376h3.288v3.819c0,1,.325,1.528,1.088,1.528.793,0,1.086-.528,1.086-1.881v-.498c0-1.557-.145-2.116-1.351-3.672l-2.114-2.701c-1.409-1.823-1.82-3.231-1.82-5.405v-.705C37.484,1.3537,38.952.0017,41.565.0017h.617Z" style="fill:#2b3937;"/><path d="m51.9914.0017c2.731,0,3.787,1.204,3.787,3.788v3.584h-3.2v-3.143c0-.734-.147-1.292-.939-1.292-.794,0-.971.499-.971,1.527v.41c0,1.234.236,1.909,1.353,3.351l2.114,2.728c1.499,1.941,1.967,3.057,1.967,5.523v.704c0,3.202-1.38,5.11-4.289,5.11h-.645c-2.643,0-4.052-1.438-4.052-4.141v-4.376h3.288v3.819c0,1,.324,1.528,1.088,1.528.793,0,1.086-.528,1.086-1.881v-.498c0-1.557-.147-2.116-1.351-3.672l-2.114-2.701c-1.409-1.823-1.822-3.231-1.822-5.405v-.705C47.2914,1.3537,48.7614.0017,51.3734.0017h.618Z" style="fill:#2b3937;"/><path d="m65.5069,12.1034v6.871h.99799c1.056,0,1.292-.501,1.292-1.468v-3.994c0-.911-.236-1.409-1.292-1.409h-.99799Zm0-8.929v5.667h.99799c.881,0,1.144-.615,1.144-1.527v-2.76c0-.882-.234-1.38-1.144-1.38h-.99799Zm-3.32-2.967h5.228c2.761,0,3.495,1.44,3.495,3.552v3.35c0,1.82-.79199,2.701-1.645,3.025.88.292,1.909,1.027,1.909,3.201v4.728c0,2.32-1.02901,3.994-3.525,3.994h-5.462V.2074Z" style="fill:#2b3937;"/><polygon points="75.8353 .2074 75.8353 18.6814 78.4573 18.6814 78.4573 22.0574 72.5173 22.0574 72.5173 .2074 75.8353 .2074" style="fill:#2b3937;"/><polygon points="86.63 .2074 86.63 3.3794 82.853 3.3794 82.853 9.1064 85.796 9.1064 85.796 12.4244 82.853 12.4244 82.853 18.7384 86.729 18.7384 86.729 22.0574 79.53699 22.0574 79.53699 .2074 86.63 .2074" style="fill:#2b3937;"/><rect x="57.263" y=".207" width="3.318" height="21.85" style="fill:#2b3937;"/><rect y=".207" width="3.318" height="21.85" style="fill:#2b3937;"/><polygon points="89.2057 .2074 89.2057 .6684 88.8007 .6684 88.8007 3.3794 88.3227 3.3794 88.3227 .6684 87.9177 .6684 87.9177 .2074 89.2057 .2074" style="fill:#2b3937;"/><polygon points="89.3415 .2074 89.9595 .2074 90.1905 1.8834 90.4245 .2074 91.0005 .2074 91.0005 3.3794 90.5475 3.3794 90.5475 1.3284 90.2585 3.3794 90.0665 3.3794 89.7725 1.3284 89.7725 3.3794 89.3415 3.3794 89.3415 .2074" style="fill:#2b3937;"/><rect width="91" height="22.322" style="fill:none;"/></g></svg>