<?xml version="1.0" encoding="UTF-8"?><svg id="Layer_2" xmlns="http://www.w3.org/2000/svg" viewBox="0 0 823.21973 87.1167"><g id="Layer_1-2"><path d="m6.65967,62.1875V29.06885H2.06982c-1.3501,0-2.06982-.72021-2.06982-2.06982v-4.31982c0-1.3501.71973-2.07031,2.06982-2.07031h4.58984v-3.14941C6.65967,3.1499,15.38916,0,22.76904,0c8.45947,0,14.5791,4.22998,14.5791,11.87939,0,.4502-.08984.99023-.17969,1.43994-.18018.8999-.8999,1.3501-1.89014,1.3501h-5.3999c-1.07959,0-1.88965-.62988-1.88965-1.62012v-.62988c0-1.97998-1.97998-3.33008-4.5-3.33008-3.50977,0-5.30957,2.61035-5.30957,6.66016v4.85938h8.99951c1.3501,0,2.06982.72021,2.06982,2.07031v4.31982c0,1.34961-.71973,2.06982-2.06982,2.06982h-8.81982v33.11865c0,2.42969-1.34961,3.77979-3.77979,3.77979h-4.0498c-2.42969,0-3.86963-1.3501-3.86963-3.77979Z" style="fill:#10725a;"/><path d="m38.06885,62.1875V24.11914c0-2.43018,1.34961-3.87012,3.77979-3.87012h3.77979c2.42969,0,3.77979,1.43994,3.77979,3.87012v6.2998c1.52979-7.83008,7.37988-11.15967,12.05957-11.15967.35986,0,1.3501.08984,1.7998.17969,1.97998.18018,2.33984,1.80029,2.33984,3.6001v4.5c0,2.33984-1.08008,3.32959-2.78955,3.05957-.81006-.17969-1.62012-.27002-2.34033-.27002-4.31982,0-10.79932,2.60986-10.79932,17.54932v14.30957c0,2.42969-1.43994,3.77979-3.87012,3.77979h-3.95947c-2.43018,0-3.77979-1.3501-3.77979-3.77979Z" style="fill:#10725a;"/><path d="m68.49023,43.28809c0-13.04932,9.98926-24.02881,24.83887-24.02881,12.23926,0,22.85889,7.37939,23.75879,21.95898.18018,2.33984-1.34961,3.6001-3.77979,3.6001h-33.56836c-.18018,6.92969,5.93945,12.59912,15.38916,12.59912,3.77979,0,7.55957-.98975,11.24951-3.32959,1.97998-1.16992,3.77979-.99023,5.31006.71973l.80957.99023c1.62012,1.7998,1.53027,4.0498-.71973,5.75977-5.21973,4.0498-11.42969,5.39941-17.18945,5.39941-16.19922,0-26.09863-10.61914-26.09863-23.66895Zm37.43848-5.75977c-1.80029-7.19971-7.56006-8.99951-12.41943-8.99951-5.04004,0-11.06982,2.06982-13.22949,8.99951h25.64893Z" style="fill:#10725a;"/><path d="m122.93896,57.95752c-1.17041-2.42969.08984-4.13965,2.51953-4.76953l2.33984-.54004c2.16016-.54004,3.24023.44971,4.77002,2.15967,1.62012,1.97998,4.40967,3.23975,7.55957,3.23975,3.95996,0,6.75-2.15967,6.75-5.03955,0-2.42969-1.89014-3.68994-4.85986-4.77002l-5.8501-2.06982c-5.84961-1.7998-12.14941-5.3999-12.14941-12.86914,0-8.1001,6.65967-14.03955,16.10938-14.03955,5.75977,0,11.06982,1.88965,14.21973,7.28955,1.52979,2.33984.27002,4.22998-2.25,4.85986l-2.06982.54004c-2.16016.54004-3.33008-.27002-4.77002-1.7998-1.3501-1.62012-3.1499-2.07031-4.94971-2.07031-3.50977,0-5.58008,2.16016-5.58008,4.77002,0,2.42969,2.16016,3.68994,4.68018,4.5l6.11963,2.15967c9.08984,2.87988,11.96973,8.18994,12.05957,13.40967,0,9.17969-8.09961,14.03906-17.45947,14.03906-7.64941,0-14.12939-3.05957-17.18896-8.99951Z" style="fill:#10725a;"/><path d="m166.40918,62.1875V4.67969c0-2.42969,1.34961-3.77979,3.77979-3.77979h3.95947c2.43018,0,3.87012,1.3501,3.87012,3.77979v23.66895c2.06982-5.75977,7.46973-9.08936,14.48926-9.08936,11.15967,0,17.09961,8.09961,17.09961,20.60889v22.31934c0,2.42969-1.43994,3.77979-3.87012,3.77979h-3.95996c-2.42969,0-3.77979-1.3501-3.77979-3.77979v-21.7793c0-7.82959-3.41992-11.4292-8.18945-11.4292-4.67969,0-11.78955,3.50977-11.78955,14.66895v18.53955c0,2.42969-1.43994,3.77979-3.87012,3.77979h-3.95947c-2.43018,0-3.77979-1.3501-3.77979-3.77979Z" style="fill:#10725a;"/><path d="m224.00781,75.23682c0-.4502,0-.99023.09033-1.43945.17969-.90039.8999-1.35059,1.88965-1.35059h5.48975c1.08008,0,1.89014.62988,1.89014,1.62012v.62988c0,1.98047,1.88965,3.33008,4.40967,3.33008,3.41992,0,5.12988-2.61035,5.12988-6.65967l.08984-47.24805c0-2.43018,1.3501-3.87012,3.77979-3.87012h4.0498c2.43018,0,3.77979,1.43994,3.77979,3.87012v45.53809c0,14.30908-8.63965,17.45947-16.10889,17.45947-8.45996,0-14.48975-4.23047-14.48975-11.87988ZM241.64697,6.74951c0-3.77979,2.79004-6.74951,7.29004-6.74951,4.49951,0,7.37939,2.96973,7.37939,6.74951,0,3.78027-2.96973,6.75-7.37939,6.75-4.41016,0-7.29004-2.96973-7.29004-6.75Z" style="fill:#10725a;"/><path d="m266.12646,46.34814v-22.229c0-2.43018,1.43994-3.87012,3.87012-3.87012h3.95947c2.43018,0,3.77979,1.43994,3.77979,3.87012v21.68896c0,7.82959,3.41992,11.42969,8.18994,11.42969,4.67969,0,11.78955-3.50977,11.78955-14.57959v-18.53906c0-2.43018,1.43994-3.87012,3.86963-3.87012h3.95996c2.42969,0,3.77979,1.43994,3.77979,3.87012v38.06836c0,2.42969-1.3501,3.77979-3.77979,3.77979h-3.95996c-2.42969,0-3.86963-1.3501-3.86963-3.77979v-4.31982c-2.06982,5.75977-7.46973,9.08936-14.48975,9.08936-11.15918,0-17.09912-8.09961-17.09912-20.60889Z" style="fill:#10725a;"/><path d="m319.9458,6.74951c0-3.77979,2.79004-6.74951,7.28955-6.74951,4.5,0,7.37988,2.96973,7.37988,6.74951,0,3.78027-2.97021,6.75-7.37988,6.75s-7.28955-2.96973-7.28955-6.75Zm1.52979,55.43799V24.11914c0-2.43018,1.3501-3.87012,3.77979-3.87012h4.0498c2.43018,0,3.78027,1.43994,3.78027,3.87012v38.06836c0,2.42969-1.3501,3.77979-3.78027,3.77979h-4.0498c-2.42969,0-3.77979-1.3501-3.77979-3.77979Z" style="fill:#10725a;"/><path d="m342.08594,43.46826c0-13.31934,9.71924-24.20898,26.09863-24.20898,3.95996,0,8.99951.8999,14.03955,3.86963,2.16016,1.26025,2.42969,3.33008.8999,5.31006l-1.08008,1.34961c-1.43994,1.97998-3.05957,2.07031-5.30957.99023-3.41992-1.70996-6.83984-1.7998-7.91992-1.7998-8.72949,0-15.11914,5.84961-15.11914,14.12939,0,8.36963,6.38965,14.21924,15.11914,14.21924,1.08008,0,4.5-.18018,7.91992-1.7998,2.25-1.08008,3.95996-.99023,5.30957.8999l1.08008,1.43994c1.43994,1.97998.99023,4.31982-1.97998,5.84961-4.58984,2.52002-9.26953,3.23975-12.95947,3.23975-16.01904,0-26.09863-10.43945-26.09863-23.48877Z" style="fill:#10725a;"/><path d="m388.97559,43.28809c0-13.04932,9.98926-24.02881,24.83887-24.02881,12.23926,0,22.85889,7.37939,23.75879,21.95898.18018,2.33984-1.34961,3.6001-3.77979,3.6001h-33.56836c-.18018,6.92969,5.93945,12.59912,15.38916,12.59912,3.77979,0,7.55957-.98975,11.24951-3.32959,1.97998-1.16992,3.77979-.99023,5.31006.71973l.80957.99023c1.62012,1.7998,1.53027,4.0498-.71973,5.75977-5.21973,4.0498-11.42969,5.39941-17.18945,5.39941-16.19922,0-26.09863-10.61914-26.09863-23.66895Zm37.43848-5.75977c-1.80029-7.19971-7.56006-8.99951-12.41943-8.99951-5.04004,0-11.06982,2.06982-13.22949,8.99951h25.64893Z" style="fill:#10725a;"/><path d="m443.42432,57.95752c-1.17041-2.42969.08984-4.13965,2.51953-4.76953l2.33984-.54004c2.16016-.54004,3.24023.44971,4.77002,2.15967,1.62012,1.97998,4.40967,3.23975,7.55957,3.23975,3.95996,0,6.75-2.15967,6.75-5.03955,0-2.42969-1.89014-3.68994-4.85986-4.77002l-5.8501-2.06982c-5.84961-1.7998-12.14941-5.3999-12.14941-12.86914,0-8.1001,6.65967-14.03955,16.10938-14.03955,5.75977,0,11.06982,1.88965,14.21973,7.28955,1.52979,2.33984.27002,4.22998-2.25,4.85986l-2.06982.54004c-2.16016.54004-3.33008-.27002-4.77002-1.7998-1.3501-1.62012-3.1499-2.07031-4.94971-2.07031-3.50977,0-5.58008,2.16016-5.58008,4.77002,0,2.42969,2.16016,3.68994,4.68018,4.5l6.11963,2.15967c9.08984,2.87988,11.96973,8.18994,12.05957,13.40967,0,9.17969-8.09961,14.03906-17.45947,14.03906-7.64941,0-14.12939-3.05957-17.18896-8.99951Z" style="fill:#10725a;"/><path d="m506.24414,49.04785c0-9.80957,8.36963-16.01904,16.64893-19.25928-4.22949-3.05957-7.46973-8.2793-7.46973-13.22949,0-10.70947,10.07959-14.5791,18.08936-14.5791,9.62988,0,16.19971,6.74951,16.19971,13.94922,0,6.65967-6.20996,13.0498-12.95996,15.83936l10.16992,11.33984,7.10938-9.08984c.72021-.8999,1.62012-1.16992,2.7002-1.16992h6.65967c1.89014,0,2.42969,1.16992,1.25977,2.60986l-11.78955,14.39941,3.51025,3.95996c2.24951,2.33984,3.95947,3.23975,6.29932,3.23975,1.53027,0,3.41992-.35986,5.31006-1.43994,1.25977-.71973,2.33984-.71973,2.96973.72021l1.97998,3.68945c.54004,1.16992.35986,2.16016-.62988,3.06006-2.60986,2.25-6.02979,3.86963-10.34961,3.86963-5.30957,0-8.90967-2.15967-12.32959-5.39941l-2.25-2.33984c-3.95947,5.03955-11.15918,7.73926-18.62891,7.73926-12.23975,0-22.49902-6.56934-22.49902-17.90918Zm34.64844,2.7002l-12.77979-14.66943c-4.94971,1.7998-10.5293,5.84961-10.5293,11.4292,0,5.31006,4.94971,9.17969,11.42969,9.17969,4.85938,0,8.72949-2.06982,11.87939-5.93945Zm-1.52979-35.00879c0-3.06006-2.52002-6.2998-6.66016-6.2998-3.68945,0-6.47949,2.60986-6.47949,6.65967,0,3.24023,1.7998,6.38965,4.85986,9.08984,5.66943-2.79004,8.27979-6.11963,8.27979-9.44971Z" style="fill:#10725a;"/><path d="m599.84326,57.95752c-1.16992-2.42969.09033-4.13965,2.52002-4.76953l2.33984-.54004c2.16016-.54004,3.24023.44971,4.77051,2.15967,1.62012,1.97998,4.40918,3.23975,7.55957,3.23975,3.95996,0,6.75-2.15967,6.75-5.03955,0-2.42969-1.89062-3.68994-4.86035-4.77002l-5.84961-2.06982c-5.84961-1.7998-12.1499-5.3999-12.1499-12.86914,0-8.1001,6.65967-14.03955,16.10986-14.03955,5.75977,0,11.06934,1.88965,14.21973,7.28955,1.5293,2.33984.26953,4.22998-2.25,4.85986l-2.07031.54004c-2.16016.54004-3.33008-.27002-4.76953-1.7998-1.35059-1.62012-3.15039-2.07031-4.9502-2.07031-3.50977,0-5.58008,2.16016-5.58008,4.77002,0,2.42969,2.16016,3.68994,4.68066,4.5l6.11914,2.15967c9.08984,2.87988,11.96973,8.18994,12.05957,13.40967,0,9.17969-8.09961,14.03906-17.45898,14.03906-7.64941,0-14.12988-3.05957-17.18994-8.99951Z" style="fill:#10725a;"/><path d="m643.31348,62.1875V4.67969c0-2.42969,1.34961-3.77979,3.78027-3.77979h3.95898c2.43066,0,3.87012,1.3501,3.87012,3.77979v23.66895c2.07031-5.75977,7.46973-9.08936,14.48926-9.08936,11.16016,0,17.09959,8.09961,17.09959,20.60889v22.31934c0,2.42969-1.43943,3.77979-3.8701,3.77979h-3.95996c-2.42969,0-3.7793-1.3501-3.7793-3.77979v-21.7793c0-7.82959-3.41992-11.4292-8.18945-11.4292-4.67969,0-11.79004,3.50977-11.79004,14.66895v18.53955c0,2.42969-1.43945,3.77979-3.87012,3.77979h-3.95898c-2.43066,0-3.78027-1.3501-3.78027-3.77979Z" style="fill:#10725a;"/><path d="m694.6123,43.1084c0-13.13965,10.70996-23.84912,24.65918-23.84912s24.74902,10.79932,24.74902,23.84912c0,13.22949-10.7998,23.84863-24.74902,23.84863s-24.65918-10.61914-24.65918-23.84863Zm38.1582.08984c0-7.91992-5.93945-14.21924-13.49902-14.21924s-13.5,6.29932-13.5,14.21924c0,7.82959,5.94043,14.03955,13.5,14.03955s13.49902-6.20996,13.49902-14.03955Z" style="fill:#10725a;"/><path d="m754.6416,51.11768v-22.04883h-5.04004c-1.34961,0-2.06934-.72021-2.06934-2.06982v-4.68018c0-1.25977.71973-2.06982,2.06934-2.06982h5.58008l1.62012-9.80957c.26953-1.7998,1.43945-2.69971,3.14941-2.69971h3.15039c1.88965,0,2.96973,1.08008,2.96973,2.96973v9.53955h11.33984c1.34961,0,2.06934.81006,2.06934,2.06982v4.68018c0,1.34961-.71973,2.06982-2.06934,2.06982h-11.33984v22.49902c0,4.13965,2.07031,5.75977,4.5,5.75977,2.51953,0,4.58984-1.70996,4.58984-4.5,0-.44971,0-.98975-.08984-1.61963-.18066-1.43994.26953-2.25,1.70996-2.25h4.76953c1.16992,0,2.06934.44971,2.33984,1.62012.35938,1.52979.4502,3.05957.4502,3.41943,0,8.45996-5.94043,12.95947-14.49023,12.95947-7.55957,0-15.20898-3.59961-15.20898-15.83936Z" style="fill:#10725a;"/><path d="m788.57129,57.95752c-1.1709-2.42969.08984-4.13965,2.51953-4.76953l2.33984-.54004c2.16016-.54004,3.24023.44971,4.76953,2.15967,1.62012,1.97998,4.41016,3.23975,7.55957,3.23975,3.95996,0,6.75-2.15967,6.75-5.03955,0-2.42969-1.88965-3.68994-4.85938-4.77002l-5.85059-2.06982c-5.84961-1.7998-12.14941-5.3999-12.14941-12.86914,0-8.1001,6.66016-14.03955,16.10938-14.03955,5.75977,0,11.07031,1.88965,14.21973,7.28955,1.53027,2.33984.27051,4.22998-2.25,4.85986l-2.06934.54004c-2.16016.54004-3.33008-.27002-4.77051-1.7998-1.34961-1.62012-3.14941-2.07031-4.94922-2.07031-3.50977,0-5.58008,2.16016-5.58008,4.77002,0,2.42969,2.16016,3.68994,4.67969,4.5l6.12012,2.15967c9.08984,2.87988,11.96973,8.18994,12.05957,13.40967,0,9.17969-8.09961,14.03906-17.45996,14.03906-7.64941,0-14.12891-3.05957-17.18848-8.99951Z" style="fill:#10725a;"/></g></svg>