<?xml version="1.0" encoding="UTF-8"?><svg id="Layer_2" xmlns="http://www.w3.org/2000/svg" viewBox="0 0 117.96047 21.86254"><g id="Layer_1-2"><path d="m.00204,19.27849c-.0376-.71875.44824-1.38574,1.16699-1.42383,1.03271-.17383,1.89648,1.02148,3.33447.94629,1.15771-.06055,2.21729-1.2373,2.1709-2.11523-.09033-.95703-1.25244-1.73633-2.61621-2.5459-1.57178-.95996-2.78027-1.85645-2.85352-3.25391-.14258-2.7168,3.66064-5.03906,6.6958-5.19824,1.59326-.16309,3.10645.43945,3.16504,1.55664.07764,1.47852-1.20654,1.4248-2.48438,1.49219-1.12061.01855-2.18652.31445-3.19775.8877-1.00879.61328-1.01953,1.17578-.06738,1.7666,2.6123,1.70508,4.21387,2.46191,4.3584,5.2168.14209,2.71582-2.4165,5.09375-5.37207,5.24902C2.3453,21.95915.07772,20.71599.00204,19.27849Z" style="fill:#74c04c;"/><path d="m23.14852,19.98747c-.03125-1.36035.68652-3.7207,1.42041-7.28418.12891-.60645-.60303-.80859-.93701-.31055-.37207.54004-1.65869,2.72949-2.00391,3.02832-.9458,1.05078-2.23682.87891-2.78711-.4541-.40332-.81934-.72461-3.8877-1.64307-3.83984-.75879.04004-1.81055,4.4209-2.20459,6.84473-.20996,1.33301-.89746,1.96875-1.82666,1.81641-.68994-.16211-1.20654-.85547-1.1665-1.62012.0127-.52148.10986-.96582.20508-1.45215.72119-3.04102,2.35791-9.25488,3.2832-10.70508.7085-.99707,1.8623-1.1377,2.74902-.2627.79688.67871,1.35547,2.16992,2.07861,3.73438.40723.90039.84912.91699,1.4458.08496l1.53076-2.12305c2.12988-2.91406,3.21533-3.6123,4.4043-3.07324,1.14551.45996,1.32617,1.61133.81494,4.08105-1.0127,5.13965-2.32324,11.45605-2.56934,12.10938-.32373.69727-.94873,1.01074-1.67529.88867-.76904-.16016-1.07471-.62402-1.11865-1.46289Z" style="fill:#74c04c;"/><path d="m29.78573,16.67497c-.26611-5.07129,3.56592-12.20117,7.79932-12.42285,1.99707-.10449,2.62305,2.66602,2.73193,4.74219.30127,4.99121-2.65576,11.2334-6.76953,11.44824-2.1167.11133-3.64648-1.57031-3.76172-3.76758Zm7.65527-7.53027c-.0293-.55859-.18018-1.15039-.73975-1.12109-1.79688.09375-4.14893,5.66309-4.02734,7.98047.0459.87891.35303,1.38281.95215,1.35156,2.08496.05078,3.94873-5.6543,3.81494-8.21094Z" style="fill:#74c04c;"/><path d="m41.88925,16.04118c-.26611-5.07129,3.56592-12.20117,7.79932-12.42285,1.99707-.10547,2.62305,2.66602,2.73193,4.74219.30127,4.99023-2.65576,11.23242-6.76953,11.44824-2.1167.11133-3.64648-1.57031-3.76172-3.76758Zm7.65527-7.53027c-.0293-.55859-.18018-1.15137-.73975-1.12207-1.79688.09473-4.14893,5.66309-4.02734,7.98047.0459.87891.35303,1.38281.95215,1.35156,2.08496.05176,3.94873-5.65332,3.81494-8.20996Z" style="fill:#74c04c;"/><path d="m57.32919,17.95622c.16016-.76953,1.36963-4.4375,3.44531-10.6748.12256-.72656-.41357-1.01855-1.33203-.9707-1.39551.11328-2.35254.2041-2.99121.2373-1.75293.17188-2.71143.22266-2.94482-1.16699-.13232-.99512.75293-1.68164,2.35059-1.76562l7.229-.37891c6.82959-.35742,7.82373-.49023,8.48145-.16504.53564.29297.84473.83691.75635,1.44336-.11377.88672-.73779,1.19922-2.25537,1.2793-1.39795.07324-2.83594.14844-4.27539.18359-.96094.01074-1.57715.4834-1.88867,1.4209-.40576,1.42285-.89355,2.81055-1.38135,4.19727-1.31934,3.87402-2.27637,7.00781-2.5791,7.34473-.40576.66113-1.11426.89941-1.80566.69434-.61328-.24805-.97314-.98926-.80908-1.67871Z" style="fill:#74c04c;"/><path d="m71.11923,17.39275c.21484-2.01367,3.55322-13.20117,4.50391-14.93359.25635-.4541.68311-.71582,1.16016-.78125,1.19824-.0625,1.73438.99121,1.45703,1.80566-.13721.44824-1.47949,4.64258-1.75732,5.45801-.20166.73145.06055,1.1582.82227,1.15918l1.39746-.07324c1.99756-.10449,2.00782.0957,2.65577-2.06152.41406-1.2627.72314-2.24023,1.20117-3.82715.38037-1.1416,1.02344-1.85547,1.78223-1.89551.91895-.04785,1.84961.90332,1.42285,1.92676-1.19727,3.14746-2.06543,6.43652-2.93896,9.64648-.7002,2.67969-.80566,2.96484-.99414,3.17578-.41016.58105-1.03906.81543-1.56836.64258-1.09326-.22363-1.19629-1.41895-.81982-2.64062.48828-1.38672.17969-1.93164-.81885-1.87891-.48193-.01562-1.1582.06055-2.47607.12891-.63916.03418-1.06201.37598-1.19043.98438-.40332,1.46289-.81641,3.52637-1.18652,4.10645-.40723.62207-1.15576.8623-1.80811.65625-.61328-.24805-.92627-.87305-.84424-1.59863Z" style="fill:#74c04c;"/><path d="m86.13876,15.84489c-.05225-.99805,1.11523-3.94336,1.68945-5.97559,1.17773-3.50488,1.54443-5.6875,1.84863-6.74512.33887-1.17773.91553-1.65039,1.68457-1.48926,1.09326.22363,1.38086,1.12891.99951,3.03125-.84766,3.68848-2.01709,7.35449-3.22852,10.98242-.42529,1.0625-1.07031,1.7373-2.08984,1.39062-.53027-.17285-.83252-.59668-.90381-1.19434Z" style="fill:#74c04c;"/><path d="m92.81552,16.37614c-.05615-1.07812,1.41162-5.92188,2.20898-8.28516,1.27051-4.03125,1.71436-5.49707,2.10742-6.39746.39746-.82324,1.01562-1.25586,1.89453-1.30176,1.1582-.06055,6.10645-.40039,6.70752-.3916.68066.00488,1.27393.61426,1.31348,1.37207-.00635.64258-.4585,1.18652-1.12891,1.38184-.35547.09863-3.74414.39551-4.8623.4541-1.00049.01367-1.57861.44434-1.76807,1.41504-.09912.40527-.51562,1.62891-.61865,1.95508-.16602.64941.13867,1.11328.81982,1.11816,2.24854.12305,3.65088.12891,3.2998,1.8291-.08887.60547-.54932.99023-1.10596,1.05957-.99219.17285-3.80859-.08105-4.37891.50879-.26465.29492-.87305,2.4502-1.03027,3.25879-.26758,1.01562.89502,1.0332,1.854.9834l3.03467-.15918c1.23828-.06445,1.94482.41992,1.98877,1.25781.00586.88086-.68164,1.51758-1.7959,1.65625-2.19043.23535-6.47021.33887-7.20361.09766-.85742-.31543-1.29004-.93359-1.33643-1.8125Z" style="fill:#74c04c;"/><path d="m106.89364,13.67595c-.0376-.71875.44824-1.38574,1.16699-1.42285,1.03223-.17383,1.896,1.02148,3.33398.94629,1.1582-.06055,2.21777-1.2373,2.17139-2.11523-.09033-.95703-1.25244-1.73633-2.61621-2.5459-1.57178-.95996-2.78076-1.85742-2.854-3.25488-.14258-2.7168,3.66064-5.03906,6.69629-5.19824,1.59277-.16211,3.10645.43945,3.16504,1.55664.07764,1.47852-1.20654,1.42578-2.48486,1.49316-1.12061.01855-2.18652.31348-3.19775.8877-1.00879.61328-1.01953,1.17578-.06689,1.7666,2.6123,1.70508,4.21338,2.46191,4.35791,5.2168.14209,2.71582-2.41602,5.09375-5.37207,5.24805-1.95654.10254-4.22412-1.14062-4.2998-2.57812Z" style="fill:#74c04c;"/></g></svg>