<?xml version="1.0" encoding="UTF-8"?><svg id="Layer_2" xmlns="http://www.w3.org/2000/svg" viewBox="0 0 180.35693 66.95801"><g id="Layer_1-2"><path d="m19.25928,56.6084l-7.64941-13.0498v18.62891c0,2.43066-1.43994,3.78027-3.87012,3.78027h-3.95996c-2.42969,0-3.77979-1.34961-3.77979-3.78027V4.68066C0,2.25,1.3501.90039,3.77979.90039h3.95996c2.43018,0,3.87012,1.34961,3.87012,3.78027v34.46777l12.59912-16.55859c1.08008-1.62012,2.52002-2.33984,4.58984-2.33984h4.68018c3.23975,0,4.22949,2.15918,2.24951,4.67969l-13.13916,16.37891,6.74951,10.62012c2.33984,3.50977,3.87012,5.30957,7.19971,5.30957.62988,0,2.06982-.08984,3.41992-.62988,1.52979-.54004,2.42969-.27051,3.1499.98926l1.70996,3.51074c.62988,1.25977.18018,2.87988-2.16016,4.0498-3.23975,1.61914-6.47949,1.7998-8.09961,1.7998-8.36963,0-12.14941-5.04004-15.29932-10.34961Z" style="fill:#74c04c;"/><path d="m50.21924,6.75c0-3.7793,2.79004-6.75,7.28955-6.75,4.5,0,7.37988,2.9707,7.37988,6.75,0,3.78027-2.97021,6.75-7.37988,6.75s-7.28955-2.96973-7.28955-6.75Zm1.52979,55.4375V24.11914c0-2.42969,1.3501-3.86914,3.77979-3.86914h4.0498c2.43018,0,3.78027,1.43945,3.78027,3.86914v38.06836c0,2.43066-1.3501,3.78027-3.78027,3.78027h-4.0498c-2.42969,0-3.77979-1.34961-3.77979-3.78027Z" style="fill:#74c04c;"/><path d="m72.98877,43.1084c0-13.31934,9-23.84863,22.229-23.84863,6.12012,0,11.69971,2.25,15.47949,7.83008V4.68066c0-2.43066,1.43994-3.78027,3.87012-3.78027h3.95947c2.43018,0,3.78027,1.34961,3.78027,3.78027v57.50684c0,2.43066-1.3501,3.78027-3.78027,3.78027h-3.95947c-2.43018,0-3.87012-1.34961-3.87012-3.78027v-3.05957c-3.77979,5.58008-9.35938,7.83008-15.47949,7.83008-13.229,0-22.229-10.53027-22.229-23.84961Zm37.97852,0c-.08984-8.18945-5.48975-14.21875-13.49951-14.21875-8.18945,0-12.86914,6.47949-12.86914,14.21875,0,7.83008,4.67969,14.21973,12.86914,14.21973,8.00977,0,13.40967-6.0293,13.49951-14.21973Z" style="fill:#74c04c;"/><path d="m131.30908,25.28906l-.35986-.80957c-.63037-.99023-.4502-1.88965.62988-2.61035,3.68994-2.15918,5.48975-5.66895,5.48975-8.81934-.54004.17969-1.08008.17969-1.52979.27051-3.6001,0-5.58008-2.87988-5.58008-5.75977-.08984-3.69043,2.43018-6.66016,7.19971-6.66016,5.75977,0,7.19971,5.30957,7.19971,8.09961,0,7.37988-3.95996,13.85938-10.43945,17.00977-1.08008.62988-1.97998.26953-2.60986-.7207Z" style="fill:#74c04c;"/><path d="m145.7085,57.95801c-1.17041-2.42969.08984-4.13965,2.51953-4.76953l2.33984-.54004c2.16016-.54004,3.24023.4502,4.77002,2.16016,1.62012,1.97949,4.40967,3.23926,7.55957,3.23926,3.95996,0,6.75-2.15918,6.75-5.04004,0-2.42969-1.89014-3.68945-4.85986-4.76953l-5.8501-2.06934c-5.84961-1.7998-12.14941-5.40039-12.14941-12.87012,0-8.09961,6.65967-14.03906,16.10938-14.03906,5.75977,0,11.06982,1.88965,14.21973,7.29004,1.52979,2.33984.27002,4.22949-2.25,4.85938l-2.06982.54004c-2.16016.54004-3.33008-.27051-4.77002-1.7998-1.3501-1.62012-3.1499-2.07031-4.94971-2.07031-3.50977,0-5.58008,2.16016-5.58008,4.77051,0,2.42969,2.16016,3.68945,4.68018,4.49902l6.11963,2.16016c9.08984,2.87988,11.96973,8.18945,12.05957,13.40918,0,9.17969-8.09961,14.04004-17.45947,14.04004-7.64941,0-14.12939-3.06055-17.18896-9Z" style="fill:#74c04c;"/></g></svg>