<?xml version="1.0" encoding="UTF-8"?><svg id="Layer_2" xmlns="http://www.w3.org/2000/svg" viewBox="0 0 180.35693 163.61814"><g id="Layer_1-2"><path d="m19.25928,121.913l-7.64941-13.0498v18.62891c0,2.43066-1.43994,3.78027-3.87012,3.78027h-3.95996c-2.42969,0-3.77979-1.34961-3.77979-3.78027v-57.50684c0-2.43066,1.3501-3.78027,3.77979-3.78027h3.95996c2.43018,0,3.87012,1.34961,3.87012,3.78027v34.46777l12.59912-16.55859c1.08008-1.62012,2.52002-2.33984,4.58984-2.33984h4.68018c3.23975,0,4.22949,2.15918,2.24951,4.67969l-13.13916,16.37891,6.74951,10.62012c2.33984,3.50977,3.87012,5.30957,7.19971,5.30957.62988,0,2.06982-.08984,3.41992-.62988,1.52979-.54004,2.42969-.27051,3.1499.98926l1.70996,3.51074c.62988,1.25977.18018,2.87988-2.16016,4.0498-3.23975,1.61914-6.47949,1.7998-8.09961,1.7998-8.36963,0-12.14941-5.04004-15.29932-10.34961Z" style="fill:#74c04c;"/><path d="m50.21924,72.0546c0-3.7793,2.79004-6.75,7.28955-6.75,4.5,0,7.37988,2.9707,7.37988,6.75,0,3.78027-2.97021,6.75-7.37988,6.75s-7.28955-2.96973-7.28955-6.75Zm1.52979,55.4375v-38.06836c0-2.42969,1.3501-3.86914,3.77979-3.86914h4.0498c2.43018,0,3.78027,1.43945,3.78027,3.86914v38.06836c0,2.43066-1.3501,3.78027-3.78027,3.78027h-4.0498c-2.42969,0-3.77979-1.34961-3.77979-3.78027Z" style="fill:#74c04c;"/><path d="m72.98877,108.413c0-13.31934,9-23.84863,22.229-23.84863,6.12012,0,11.69971,2.25,15.47949,7.83008v-22.40918c0-2.43066,1.43994-3.78027,3.87012-3.78027h3.95947c2.43018,0,3.78027,1.34961,3.78027,3.78027v57.50684c0,2.43066-1.3501,3.78027-3.78027,3.78027h-3.95947c-2.43018,0-3.87012-1.34961-3.87012-3.78027v-3.05957c-3.77979,5.58008-9.35938,7.83008-15.47949,7.83008-13.229,0-22.229-10.53027-22.229-23.84961Zm37.97852,0c-.08984-8.18945-5.48975-14.21875-13.49951-14.21875-8.18945,0-12.86914,6.47949-12.86914,14.21875,0,7.83008,4.67969,14.21973,12.86914,14.21973,8.00977,0,13.40967-6.0293,13.49951-14.21973Z" style="fill:#74c04c;"/><path d="m131.30908,90.59366l-.35986-.80957c-.63037-.99023-.4502-1.88965.62988-2.61035,3.68994-2.15918,5.48975-5.66895,5.48975-8.81934-.54004.17969-1.08008.17969-1.52979.27051-3.6001,0-5.58008-2.87988-5.58008-5.75977-.08984-3.69043,2.43018-6.66016,7.19971-6.66016,5.75977,0,7.19971,5.30957,7.19971,8.09961,0,7.37988-3.95996,13.85938-10.43945,17.00977-1.08008.62988-1.97998.26953-2.60986-.7207Z" style="fill:#74c04c;"/><path d="m145.7085,123.26261c-1.17041-2.42969.08984-4.13965,2.51953-4.76953l2.33984-.54004c2.16016-.54004,3.24023.4502,4.77002,2.16016,1.62012,1.97949,4.40967,3.23926,7.55957,3.23926,3.95996,0,6.75-2.15918,6.75-5.04004,0-2.42969-1.89014-3.68945-4.85986-4.76953l-5.8501-2.06934c-5.84961-1.7998-12.14941-5.40039-12.14941-12.87012,0-8.09961,6.65967-14.03906,16.10938-14.03906,5.75977,0,11.06982,1.88965,14.21973,7.29004,1.52979,2.33984.27002,4.22949-2.25,4.85938l-2.06982.54004c-2.16016.54004-3.33008-.27051-4.77002-1.7998-1.3501-1.62012-3.1499-2.07031-4.94971-2.07031-3.50977,0-5.58008,2.16016-5.58008,4.77051,0,2.42969,2.16016,3.68945,4.68018,4.49902l6.11963,2.16016c9.08984,2.87988,11.96973,8.18945,12.05957,13.40918,0,9.17969-8.09961,14.04004-17.45947,14.04004-7.64941,0-14.12939-3.06055-17.18896-9Z" style="fill:#74c04c;"/><path d="m20.20508,161.03409c-.0376-.71875.44824-1.38574,1.16699-1.42383,1.03271-.17383,1.89648,1.02148,3.33447.94629,1.15771-.06055,2.21729-1.2373,2.1709-2.11523-.09033-.95703-1.25244-1.73633-2.61621-2.5459-1.57178-.95996-2.78027-1.85645-2.85352-3.25391-.14258-2.7168,3.66064-5.03906,6.6958-5.19824,1.59326-.16309,3.10645.43945,3.16504,1.55664.07764,1.47852-1.20654,1.4248-2.48438,1.49219-1.12061.01855-2.18652.31445-3.19775.8877-1.00879.61328-1.01953,1.17578-.06738,1.7666,2.6123,1.70508,4.21387,2.46191,4.3584,5.2168.14209,2.71582-2.4165,5.09375-5.37207,5.24902-1.95703.10254-4.22461-1.14062-4.30029-2.57812Z" style="fill:#74c04c;"/><path d="m43.35156,161.74307c-.03125-1.36035.68652-3.7207,1.42041-7.28418.12891-.60645-.60303-.80859-.93701-.31055-.37207.54004-1.65869,2.72949-2.00391,3.02832-.9458,1.05078-2.23682.87891-2.78711-.4541-.40332-.81934-.72461-3.8877-1.64307-3.83984-.75879.04004-1.81055,4.4209-2.20459,6.84473-.20996,1.33301-.89746,1.96875-1.82666,1.81641-.68994-.16211-1.20654-.85547-1.1665-1.62012.0127-.52148.10986-.96582.20508-1.45215.72119-3.04102,2.35791-9.25488,3.2832-10.70508.7085-.99707,1.8623-1.1377,2.74902-.2627.79688.67871,1.35547,2.16992,2.07861,3.73438.40723.90039.84912.91699,1.4458.08496l1.53076-2.12305c2.12988-2.91406,3.21533-3.6123,4.4043-3.07324,1.14551.45996,1.32617,1.61133.81494,4.08105-1.0127,5.13965-2.32324,11.45605-2.56934,12.10938-.32373.69727-.94873,1.01074-1.67529.88867-.76904-.16016-1.07471-.62402-1.11865-1.46289Z" style="fill:#74c04c;"/><path d="m49.98877,158.43057c-.26611-5.07129,3.56592-12.20117,7.79932-12.42285,1.99707-.10449,2.62305,2.66602,2.73193,4.74219.30127,4.99121-2.65576,11.2334-6.76953,11.44824-2.1167.11133-3.64648-1.57031-3.76172-3.76758Zm7.65527-7.53027c-.0293-.55859-.18018-1.15039-.73975-1.12109-1.79688.09375-4.14893,5.66309-4.02734,7.98047.0459.87891.35303,1.38281.95215,1.35156,2.08496.05078,3.94873-5.6543,3.81494-8.21094Z" style="fill:#74c04c;"/><path d="m62.09229,157.79679c-.26611-5.07129,3.56592-12.20117,7.79932-12.42285,1.99707-.10547,2.62305,2.66602,2.73193,4.74219.30127,4.99023-2.65576,11.23242-6.76953,11.44824-2.1167.11133-3.64648-1.57031-3.76172-3.76758Zm7.65527-7.53027c-.0293-.55859-.18018-1.15137-.73975-1.12207-1.79688.09473-4.14893,5.66309-4.02734,7.98047.0459.87891.35303,1.38281.95215,1.35156,2.08496.05176,3.94873-5.65332,3.81494-8.20996Z" style="fill:#74c04c;"/><path d="m77.53223,159.71182c.16016-.76953,1.36963-4.4375,3.44531-10.6748.12256-.72656-.41357-1.01855-1.33203-.9707-1.39551.11328-2.35254.2041-2.99121.2373-1.75293.17188-2.71143.22266-2.94482-1.16699-.13232-.99512.75293-1.68164,2.35059-1.76562l7.229-.37891c6.82959-.35742,7.82373-.49023,8.48145-.16504.53564.29297.84473.83691.75635,1.44336-.11377.88672-.73779,1.19922-2.25537,1.2793-1.39795.07324-2.83594.14844-4.27539.18359-.96094.01074-1.57715.4834-1.88867,1.4209-.40576,1.42285-.89355,2.81055-1.38135,4.19727-1.31934,3.87402-2.27637,7.00781-2.5791,7.34473-.40576.66113-1.11426.89941-1.80566.69434-.61328-.24805-.97314-.98926-.80908-1.67871Z" style="fill:#74c04c;"/><path d="m91.32227,159.14835c.21484-2.01367,3.55322-13.20117,4.50391-14.93359.25635-.4541.68311-.71582,1.16016-.78125,1.19824-.0625,1.73438.99121,1.45703,1.80566-.13721.44824-1.47949,4.64258-1.75732,5.45801-.20166.73145.06055,1.1582.82227,1.15918l1.39746-.07324c1.99756-.10449,2.00782.0957,2.65577-2.06152.41406-1.2627.72314-2.24023,1.20117-3.82715.38037-1.1416,1.02344-1.85547,1.78223-1.89551.91895-.04785,1.84961.90332,1.42285,1.92676-1.19727,3.14746-2.06543,6.43652-2.93896,9.64648-.7002,2.67969-.80566,2.96484-.99414,3.17578-.41016.58105-1.03906.81543-1.56836.64258-1.09326-.22363-1.19629-1.41895-.81982-2.64062.48828-1.38672.17969-1.93164-.81885-1.87891-.48193-.01562-1.1582.06055-2.47607.12891-.63916.03418-1.06201.37598-1.19043.98438-.40332,1.46289-.81641,3.52637-1.18652,4.10645-.40723.62207-1.15576.8623-1.80811.65625-.61328-.24805-.92627-.87305-.84424-1.59863Z" style="fill:#74c04c;"/><path d="m106.3418,157.6005c-.05225-.99805,1.11523-3.94336,1.68945-5.97559,1.17773-3.50488,1.54443-5.6875,1.84863-6.74512.33887-1.17773.91553-1.65039,1.68457-1.48926,1.09326.22363,1.38086,1.12891.99951,3.03125-.84766,3.68848-2.01709,7.35449-3.22852,10.98242-.42529,1.0625-1.07031,1.7373-2.08984,1.39062-.53027-.17285-.83252-.59668-.90381-1.19434Z" style="fill:#74c04c;"/><path d="m113.01855,158.13175c-.05615-1.07812,1.41162-5.92188,2.20898-8.28516,1.27051-4.03125,1.71436-5.49707,2.10742-6.39746.39746-.82324,1.01562-1.25586,1.89453-1.30176,1.1582-.06055,6.10645-.40039,6.70752-.3916.68066.00488,1.27393.61426,1.31348,1.37207-.00635.64258-.4585,1.18652-1.12891,1.38184-.35547.09863-3.74414.39551-4.8623.4541-1.00049.01367-1.57861.44434-1.76807,1.41504-.09912.40527-.51562,1.62891-.61865,1.95508-.16602.64941.13867,1.11328.81982,1.11816,2.24854.12305,3.65088.12891,3.2998,1.8291-.08887.60547-.54932.99023-1.10596,1.05957-.99219.17285-3.80859-.08105-4.37891.50879-.26465.29492-.87305,2.4502-1.03027,3.25879-.26758,1.01562.89502,1.0332,1.854.9834l3.03467-.15918c1.23828-.06445,1.94482.41992,1.98877,1.25781.00586.88086-.68164,1.51758-1.7959,1.65625-2.19043.23535-6.47021.33887-7.20361.09766-.85742-.31543-1.29004-.93359-1.33643-1.8125Z" style="fill:#74c04c;"/><path d="m127.09668,155.43155c-.0376-.71875.44824-1.38574,1.16699-1.42285,1.03223-.17383,1.896,1.02148,3.33398.94629,1.1582-.06055,2.21777-1.2373,2.17139-2.11523-.09033-.95703-1.25244-1.73633-2.61621-2.5459-1.57178-.95996-2.78076-1.85742-2.854-3.25488-.14258-2.7168,3.66064-5.03906,6.69629-5.19824,1.59277-.16211,3.10645.43945,3.16504,1.55664.07764,1.47852-1.20654,1.42578-2.48486,1.49316-1.12061.01855-2.18652.31348-3.19775.8877-1.00879.61328-1.01953,1.17578-.06689,1.7666,2.6123,1.70508,4.21338,2.46191,4.35791,5.2168.14209,2.71582-2.41602,5.09375-5.37207,5.24805-1.95654.10254-4.22412-1.14062-4.2998-2.57812Z" style="fill:#74c04c;"/><path d="m76.03796,20.8776s-28.404-7.944-22.554,22.106c5.758,29.574,23.839,20.662,24.742,20.614,1.059-.055,20.078,7.089,22.55299-23.093,2.5-30.495-24.741-19.627-24.741-19.627" style="fill:#ccdeba;"/><path d="m122.12565,35.00921s-14.777-8.767-15.969,9.52901c-1.174,18.006,10.315,15.47899,10.83,15.584.603.123,10.225,7.05199,16.116-10.10201,5.952-17.332-10.97701-15.011-10.97701-15.011" style="fill:#ccdeba;"/><path d="m28.78875,37.9591s15.074-8.246,15.627,10.08c.545,18.036-10.85,15.111-11.367,15.197-.608.102-10.466,6.691-15.754-10.658-5.343-17.53,11.494-14.619,11.494-14.619" style="fill:#ccdeba;"/><path d="m64.36155,46.1063c2.075,3.39299,6.19301,5.41499,10.146,4.98199,3.952-.433,7.535-3.299,8.827-7.06m-16.18401-12.802c-1.255-1.7-3.175-3.024-5.286-3.088-1.37-.041-2.748.464-3.767,1.381-1.01801.918-1.66401,2.23601-1.766,3.603m20.81-2.245c1.133-1.783,2.95699-3.23801,5.058-3.44901,1.364-.13699,2.77399.271,3.854,1.11501,1.079.84399,1.817,2.114,2.014,3.47099m7.94,4.76801c-2.948,29.683-21.519,22.319-22.56,22.355-.889.03101-18.812,8.498-23.966-20.73-5.237-29.69701,22.545-21.382,22.545-21.382,0,0,26.96-10.23399,23.981,19.757Z" style="fill:none; stroke:#10725a; stroke-linecap:round; stroke-linejoin:round; stroke-width:1.375px;"/><path d="m84.18145,36.82061c1.37901-.11101,2.783.119,4.063.664m-29.443,3.592c1.124-.535,2.249-1.07001,3.373-1.604" style="fill:none; stroke:#10725a; stroke-linecap:round; stroke-linejoin:round; stroke-width:.722px;"/><path d="m72.75886,17.4219s-4.144-10.12-7.325-10.39999c-2.064.222-2.568,2.168-2.479,2.75099.09.58301,9.657,8.047,9.804,7.649" style="fill:#10725a;"/><path d="m73.84376,9.993c1.024-2.05501,2.37-3.94901,3.974-5.59401m-7.028,9.00301s1.872-10.548,9.532-13.041c0,0,1.72701,9.18401-9.532,13.041Z" style="fill:none; stroke:#10725a; stroke-linecap:round; stroke-linejoin:round; stroke-width:.722px;"/><path d="m115.20606,40.22291c-.76-.769-1.83-1.298-2.903-1.175-.69701.07899-1.358.437-1.806.976-.44801.539-.679,1.254-.63,1.95399m10.369-1.086c.873-.638,2.013-.98999,3.054-.698.675.189,1.26999.647,1.62799,1.25.356.604.47101,1.34601.311,2.02901m6.123,3.286c-4.23199,17.397-14.658,11.468-15.281,11.40199-.53-.056-11.894,3.479-12.51701-14.32399-.633-18.089,15.19-10.825,15.19-10.825,0,0,16.884-3.83,12.608,13.74699Z" style="fill:none; stroke:#10725a; stroke-linecap:round; stroke-linejoin:round; stroke-width:1.032px;"/><path d="m120.85886,29.92991c.71301-1.03801,1.58801-1.964,2.585-2.73401m-4.504,4.35201s1.821-5.58501,6.172-6.354c0,0,.237,5.119-6.172,6.354Z" style="fill:none; stroke:#10725a; stroke-linecap:round; stroke-linejoin:round; stroke-width:.43px;"/><path d="m115.92465,51.6767s3.637-.55499,5.35-1.618c0,0,.87601,6.327-5.35,1.618" style="fill:#10725a;"/><path d="m115.92465,51.6767s3.637-.55499,5.35-1.618c0,0,.87601,6.327-5.35,1.618Z" style="fill:none; stroke:#10725a; stroke-linecap:round; stroke-linejoin:round; stroke-width:.688px;"/><path d="m126.88805,46.89262c-.62799-.343-1.32599-.62701-2.05299-.832-.09801.14099.03499.32999.164.493.364.457.72699.914,1.09,1.371-.72701-.25301-1.422-.56601-2.05901-.92601m-16.397-2.495c.706-.12199,1.458-.16299,2.213-.123.04601.166-.141.302-.31699.414-.492.315-.984.629-1.47601.944.77-.004,1.529-.075,2.249-.209" style="fill:none; stroke:#10725a; stroke-linecap:round; stroke-linejoin:round; stroke-width:.43px;"/><path d="m118.59306,32.9672c.214-.72701.337-1.495.217-2.24699-.12-.75301-.506-1.49001-1.148-1.93001-.263-.179-.576-.30899-.893-.28999-.318.019-.634.213-.722.50999-.145.48801.416.97701.937.937.521-.03999.936-.442,1.192-.88199.584-1.00201.549-2.32401-.089-3.31201-.217-.33499-.508-.64-.881-.79799-.373-.15701-.837-.14101-1.146.10799-.287.23201-.397.65001-.26.99301s.51.584.885.573c.485-.01401.867-.397,1.128-.793.475-.72.733-1.627.477-2.45601-.256-.82899-1.13-1.50499-2.001-1.36499" style="fill:none; stroke:#10725a; stroke-linecap:round; stroke-linejoin:round; stroke-width:.516px;"/><path d="m30.59296,43.1769c.705-.819,1.735-1.422,2.815-1.37399.701.03099,1.385.34099,1.87.84799.484.506.764,1.203.764,1.905m-10.419-.36c-.915-.575-2.078-.84799-3.095-.48399-.661.23599-1.223.73399-1.537,1.36099-.314.62701-.376,1.37601-.169,2.04601m-5.879,3.705c5.436,17.059,15.423,10.41701,16.039,10.30901.525-.093,12.108,2.63999,11.487-15.16301-.63-18.089-15.908-9.739-15.908-9.739,0,0-17.11-2.64301-11.618,14.593Z" style="fill:none; stroke:#10725a; stroke-linecap:round; stroke-linejoin:round; stroke-width:1.032px;"/><path d="m24.23685,33.30421c-.783-.98601-1.721-1.84801-2.769-2.548m4.796,4.028s-2.206-5.444-6.6-5.908c0,0,.12,5.123,6.6,5.908Z" style="fill:none; stroke:#10725a; stroke-linecap:round; stroke-linejoin:round; stroke-width:.43px;"/><path d="m30.67585,54.6536s-3.667-.3-5.45-1.241c0,0-.432,6.373,5.45,1.241" style="fill:#10725a;"/><path d="m30.67585,54.6536s-3.667-.3-5.45-1.241c0,0-.432,6.373,5.45,1.241Z" style="fill:none; stroke:#10725a; stroke-linecap:round; stroke-linejoin:round; stroke-width:.688px;"/><path d="m19.40575,50.64661c.602-.38701,1.279-.718,1.99-.974.107.13399-.012.332-.13.504-.331.481-.661.96199-.992,1.444.708-.304,1.38-.664,1.99-1.06801m16.183-3.633c-.712-.07201-1.466-.061-2.216.032-.035.168.162.291.345.39101.513.27899,1.026.55899,1.538.838-.769.05-1.53.033-2.257-.05099" style="fill:none; stroke:#10725a; stroke-linecap:round; stroke-linejoin:round; stroke-width:.43px;"/><path d="m26.70866,36.1759c-.264-.711-.44-1.468-.373-2.22701.067-.758.401-1.521,1.011-2.00499.249-.19701.552-.34801.87-.351.318-.00301.647.168.756.45799.178.47701-.347,1.004-.869,1-.523-.00301-.965-.375-1.252-.79601-.652-.959-.709-2.28-.141-3.31.192-.34999.462-.675.823-.858s.824-.19899,1.15.028c.303.211.442.62001.329.972-.112.351-.468.61801-.843.63301-.485.01999-.892-.33601-1.18-.71201-.524-.686-.845-1.57201-.647-2.41701.197-.84399,1.022-1.57999,1.9-1.50099" style="fill:none; stroke:#10725a; stroke-linecap:round; stroke-linejoin:round; stroke-width:.516px;"/></g></svg>