<?xml version="1.0" encoding="UTF-8"?><svg id="Layer_2" xmlns="http://www.w3.org/2000/svg" viewBox="0 0 121.03076 64.89425"><g id="Layer_1-2"><path d="m62.69776,20.8776s-28.404-7.944-22.554,22.106c5.758,29.574,23.839,20.662,24.742,20.614,1.059-.055,20.078,7.089,22.55299-23.093,2.5-30.495-24.741-19.627-24.741-19.627" style="fill:#ccdeba;"/><path d="m108.78545,35.00921s-14.777-8.767-15.969,9.52901c-1.174,18.006,10.315,15.47899,10.83,15.584.603.123,10.225,7.05199,16.116-10.10201,5.952-17.332-10.97701-15.011-10.97701-15.011" style="fill:#ccdeba;"/><path d="m15.44856,37.9591s15.074-8.246,15.627,10.08c.545,18.036-10.85,15.111-11.367,15.197-.608.102-10.466,6.691-15.754-10.658-5.343-17.53,11.494-14.619,11.494-14.619" style="fill:#ccdeba;"/><path d="m51.02136,46.1063c2.075,3.39299,6.19301,5.41499,10.146,4.98199,3.952-.433,7.535-3.299,8.827-7.06m-16.18401-12.802c-1.255-1.7-3.175-3.024-5.286-3.088-1.37-.041-2.748.464-3.767,1.381-1.01801.918-1.66401,2.23601-1.766,3.603m20.81-2.245c1.133-1.783,2.95699-3.23801,5.058-3.44901,1.364-.13699,2.77399.271,3.854,1.11501,1.079.84399,1.817,2.114,2.014,3.47099m7.94,4.76801c-2.948,29.683-21.519,22.319-22.56,22.355-.889.03101-18.812,8.498-23.966-20.73-5.237-29.69701,22.545-21.382,22.545-21.382,0,0,26.96-10.23399,23.981,19.757Z" style="fill:none; stroke:#10725a; stroke-linecap:round; stroke-linejoin:round; stroke-width:1.375px;"/><path d="m70.84126,36.82061c1.37901-.11101,2.783.119,4.063.664m-29.443,3.592c1.124-.535,2.249-1.07001,3.373-1.604" style="fill:none; stroke:#10725a; stroke-linecap:round; stroke-linejoin:round; stroke-width:.722px;"/><path d="m59.41866,17.4219s-4.144-10.12-7.325-10.39999c-2.064.222-2.568,2.168-2.479,2.75099.09.58301,9.657,8.047,9.804,7.649" style="fill:#10725a;"/><path d="m60.50356,9.993c1.024-2.05501,2.37-3.94901,3.974-5.59401m-7.028,9.00301s1.872-10.548,9.532-13.041c0,0,1.72701,9.18401-9.532,13.041Z" style="fill:none; stroke:#10725a; stroke-linecap:round; stroke-linejoin:round; stroke-width:.722px;"/><path d="m101.86587,40.22291c-.76-.769-1.83-1.298-2.903-1.175-.69701.07899-1.358.437-1.806.976-.44801.539-.679,1.254-.63,1.95399m10.369-1.086c.873-.638,2.013-.98999,3.054-.698.675.189,1.26999.647,1.62799,1.25.356.604.47101,1.34601.311,2.02901m6.123,3.286c-4.23199,17.397-14.658,11.468-15.281,11.40199-.53-.056-11.894,3.479-12.51701-14.32399-.633-18.089,15.19-10.825,15.19-10.825,0,0,16.884-3.83,12.608,13.74699Z" style="fill:none; stroke:#10725a; stroke-linecap:round; stroke-linejoin:round; stroke-width:1.032px;"/><path d="m107.51866,29.92991c.71301-1.03801,1.58801-1.964,2.585-2.73401m-4.504,4.35201s1.821-5.58501,6.172-6.354c0,0,.237,5.119-6.172,6.354Z" style="fill:none; stroke:#10725a; stroke-linecap:round; stroke-linejoin:round; stroke-width:.43px;"/><path d="m102.58446,51.6767s3.637-.55499,5.35-1.618c0,0,.87601,6.327-5.35,1.618" style="fill:#10725a;"/><path d="m102.58446,51.6767s3.637-.55499,5.35-1.618c0,0,.87601,6.327-5.35,1.618Z" style="fill:none; stroke:#10725a; stroke-linecap:round; stroke-linejoin:round; stroke-width:.688px;"/><path d="m113.54786,46.89262c-.62799-.343-1.32599-.62701-2.05299-.832-.09801.14099.03499.32999.164.493.364.457.72699.914,1.09,1.371-.72701-.25301-1.422-.56601-2.05901-.92601m-16.397-2.495c.706-.12199,1.458-.16299,2.213-.123.04601.166-.141.302-.31699.414-.492.315-.984.629-1.47601.944.77-.004,1.529-.075,2.249-.209" style="fill:none; stroke:#10725a; stroke-linecap:round; stroke-linejoin:round; stroke-width:.43px;"/><path d="m105.25286,32.9672c.214-.72701.337-1.495.217-2.24699-.12-.75301-.506-1.49001-1.148-1.93001-.263-.179-.576-.30899-.893-.28999-.318.019-.634.213-.722.50999-.145.48801.416.97701.937.937.521-.03999.936-.442,1.192-.88199.584-1.00201.549-2.32401-.089-3.31201-.217-.33499-.508-.64-.881-.79799-.373-.15701-.837-.14101-1.146.10799-.287.23201-.397.65001-.26.99301s.51.584.885.573c.485-.01401.867-.397,1.128-.793.475-.72.733-1.627.477-2.45601-.256-.82899-1.13-1.50499-2.001-1.36499" style="fill:none; stroke:#10725a; stroke-linecap:round; stroke-linejoin:round; stroke-width:.516px;"/><path d="m17.25276,43.1769c.705-.819,1.735-1.422,2.815-1.37399.701.03099,1.385.34099,1.87.84799.484.506.764,1.203.764,1.905m-10.419-.36c-.915-.575-2.078-.84799-3.095-.48399-.661.23599-1.223.73399-1.537,1.36099-.314.62701-.376,1.37601-.169,2.04601m-5.879,3.705c5.436,17.059,15.423,10.41701,16.039,10.30901.525-.093,12.108,2.63999,11.487-15.16301-.63-18.089-15.908-9.739-15.908-9.739,0,0-17.11-2.64301-11.618,14.593Z" style="fill:none; stroke:#10725a; stroke-linecap:round; stroke-linejoin:round; stroke-width:1.032px;"/><path d="m10.89666,33.30421c-.783-.98601-1.721-1.84801-2.769-2.548m4.796,4.028s-2.206-5.444-6.6-5.908c0,0,.12,5.123,6.6,5.908Z" style="fill:none; stroke:#10725a; stroke-linecap:round; stroke-linejoin:round; stroke-width:.43px;"/><path d="m17.33566,54.6536s-3.667-.3-5.45-1.241c0,0-.432,6.373,5.45,1.241" style="fill:#10725a;"/><path d="m17.33566,54.6536s-3.667-.3-5.45-1.241c0,0-.432,6.373,5.45,1.241Z" style="fill:none; stroke:#10725a; stroke-linecap:round; stroke-linejoin:round; stroke-width:.688px;"/><path d="m6.06556,50.64661c.602-.38701,1.279-.718,1.99-.974.107.13399-.012.332-.13.504-.331.481-.661.96199-.992,1.444.708-.304,1.38-.664,1.99-1.06801m16.183-3.633c-.712-.07201-1.466-.061-2.216.032-.035.168.162.291.345.39101.513.27899,1.026.55899,1.538.838-.769.05-1.53.033-2.257-.05099" style="fill:none; stroke:#10725a; stroke-linecap:round; stroke-linejoin:round; stroke-width:.43px;"/><path d="m13.36846,36.1759c-.264-.711-.44-1.468-.373-2.22701.067-.758.401-1.521,1.011-2.00499.249-.19701.552-.34801.87-.351.318-.00301.647.168.756.45799.178.47701-.347,1.004-.869,1-.523-.00301-.965-.375-1.252-.79601-.652-.959-.709-2.28-.141-3.31.192-.34999.462-.675.823-.858s.824-.19899,1.15.028c.303.211.442.62001.329.972-.112.351-.468.61801-.843.63301-.485.01999-.892-.33601-1.18-.71201-.524-.686-.845-1.57201-.647-2.41701.197-.84399,1.022-1.57999,1.9-1.50099" style="fill:none; stroke:#10725a; stroke-linecap:round; stroke-linejoin:round; stroke-width:.516px;"/></g></svg>