<?xml version="1.0" encoding="UTF-8"?><svg id="Layer_2" xmlns="http://www.w3.org/2000/svg" viewBox="0 0 39.01807 39.01813"><g id="Layer_5"><path d="m39.01807,19.50903c0,10.7746-8.73438,19.50909-19.50879,19.50909S0,30.28363,0,19.50903,8.73486,0,19.50928,0s19.50879,8.7345,19.50879,19.50903Z" style="fill:#ff9d00;"/><path d="m19.76268,17.51433c.03973-3.15916,3.94777-4.66827,6.17534-4.71153,2.85431-.05542,3.27116,2.15181,4.98812,3.7927,1.14387,1.0932,3.26999-.60585,2.54948-1.9083-.70574-1.27577-4.0182-4.93032-7.48277-4.88616-2.2481.02865-5.76344,1.36677-6.65282,2.78007v-2.10609s2.51998-.76598,2.49666-3.21456c-.02771-2.90973-1.52415-4.34301-4.21219-4.32303-2.22794.01656-4.37846,1.4133-4.17755,4.22608.23502,3.29036,2.54255,3.53321,2.54255,3.53321,0,0,.4711,4.87965,0,5.87727,0,0-1.65208.36362-3.75494.49643-1.31631.08314-3.69952-3.71337-3.69952-3.71337-.9422-2.52177-4.18447-1.60728-3.21456.88678,0,0,2.21694,5.87493,5.54235,6.15203s5.6532-.05306,5.6532-.05306v3.10134s-3.68566-.55424-6.17972.44339c-2.14469.85788-2.02296,7.64844-2.02296,7.64844.19398,2.41092,3.92121,2.49406,3.92121,0,0,0,.1931-3.36241.76207-4.07363.66508-.83135,3.99049.00238,3.99049.00238,0,0,4.21751,4.68881,9.28344,4.62549,4.43388-.05542,6.88686-2.76629,7.92556-7.09421.66508-2.77118-2.93745-3.32541-3.38083-.44339s-2.21752,3.87498-4.43388,3.82422c-3.63024-.08314-6.61873-5.32066-6.61873-5.32066v-5.54182Z" style="fill:#fff;"/></g></svg>