<?xml version="1.0" encoding="UTF-8"?><svg id="Layer_2" xmlns="http://www.w3.org/2000/svg" xmlns:xlink="http://www.w3.org/1999/xlink" viewBox="0 0 152.89661 35.7884"><defs><clipPath id="clippath"><path d="m17.654,35.308c9.75,0,17.654-7.904,17.654-17.654S27.404,0,17.654,0,0,7.904,0,17.654s7.904,17.654,17.654,17.654" style="fill:none;"/></clipPath></defs><g id="Layer_1-2"><path d="m44.00012,22.27226v-10.78613c0-.52051.28564-.80566.80664-.80566h.99121c.52051,0,.80615.28516.80615.80566v.40332c.62158-.95703,1.62988-1.39453,2.77197-1.39453,2.41943,0,4.1499,1.96582,4.1499,4.50293,0,2.55371-1.73047,4.50195-4.1499,4.50195-1.14209,0-2.15039-.43652-2.77197-1.41113v4.18359c0,.52051-.28564.80566-.80615.80566h-.99121c-.521,0-.80664-.28516-.80664-.80566Zm6.92188-7.27441c0-1.32715-.79004-2.41895-2.15039-2.41895-1.32764,0-2.20117,1.04102-2.20117,2.41895,0,1.37695.87354,2.41895,2.20117,2.41895,1.36035,0,2.15039-1.0752,2.15039-2.41895Z" style="fill:#2b3937;"/><path d="m55.79358,18.50859V7.97538c0-.52051.28564-.80664.80615-.80664h.97461c.521,0,.82324.28613.82324.80664v10.5332c0,.52148-.30225.80664-.82324.80664h-.97461c-.52051,0-.80615-.28516-.80615-.80664Z" style="fill:#2b3937;"/><path d="m60.64905,14.99785c0-2.53711,1.72998-4.50293,4.14941-4.50293,1.14258,0,2.15039.4375,2.77197,1.41113v-.41992c0-.52051.28564-.80566.80615-.80566h.99121c.521,0,.80664.28516.80664.80566v7.02246c0,.52148-.28564.80664-.80664.80664h-.99121c-.52051,0-.80615-.28516-.80615-.80664v-.40332c-.62158.95801-1.62939,1.39453-2.77197,1.39453-2.41943,0-4.14941-1.94824-4.14941-4.50195Zm6.95508,0c0-1.37793-.87354-2.41895-2.20068-2.41895-1.36084,0-2.15039,1.0918-2.15039,2.41895,0,1.34375.78955,2.41895,2.15039,2.41895,1.32715,0,2.20068-1.04199,2.20068-2.41895Z" style="fill:#2b3937;"/><path d="m72.92932,18.50859v-7.02246c0-.52051.28564-.80566.80664-.80566h.99121c.52051,0,.80615.28516.80615.80566v.57129c.41992-.99121,1.34424-1.5625,2.62109-1.5625,2.31836,0,3.1582,1.81445,3.1582,3.84766v4.16602c0,.52148-.30225.80664-.82324.80664h-.97461c-.52051,0-.80615-.28516-.80615-.80664v-3.98145c0-1.20996-.47021-1.91504-1.36084-1.91504s-1.81445.68848-1.81445,2.30176v3.59473c0,.52148-.28564.80664-.80615.80664h-.99121c-.521,0-.80664-.28516-.80664-.80664Z" style="fill:#2b3937;"/><path d="m84.38684,16.44218v-3.83008h-.85645c-.26855,0-.43652-.15137-.43652-.41992v-1.0918c0-.26953.16797-.41992.43652-.41992h1.05762l.28613-1.74805c.06738-.35254.30273-.53711.65527-.53711h.82324c.38574,0,.58789.21875.58789.58789v1.69727h1.94824c.26953,0,.4209.15039.4209.41992v1.0918c0,.26855-.15137.41992-.4209.41992h-1.94824v3.91406c0,.63867.31934.89062.70605.89062.43652,0,.72266-.33594.72266-.79004,0-.08398,0-.18457-.01758-.30176-.0332-.30273.06738-.4541.35352-.4541h1.02441c.21777,0,.40332.08398.46973.33594.06836.25195.10156.52148.10156.65527,0,1.86523-1.32715,2.6377-2.88965,2.6377-1.46191,0-3.02441-.67188-3.02441-3.05762Z" style="fill:#2b3937;"/><path d="m92.11536,14.91386v-1.44531c0-.26855.16797-.41992.43555-.41992h5.1582c.26855,0,.41992.15137.41992.41992v1.44531c0,.26855-.15137.41992-.41992.41992h-5.1582c-.26758,0-.43555-.15137-.43555-.41992Z" style="fill:#2b3937;"/><path d="m103.42102,18.10527v.40332c0,.52148-.30176.80664-.82324.80664h-.97461c-.52051,0-.80664-.28516-.80664-.80664V7.97538c0-.52051.28613-.80664.80664-.80664h.97461c.52148,0,.82324.28613.82324.80664v3.93066c.62207-.97363,1.62988-1.41113,2.75488-1.41113,2.43652,0,4.16699,1.96582,4.16699,4.50293,0,2.55371-1.73047,4.50195-4.16699,4.50195-1.125,0-2.13281-.43652-2.75488-1.39453Zm4.31738-3.10742c0-1.32715-.80664-2.41895-2.15039-2.41895s-2.20117,1.04102-2.2168,2.41895c.01562,1.37695.87305,2.41895,2.2168,2.41895s2.15039-1.0752,2.15039-2.41895Z" style="fill:#2b3937;"/><path d="m112.05676,14.99785c0-2.53711,1.72949-4.50293,4.14844-4.50293,1.14258,0,2.15039.4375,2.77246,1.41113v-.41992c0-.52051.28613-.80566.80566-.80566h.99219c.52051,0,.80664.28516.80664.80566v7.02246c0,.52148-.28613.80664-.80664.80664h-.99219c-.51953,0-.80566-.28516-.80566-.80664v-.40332c-.62207.95801-1.62988,1.39453-2.77246,1.39453-2.41895,0-4.14844-1.94824-4.14844-4.50195Zm6.95508,0c0-1.37793-.87402-2.41895-2.20117-2.41895-1.36133,0-2.15039,1.0918-2.15039,2.41895,0,1.34375.78906,2.41895,2.15039,2.41895,1.32715,0,2.20117-1.04199,2.20117-2.41895Z" style="fill:#2b3937;"/><path d="m123.93372,17.76933c-.25195-.50391.0166-.87305.53711-1.00781l.52148-.11719c.45312-.11816.6543.10059,1.00781.45312.30273.33594.75586.50391,1.29297.50391.65625,0,1.10938-.30176,1.10938-.75586,0-.36914-.25195-.55469-.80664-.75586l-1.05859-.36914c-.89062-.28613-2.43555-.94141-2.43555-2.50391,0-1.6123,1.34375-2.72168,3.20898-2.72168,1.1084,0,2.11621.35352,2.75488,1.31055.33594.4873.08398.92383-.4707,1.05859l-.46973.11719c-.4375.11816-.67188-.0332-.97461-.31836-.23535-.23535-.53809-.31934-.83984-.31934-.53809,0-.87402.33594-.87402.73926,0,.36914.33594.55371.79004.70508l1.07422.40332c1.78125.58789,2.41992,1.5459,2.45312,2.60449,0,1.81348-1.61328,2.7041-3.47754,2.7041-1.52832,0-2.77246-.57129-3.34277-1.73047Z" style="fill:#2b3937;"/><path d="m132.41712,15.03105c0-2.43555,1.83105-4.53613,4.7373-4.53613,2.45312,0,4.46875,1.47852,4.58691,4.23438.0166.48633-.31934.70508-.82324.70508h-6.01465c-.0332,1.02441.99121,2.01562,2.6543,2.01562.62207,0,1.26074-.15039,1.91504-.52051.4541-.25195.82422-.21777,1.14258.16797l.18555.23535c.33594.40332.30176.85645-.15234,1.19238-.99023.72266-2.15039.97461-3.25879.97461-3.09082,0-4.97266-1.99902-4.97266-4.46875Zm6.8877-1.04102c-.23438-1.15918-1.22656-1.5293-2.11621-1.5293-.90723,0-1.93262.40332-2.21777,1.5293h4.33398Z" style="fill:#2b3937;"/><path d="m143.37122,14.99785c0-2.53711,1.72949-4.50293,4.16602-4.50293,1.125,0,2.13281.4375,2.75488,1.41113v-3.93066c0-.52051.30176-.80664.82324-.80664h.97461c.52051,0,.80664.28613.80664.80664v10.5332c0,.52148-.28613.80664-.80664.80664h-.97461c-.52148,0-.82324-.28516-.82324-.80664v-.40332c-.62207.95801-1.62988,1.39453-2.75488,1.39453-2.43652,0-4.16602-1.94824-4.16602-4.50195Zm6.9707,0c-.01562-1.37793-.88965-2.41895-2.2168-2.41895-1.34375,0-2.15039,1.0918-2.15039,2.41895,0,1.34375.80664,2.41895,2.15039,2.41895,1.32715,0,2.20117-1.04199,2.2168-2.41895Z" style="fill:#2b3937;"/><path d="m17.654,35.308c9.75,0,17.654-7.904,17.654-17.654S27.404,0,17.654,0,0,7.904,0,17.654s7.904,17.654,17.654,17.654" style="fill:#75c04b;"/><g style="clip-path:url(#clippath);"><path d="m21.1142,8.2784c-4.728,4.381-7.726,10.346-9.655,16.492-1.032,3.287-1.781,6.857-.743,10.141m2.859-6.291c3.229.628,6.701-.351,9.227-2.456,2.526-2.105,4.099-5.268,4.411-8.539.507-5.309-2.126-10.604-1.31-15.875l.008.003c-3.878,3.666-9.737,4.514-13.822,7.948-2.517,2.116-4.229,5.207-4.526,8.479-.297,3.273.869,6.681,3.223,8.977" style="fill:none; stroke:#fffbf7; stroke-linecap:round; stroke-linejoin:round; stroke-width:1.754px;"/></g><path d="m15.9187,13.3936c-.012-.061-.051-.115-.116-.163-.129-.233-.219-.472-.273-.716-.11-.393-.124-.767-.117-1.164" style="fill:none; stroke:#fffbf7; stroke-linecap:round; stroke-linejoin:round; stroke-width:1.754px;"/><path d="m11.609,18.7422c.057.259.088.529.166.783.038.125.443.782.65.715" style="fill:none; stroke:#fffbf7; stroke-linecap:round; stroke-linejoin:round; stroke-width:1.754px;"/><path d="m18.6559,17.291c.607-.054,1.194-.198,1.76-.434,1.033-.423,2.026-1.108,2.364-2.231" style="fill:none; stroke:#fffbf7; stroke-linecap:round; stroke-linejoin:round; stroke-width:1.754px;"/><path d="m15.5225,23.8301c.607-.021,1.298-.25,1.837-.519.462-.229.853-.544,1.245-.877" style="fill:none; stroke:#fffbf7; stroke-linecap:round; stroke-linejoin:round; stroke-width:1.754px;"/></g></svg>