<?xml version="1.0" encoding="UTF-8"?><svg id="Layer_2" xmlns="http://www.w3.org/2000/svg" xmlns:xlink="http://www.w3.org/1999/xlink" viewBox="0 0 35.308 35.7884"><defs><clipPath id="clippath"><path d="m17.654,35.308c9.75,0,17.654-7.904,17.654-17.654S27.404,0,17.654,0,0,7.904,0,17.654s7.904,17.654,17.654,17.654" style="fill:none;"/></clipPath></defs><g id="Layer_1-2"><path d="m17.654,35.308c9.75,0,17.654-7.904,17.654-17.654S27.404,0,17.654,0,0,7.904,0,17.654s7.904,17.654,17.654,17.654" style="fill:#75c04b;"/><g style="clip-path:url(#clippath);"><path d="m21.1142,8.2784c-4.728,4.381-7.726,10.346-9.655,16.492-1.032,3.287-1.781,6.857-.743,10.141m2.859-6.291c3.229.628,6.701-.351,9.227-2.456,2.526-2.105,4.099-5.268,4.411-8.539.507-5.309-2.126-10.604-1.31-15.875l.008.003c-3.878,3.666-9.737,4.514-13.822,7.948-2.517,2.116-4.229,5.207-4.526,8.479-.297,3.273.869,6.681,3.223,8.977" style="fill:none; stroke:#fffbf7; stroke-linecap:round; stroke-linejoin:round; stroke-width:1.754px;"/></g><path d="m15.9187,13.3936c-.012-.061-.051-.115-.116-.163-.129-.233-.219-.472-.273-.716-.11-.393-.124-.767-.117-1.164" style="fill:none; stroke:#fffbf7; stroke-linecap:round; stroke-linejoin:round; stroke-width:1.754px;"/><path d="m11.609,18.7422c.057.259.088.529.166.783.038.125.443.782.65.715" style="fill:none; stroke:#fffbf7; stroke-linecap:round; stroke-linejoin:round; stroke-width:1.754px;"/><path d="m18.6559,17.291c.607-.054,1.194-.198,1.76-.434,1.033-.423,2.026-1.108,2.364-2.231" style="fill:none; stroke:#fffbf7; stroke-linecap:round; stroke-linejoin:round; stroke-width:1.754px;"/><path d="m15.5225,23.8301c.607-.021,1.298-.25,1.837-.519.462-.229.853-.544,1.245-.877" style="fill:none; stroke:#fffbf7; stroke-linecap:round; stroke-linejoin:round; stroke-width:1.754px;"/></g></svg>