<?xml version="1.0" encoding="UTF-8"?><svg id="Layer_2" xmlns="http://www.w3.org/2000/svg" viewBox="0 0 564.61317 100.82233"><g id="Layer_1-2"><path d="m0,81.44629V23.21875c0-2.42969,1.34961-3.86914,3.77979-3.86914h3.95947c2.43018,0,3.87012,1.43945,3.87012,3.86914v2.9707c3.77979-5.58008,9.35938-7.83008,15.47949-7.83008,13.22949,0,22.229,10.5293,22.229,23.84863s-8.99951,23.84961-22.229,23.84961c-6.12012,0-11.69971-2.25-15.47949-7.83008v23.21875c0,2.43066-1.43994,3.78027-3.87012,3.78027h-3.95947c-2.43018,0-3.77979-1.34961-3.77979-3.78027Zm37.70801-39.23828c0-7.73926-4.67969-14.21875-12.86914-14.21875-8.00977,0-13.40967,6.0293-13.49951,14.21875.08984,8.19043,5.48975,14.21973,13.49951,14.21973,8.18945,0,12.86914-6.38965,12.86914-14.21973Z" style="fill:#75c04b;"/><path d="m58.40918,61.28711V3.78027c0-2.43066,1.3501-3.78027,3.77979-3.78027h4.0498c2.43018,0,3.77979,1.34961,3.77979,3.78027v57.50684c0,2.43066-1.34961,3.78027-3.77979,3.78027h-4.0498c-2.42969,0-3.77979-1.34961-3.77979-3.78027Z" style="fill:#75c04b;"/><path d="m79.10889,42.20801c0-13.31934,9.08936-23.84863,22.31885-23.84863,6.02979,0,11.60986,2.25,15.47949,7.83008v-2.9707c0-2.42969,1.3501-3.86914,3.77979-3.86914h3.95996c2.43018,0,3.86963,1.43945,3.86963,3.86914v38.06836c0,2.43066-1.43945,3.78027-3.86963,3.78027h-3.95996c-2.42969,0-3.77979-1.34961-3.77979-3.78027v-3.05957c-3.86963,5.58008-9.44971,7.83008-15.47949,7.83008-13.22949,0-22.31885-10.53027-22.31885-23.84961Zm37.97852,0c-.09033-8.18945-5.3999-14.21875-13.40967-14.21875-8.18945,0-12.95947,6.47949-12.95947,14.21875,0,7.83008,4.77002,14.21973,12.95947,14.21973,8.00977,0,13.31934-6.0293,13.40967-14.21973Z" style="fill:#75c04b;"/><path d="m140.39844,61.28711V23.21875c0-2.42969,1.34961-3.86914,3.77979-3.86914h3.95947c2.43018,0,3.87012,1.43945,3.87012,3.86914v4.23047c2.06982-5.75977,7.46973-9.08984,14.48926-9.08984,11.15967,0,17.09961,8.09961,17.09961,20.60938v22.31836c0,2.43066-1.43994,3.78027-3.87012,3.78027h-3.95996c-2.42969,0-3.77979-1.34961-3.77979-3.78027v-21.77832c0-7.83008-3.41992-11.42969-8.18945-11.42969-4.67969,0-11.78955,3.50977-11.78955,14.66895v18.53906c0,2.43066-1.43994,3.78027-3.87012,3.78027h-3.95947c-2.43018,0-3.77979-1.34961-3.77979-3.78027Z" style="fill:#75c04b;"/><path d="m197.09766,50.21777v-22.04883h-5.04004c-1.3501,0-2.06982-.71973-2.06982-2.07031v-4.67969c0-1.25977.71973-2.06934,2.06982-2.06934h5.58008l1.61963-9.80957c.27002-1.80078,1.43994-2.7002,3.1499-2.7002h3.1499c1.89014,0,2.96973,1.08008,2.96973,2.96973v9.54004h11.33984c1.34961,0,2.06982.80957,2.06982,2.06934v4.67969c0,1.35059-.72021,2.07031-2.06982,2.07031h-11.33984v22.49902c0,4.13965,2.06982,5.75977,4.5,5.75977,2.52002,0,4.58984-1.70996,4.58984-4.5,0-.4502,0-.99023-.08984-1.62012-.18018-1.43945.27002-2.25,1.70947-2.25h4.77002c1.16992,0,2.06982.4502,2.33984,1.62012.35986,1.53027.4502,3.06055.4502,3.41992,0,8.45996-5.93994,12.95996-14.48975,12.95996-7.55957,0-15.20898-3.60059-15.20898-15.83984Z" style="fill:#75c04b;"/><path d="m233.09619,40.76855v-6.2998c0-1.25977.72021-2.07031,2.07031-2.07031h27.08887c1.34961,0,2.06982.81055,2.06982,2.07031v6.2998c0,1.25977-.72021,2.06934-2.06982,2.06934h-27.08887c-1.3501,0-2.07031-.80957-2.07031-2.06934Z" style="fill:#75c04b;"/><path d="m287.36475,58.22754v3.05957c0,2.43066-1.3501,3.78027-3.78027,3.78027h-3.95947c-2.43018,0-3.87012-1.34961-3.87012-3.78027V3.78027c0-2.43066,1.43994-3.78027,3.87012-3.78027h3.95947c2.43018,0,3.78027,1.34961,3.78027,3.78027v22.40918c3.86963-5.58008,9.44922-7.83008,15.479-7.83008,13.22949,0,22.31934,10.5293,22.31934,23.84863s-9.08984,23.84961-22.31934,23.84961c-6.02979,0-11.60938-2.25-15.479-7.83008Zm26.18896-16.01953c0-7.73926-4.68018-14.21875-12.95996-14.21875-7.91943,0-13.31934,6.0293-13.40918,14.21875.08984,8.19043,5.48975,14.21973,13.40918,14.21973,8.27979,0,12.95996-6.38965,12.95996-14.21973Z" style="fill:#75c04b;"/><path d="m331.10498,42.20801c0-13.31934,9.08936-23.84863,22.31885-23.84863,6.02979,0,11.60986,2.25,15.47949,7.83008v-2.9707c0-2.42969,1.3501-3.86914,3.77979-3.86914h3.95996c2.43018,0,3.86963,1.43945,3.86963,3.86914v38.06836c0,2.43066-1.43945,3.78027-3.86963,3.78027h-3.95996c-2.42969,0-3.77979-1.34961-3.77979-3.78027v-3.05957c-3.86963,5.58008-9.44971,7.83008-15.47949,7.83008-13.22949,0-22.31885-10.53027-22.31885-23.84961Zm37.97852,0c-.09033-8.18945-5.3999-14.21875-13.40967-14.21875-8.18945,0-12.95947,6.47949-12.95947,14.21875,0,7.83008,4.77002,14.21973,12.95947,14.21973,8.00977,0,13.31934-6.0293,13.40967-14.21973Z" style="fill:#75c04b;"/><path d="m389.78418,57.05762c-1.16992-2.42969.09033-4.13965,2.52002-4.76953l2.33984-.54004c2.16016-.54004,3.24023.4502,4.77002,2.16016,1.62012,1.97949,4.40967,3.23926,7.55957,3.23926,3.95996,0,6.75-2.15918,6.75-5.04004,0-2.42969-1.89014-3.68945-4.85986-4.76953l-5.8501-2.06934c-5.84961-1.7998-12.14941-5.40039-12.14941-12.87012,0-8.09961,6.65967-14.03906,16.10938-14.03906,5.75977,0,11.06982,1.88965,14.21973,7.29004,1.52979,2.33984.26953,4.22949-2.25,4.85938l-2.06982.54004c-2.16016.54004-3.33008-.27051-4.77002-1.7998-1.3501-1.62012-3.1499-2.07031-4.94971-2.07031-3.50977,0-5.58008,2.16016-5.58008,4.77051,0,2.42969,2.16016,3.68945,4.68018,4.49902l6.11963,2.16016c9.08936,2.87988,11.96924,8.18945,12.05957,13.40918,0,9.17969-8.09961,14.04004-17.45947,14.04004-7.64941,0-14.12939-3.06055-17.18945-9Z" style="fill:#75c04b;"/><path d="m430.10449,42.38867c0-13.0498,9.98926-24.0293,24.83887-24.0293,12.23926,0,22.85889,7.37988,23.75879,21.95898.18018,2.33984-1.34961,3.59961-3.77979,3.59961h-33.56836c-.18018,6.92969,5.93945,12.59961,15.38916,12.59961,3.77979,0,7.55957-.99023,11.24951-3.33008,1.97998-1.16992,3.77979-.98926,5.31006.7207l.80957.98926c1.62012,1.7998,1.53027,4.0498-.71973,5.75977-5.21973,4.0498-11.42969,5.40039-17.18945,5.40039-16.19922,0-26.09863-10.62012-26.09863-23.66895Zm37.43848-5.75977c-1.80029-7.2002-7.56006-9-12.41992-9-5.03955,0-11.06934,2.07031-13.229,9h25.64893Z" style="fill:#75c04b;"/><path d="m484.2832,42.20801c0-13.31934,9-23.84863,22.229-23.84863,6.12012,0,11.69971,2.25,15.47949,7.83008V3.78027c0-2.43066,1.43994-3.78027,3.8701-3.78027h3.95949c2.43018,0,3.78027,1.34961,3.78027,3.78027v57.50684c0,2.43066-1.3501,3.78027-3.78027,3.78027h-3.95949c-2.43016,0-3.8701-1.34961-3.8701-3.78027v-3.05957c-3.77979,5.58008-9.35938,7.83008-15.47949,7.83008-13.229,0-22.229-10.53027-22.229-23.84961Zm37.97852,0c-.08984-8.18945-5.48975-14.21875-13.49951-14.21875-8.18945,0-12.86914,6.47949-12.86914,14.21875,0,7.83008,4.67969,14.21973,12.86914,14.21973,8.00977,0,13.40967-6.0293,13.49951-14.21973Z" style="fill:#75c04b;"/><path d="m446.65479,98.23828c-.03809-.71875.44824-1.38574,1.16699-1.42383,1.03223-.17285,1.89551,1.02246,3.33301.94727,1.1582-.06152,2.21777-1.23828,2.17188-2.11621-.08986-.95605-1.25195-1.73535-2.61621-2.5459-1.57227-.95898-2.78125-1.85645-2.85449-3.25391-.1416-2.7168,3.66113-5.03906,6.69629-5.19824,1.59375-.16309,3.10742.43945,3.16602,1.55664.07715,1.47852-1.20703,1.42578-2.48535,1.49219-1.12012.01855-2.18555.31445-3.19727.88867-1.00879.6123-1.01953,1.17578-.06738,1.76562,2.6123,1.70508,4.21387,2.46289,4.3584,5.21777.14258,2.71582-2.41602,5.09277-5.37207,5.24805-1.95703.10254-4.22461-1.14062-4.2998-2.57812Z" style="fill:#75c04b;"/><path d="m469.80127,98.94727c-.03125-1.36035.68553-3.7207,1.41992-7.2832.12891-.60742-.60254-.80859-.9375-.31152-.37207.54004-1.6582,2.72949-2.00391,3.0293-.94531,1.0498-2.23633.87793-2.78613-.4541-.40332-.82031-.72461-3.88867-1.64355-3.83984-.75879.03906-1.81055,4.41992-2.2041,6.84375-.21094,1.33301-.89746,1.96875-1.82715,1.81738-.68945-.16309-1.20704-.85645-1.16699-1.62012.01367-.52246.11035-.9668.20508-1.45215.72168-3.04199,2.3584-9.25586,3.28418-10.70605.70801-.99707,1.86133-1.1377,2.74902-.2627.7959.67871,1.35449,2.1709,2.07812,3.73438.40723.90039.84863.91699,1.44531.08496l1.53125-2.12305c2.12988-2.91406,3.21484-3.6123,4.4043-3.07324,1.14551.45996,1.32617,1.61133.81445,4.08203-1.0127,5.13867-2.32324,11.45508-2.56836,12.1084-.32422.69727-.94922,1.01172-1.67676.88867-.76855-.16016-1.07324-.62402-1.11719-1.46289Z" style="fill:#75c04b;"/><path d="m476.43799,95.63574c-.26562-5.07129,3.56543-12.20117,7.79881-12.42383,1.99708-.10449,2.62306,2.66602,2.73244,4.74219.30078,4.99121-2.65527,11.2334-6.76953,11.44922-2.11621.11035-3.64648-1.57031-3.76172-3.76758Zm7.65527-7.53027c-.0293-.55859-.18066-1.15137-.73926-1.12207-1.79785.09473-4.14941,5.66309-4.02734,7.98047.0459.87891.35254,1.38281.95215,1.35156,2.08496.05176,3.94824-5.65332,3.81445-8.20996Z" style="fill:#75c04b;"/><path d="m488.5415,95.00098c-.26562-5.07129,3.56543-12.20117,7.79883-12.42285,1.99707-.10449,2.62305,2.66602,2.73242,4.74219.30078,4.99121-2.65527,11.2334-6.76953,11.44824-2.11621.11133-3.64648-1.57031-3.76172-3.76758Zm7.65527-7.53027c-.0293-.55859-.18066-1.15039-.73926-1.12109-1.79785.09375-4.14941,5.66309-4.02734,7.98047.0459.87891.35254,1.38281.95215,1.35059,2.08496.05176,3.94824-5.65332,3.81445-8.20996Z" style="fill:#75c04b;"/><path d="m503.94189,96.91797c.15918-.76855,1.36914-4.43652,3.44531-10.67383.12207-.72754-.41406-1.01953-1.33301-.9707-1.39453.11328-2.35156.20312-2.99023.23633-1.75391.17285-2.71191.22266-2.94531-1.16602-.13281-.99512.75293-1.68164,2.35059-1.76562l7.22949-.37891c6.8291-.3584,7.82324-.49023,8.48145-.16504.53516.29297.84473.83691.75586,1.44238-.11328.8877-.7373,1.2002-2.25488,1.2793-1.39844.07324-2.83594.14941-4.27637.18457-.95996.00977-1.57715.48242-1.8877,1.4209-.40625,1.42188-.89355,2.80957-1.38184,4.19629-1.31934,3.875-2.27637,7.00879-2.5791,7.34473-.40625.66211-1.11426.89941-1.80566.69531-.61328-.24805-.97266-.99023-.80859-1.67969Z" style="fill:#75c04b;"/><path d="m517.73193,96.35547c.21484-2.01367,3.55273-13.20215,4.50391-14.93359.25586-.4541.68262-.7168,1.16016-.78223,1.19824-.0625,1.7334.99121,1.45605,1.80664-.13672.44727-1.47852,4.64258-1.75684,5.45801-.20117.73145.06055,1.1582.82227,1.1582l1.39746-.07324c1.99707-.10449,2.00781.0957,2.65527-2.06152.41406-1.26172.72363-2.24023,1.20117-3.82715.38086-1.14062,1.02441-1.85547,1.7832-1.89453.91895-.04883,1.84961.90234,1.42285,1.92676-1.19727,3.14746-2.06641,6.43555-2.93945,9.64551-.7002,2.67969-.80566,2.96582-.99512,3.17578-.40918.58203-1.03809.81543-1.56738.64258-1.09375-.22266-1.19629-1.41895-.81934-2.64062.4873-1.38672.17871-1.93164-.81935-1.87891-.48143-.01465-1.15819.06055-2.47655.12988-.63867.0332-1.06152.37598-1.18945.9834-.4043,1.46289-.81641,3.52734-1.18652,4.10645-.4082.62305-1.15625.86328-1.80859.65625-.61328-.24805-.92676-.87305-.84375-1.59766Z" style="fill:#75c04b;"/><path d="m532.75146,94.80762c-.05273-.99805,1.11523-3.94336,1.68848-5.97656,1.17871-3.50391,1.54395-5.68652,1.84961-6.74414.33887-1.17871.91504-1.65039,1.68457-1.49023,1.09277.22363,1.37988,1.12891.99902,3.03125-.84766,3.68945-2.0166,7.35547-3.22852,10.9834-.4248,1.06152-1.07031,1.7373-2.08984,1.39062-.53027-.17383-.83203-.59766-.90332-1.19434Z" style="fill:#75c04b;"/><path d="m539.42822,95.33887c-.05664-1.07812,1.41113-5.92188,2.20801-8.28613,1.27051-4.03125,1.71484-5.49707,2.10742-6.39746.39844-.82227,1.0166-1.25488,1.89551-1.30176,1.1582-.06055,6.10547-.39941,6.70703-.3916.68066.00488,1.27344.61426,1.31348,1.37305-.00684.6416-.45898,1.18652-1.12891,1.38086-.35547.09961-3.74414.39648-4.8623.45508-1.00098.0127-1.5791.44336-1.76855,1.41406-.09863.40625-.51465,1.62891-.61816,1.95605-.16602.64941.13867,1.11328.81934,1.11719,2.24902.12305,3.65137.12891,3.30078,1.83008-.08887.60449-.5498.99023-1.10645,1.05957-.99219.17188-3.80861-.08203-4.37891.50879-.26465.29492-.87305,2.44922-1.03027,3.25879-.26758,1.01465.89453,1.0332,1.85352.98242l3.03516-.1582c1.23828-.06543,1.94434.41992,1.98828,1.25781.00586.88086-.68066,1.5166-1.7959,1.65527-2.19043.23535-6.46973.33984-7.20312.09766-.85742-.31543-1.29004-.93262-1.33594-1.81152Z" style="fill:#75c04b;"/><path d="m553.54639,92.63672c-.03809-.71875.44727-1.38574,1.16602-1.42383,1.03223-.17383,1.89648,1.02246,3.33398.94629,1.1582-.06055,2.21777-1.2373,2.17188-2.11523-.08984-.95703-1.25195-1.73633-2.61621-2.5459-1.57227-.95996-2.78125-1.85645-2.85449-3.25391-.1416-2.7168,3.66113-5.03906,6.69629-5.19824,1.59375-.16309,3.10742.43945,3.16602,1.55664.07715,1.47852-1.20703,1.4248-2.48535,1.49219-1.12109.01855-2.18652.31445-3.19727.88867-1.00879.6123-1.01953,1.1748-.06738,1.76562,2.6123,1.70508,4.21387,2.46191,4.35742,5.2168.14258,2.71582-2.41504,5.09375-5.37109,5.24902-1.95703.10254-4.22461-1.14062-4.2998-2.57812Z" style="fill:#75c04b;"/></g></svg>