<?xml version="1.0" encoding="UTF-8"?><svg id="Layer_2" xmlns="http://www.w3.org/2000/svg" xmlns:xlink="http://www.w3.org/1999/xlink" viewBox="0 0 280.803 278.49999"><defs><clipPath id="clippath"><rect x="30.878" y="64.345" width="214.356" height="152.61099" style="fill:none;"/></clipPath><clipPath id="clippath-1"><rect x="30.878" y="64.345" width="214.356" height="152.61099" style="fill:none;"/></clipPath><clipPath id="clippath-2"><rect width="280.803" height="278.49999" style="fill:none;"/></clipPath><clipPath id="clippath-3"><rect x="30.878" y="64.345" width="214.356" height="152.61099" style="fill:none;"/></clipPath><clipPath id="clippath-4"><rect x="30.878" y="64.345" width="214.356" height="152.61099" style="fill:none;"/></clipPath></defs><g id="Layer_1-2"><g style="clip-path:url(#clippath);"><g style="clip-path:url(#clippath-1);"><g style="opacity:.39999;"><g style="clip-path:url(#clippath-2);"><path d="m208.878,200.38699c-34.67599,21.674-83.568,20.356-122,6-14.5-11.011-22.757-15.779-33.13699-31.036-10.77-15.83-11.22801-30.884-7.334-51.547,3.46799-18.398,11.69099-39.641,27.87799-52.17001,13.386-10.36099,33.013-6.625,47.019-4.74899,6.652.89101,12.70499,2.666,19.49599,2.836,11.313.283,22.539-5.701,33.75601-5.362,17.96899.545,36.892,11.44701,48.381,23.646,12.377,13.14201,19.592,33.035,21.94099,52.382,3.166,26.07-15.254,43.202-36,60" style="fill:#ccdeba;"/></g></g></g><path d="m90.81243,108.58621v-11.67285h2.72461v1.12402c.52246-.79199,1.33008-1.29883,2.48633-1.29883,2.36035,0,3.95996,1.86914,3.95996,4.30859,0,2.37598-1.53613,4.24414-3.94336,4.24414-1.07715,0-1.99609-.50684-2.50293-1.25098v4.5459h-2.72461Zm4.56152-9.69336c-1.07617,0-1.90039.76074-1.90039,2.05859,0,1.33105.77637,2.20215,1.93262,2.20215s1.83691-.9502,1.83691-2.12207c0-1.18848-.71289-2.13867-1.86914-2.13867Z" style="fill:#10725a;"/><path d="m101.36223,105.11746v-11.45117h2.72461v11.45117h-2.72461Z" style="fill:#10725a;"/><path d="m114.63469,96.91336v8.2041h-2.72363v-1.125c-.52344.80859-1.33105,1.29883-2.4873,1.29883-2.35938,0-3.95898-1.86816-3.95898-4.29199,0-2.37598,1.53613-4.26074,3.94336-4.26074,1.07715,0,1.99609.50684,2.50293,1.26758v-1.09277h2.72363Zm-4.56152,6.24023c1.07715,0,1.90039-.77637,1.90039-2.0752,0-1.31445-.77539-2.18555-1.93164-2.18555s-1.83789.9502-1.83789,2.10645c0,1.2041.71289,2.1543,1.86914,2.1543Z" style="fill:#10725a;"/><path d="m116.47258,96.91336h2.72461v1.07715c.58594-.87109,1.39355-1.25195,2.43945-1.25195,2.3916,0,2.89844,1.99609,2.89844,3.78613v4.59277h-2.72461v-4.43457c0-.79199-.30078-1.75879-1.29883-1.75879-.98145,0-1.31445.82422-1.31445,1.75879v4.43457h-2.72461v-8.2041Z" style="fill:#10725a;"/><path d="m129.74602,105.29129c-1.44141,0-2.97754-.55371-2.97754-2.94531v-3.37402h-1.1875v-2.05859h1.42578l.36426-2.01172h2.10645v2.01172h2.15332v2.05859h-2.15332v3.5166c0,.36426.1582.63281.52246.63281.41211,0,.55469-.36426.55469-.71191,0-.28516-.08008-.60254-.12695-.71289h1.94824c.1582.28516.22168.66504.2373.98145,0,1.64746-1.14062,2.61328-2.86719,2.61328Z" style="fill:#10725a;"/><path d="m133.61126,99.06668h5.95605v2.28125h-5.95605v-2.28125Z" style="fill:#10725a;"/><path d="m146.58391,105.29129c-1.14062,0-1.94824-.49023-2.4707-1.29883v1.125h-2.72461v-11.45117h2.72461v4.33984c.50684-.76074,1.41016-1.26758,2.50293-1.26758,2.40723,0,3.92773,1.88477,3.92773,4.26074,0,2.42383-1.58398,4.29199-3.95996,4.29199Zm-.60156-6.39844c-1.15625,0-1.93262.87109-1.93262,2.18555,0,1.29883.80762,2.0752,1.88477,2.0752,1.15625,0,1.86914-.9502,1.86914-2.1543,0-1.15625-.66504-2.10645-1.82129-2.10645Z" style="fill:#10725a;"/><path d="m160.63372,96.91336v8.2041h-2.72363v-1.125c-.52344.80859-1.33105,1.29883-2.4873,1.29883-2.35938,0-3.95898-1.86816-3.95898-4.29199,0-2.37598,1.53613-4.26074,3.94336-4.26074,1.07715,0,1.99609.50684,2.50293,1.26758v-1.09277h2.72363Zm-4.56152,6.24023c1.07715,0,1.90039-.77637,1.90039-2.0752,0-1.31445-.77539-2.18555-1.93164-2.18555s-1.83789.9502-1.83789,2.10645c0,1.2041.71289,2.1543,1.86914,2.1543Z" style="fill:#10725a;"/><path d="m163.86516,102.18777c.20605.87109.91895,1.12402,1.56836,1.12402.49121,0,.9502-.1582.9502-.53809,0-.22168-.14258-.34863-.58594-.53906l-1.3623-.57031c-1.29883-.47461-2.18555-1.28223-2.18555-2.43848,0-1.50488,1.50488-2.4873,3.3418-2.4873,1.14062,0,2.40723.38086,3.12012,1.86914l-2.04297.77637c-.20605-.60156-.77637-.72852-1.1084-.72852-.44434,0-.77637.22168-.77637.55371,0,.28516.26953.44434.68066.58691l1.09277.44336c1.90137.69629,2.37598,1.66309,2.37598,2.53418,0,1.64648-1.66309,2.51758-3.53223,2.51758-1.52051,0-3.07227-.56934-3.51562-2.3125l1.97949-.79102Z" style="fill:#10725a;"/><path d="m169.80559,101.04715c0-2.34473,1.75781-4.30859,4.57715-4.30859,2.48633,0,4.37109,1.53613,4.37109,4.43555,0,.11035,0,.2373-.01562.34766h-6.31934c.03125.74512.88672,1.58398,2.43945,1.58398.79199,0,1.53613-.28516,2.24902-.88672.22168.22168,1.12402,1.34668,1.3457,1.55176-1.09277,1.15625-2.50195,1.52051-3.83301,1.52051-3.04102,0-4.81445-1.90039-4.81445-4.24414Zm2.64453-.98242h3.73828c-.09473-.93457-1.01367-1.29883-1.82129-1.29883-.77637,0-1.75781.34863-1.91699,1.29883Z" style="fill:#10725a;"/><path d="m188.76555,93.66629v11.45117h-2.72461v-1.125c-.52246.80859-1.33008,1.29883-2.48633,1.29883-2.36035,0-3.95996-1.86816-3.95996-4.29199,0-2.37598,1.53613-4.26074,3.94434-4.26074,1.07617,0,1.99512.50684,2.50195,1.26758v-4.33984h2.72461Zm-4.56152,9.4873c1.07715,0,1.90039-.77637,1.90039-2.0752,0-1.31445-.77637-2.18555-1.93262-2.18555s-1.83691.9502-1.83691,2.10645c0,1.2041.71289,2.1543,1.86914,2.1543Z" style="fill:#10725a;"/><path d="m192.1552,96.73856c.91895,0,1.64746.63379,1.64746,1.47363,0,.83887-.72852,1.45703-1.64746,1.45703-.93457,0-1.61523-.61816-1.61523-1.45703,0-.83984.68066-1.47363,1.61523-1.47363Zm0,5.62305c.91895,0,1.64746.63379,1.64746,1.48926,0,.82324-.72852,1.44043-1.64746,1.44043-.93457,0-1.61523-.61719-1.61523-1.44043,0-.85547.68066-1.48926,1.61523-1.48926Z" style="fill:#10725a;"/><path d="m96.40422,120.77469v1.23926h-5.41699v-8.50195h1.55469v7.2627h3.8623Z" style="fill:#10725a;"/><path d="m100.1679,115.73465c1.79785,0,3.34082,1.44531,3.34082,3.20605,0,1.77344-1.54297,3.20703-3.34082,3.20703-1.77246,0-3.32715-1.4209-3.32715-3.20703,0-1.77344,1.55469-3.20605,3.32715-3.20605Zm0,5.1377c1.04492,0,1.83398-.85059,1.83398-1.93164,0-1.06836-.78906-1.93066-1.83398-1.93066-1.03223,0-1.82129.84961-1.82129,1.93066s.78906,1.93164,1.82129,1.93164Z" style="fill:#10725a;"/><path d="m107.68547,115.73465c1.79785,0,3.33984,1.44531,3.33984,3.20605,0,1.77344-1.54199,3.20703-3.33984,3.20703-1.77344,0-3.32812-1.4209-3.32812-3.20703,0-1.77344,1.55469-3.20605,3.32812-3.20605Zm0,5.1377c1.04492,0,1.83398-.85059,1.83398-1.93164,0-1.06836-.78906-1.93066-1.83398-1.93066-1.03223,0-1.82227.84961-1.82227,1.93066s.79004,1.93164,1.82227,1.93164Z" style="fill:#10725a;"/><path d="m115.71282,115.86844h1.65137v.18164l-2.1377,2.63574.92383,1.43359c.31543.46094.50977.67969.95898.67969.13379,0,.48633-.03613.72852-.21875l.53516,1.0332c-.51074.49707-1.16602.53418-1.46973.53418-.93555,0-1.45801-.51074-1.88281-1.11719l-1.23926-1.99219v2.97559h-1.49414v-8.78125h1.49414v5.17383l1.93164-2.53809Z" style="fill:#10725a;"/><path d="m124.09172,115.86844h1.49414v1.1416h-1.49414v5.00391h-1.51855v-5.00391h-.91113v-1.1416h.91113v-.41309c0-1.88281,1.10547-2.34473,2.1377-2.34473,1.32422,0,1.89453.80176,1.89453,1.68848,0,.03613-.01172.21875-.06055.33984h-1.20215c.02441-.06055.03613-.14551.03613-.20605,0-.38867-.24219-.58301-.60742-.58301-.37598,0-.67969.29102-.67969.87402v.64453Z" style="fill:#10725a;"/><path d="m129.47161,115.73465c1.79785,0,3.33984,1.44531,3.33984,3.20605,0,1.77344-1.54199,3.20703-3.33984,3.20703-1.77344,0-3.32812-1.4209-3.32812-3.20703,0-1.77344,1.55469-3.20605,3.32812-3.20605Zm0,5.1377c1.04492,0,1.83398-.85059,1.83398-1.93164,0-1.06836-.78906-1.93066-1.83398-1.93066-1.03223,0-1.82227.84961-1.82227,1.93066s.79004,1.93164,1.82227,1.93164Z" style="fill:#10725a;"/><path d="m135.55461,117.22879c.20703-1.04492,1.02051-1.49414,1.67676-1.49414.20605,0,.32715.03613.50977.08496v1.46973c-.23047-.08496-.50977-.12207-.7041-.12207-.54688,0-1.45801.30371-1.45801,2.00488v2.8418h-1.49414v-6.14551h1.46973v1.36035Z" style="fill:#10725a;"/><path d="m143.41204,115.86844h1.83398v1.1416h-1.83398v3.21875c0,.37598.1582.66797.59473.66797.36426,0,.60742-.25488.60742-.63184,0-.13379-.02441-.37695-.08496-.50977h1.22656c.10938.23047.13379.58301.13379.69238,0,.89844-.61914,1.7002-1.94336,1.7002-1.02051,0-2.02832-.4375-2.02832-2.12598v-3.01172h-.95996v-1.1416h1.0332l.2666-1.63965h1.1543v1.63965Z" style="fill:#10725a;"/><path d="m146.87297,113.2327h1.49414v3.66797c.38867-.80176,1.10449-1.16602,1.97949-1.16602,1.53027,0,2.2832,1.10547,2.2832,2.87793v3.40137h-1.49414v-3.38867c0-1.06934-.46094-1.62793-1.20215-1.62793-.72852,0-1.56641.54688-1.56641,1.94336v3.07324h-1.49414v-8.78125Z" style="fill:#10725a;"/><path d="m160.13469,120.96902c-.82617.92383-1.83398,1.17871-2.78125,1.17871-2.21094,0-3.53418-1.43359-3.53418-3.18262,0-1.79785,1.4209-3.23047,3.36426-3.23047,1.66406,0,3.23047,1.04395,3.23047,3.41309h-5.10156c0,.97168.79004,1.73633,2.11328,1.73633.76562,0,1.33691-.2793,1.8584-.75293l.85059.83789Zm-4.74902-2.83008h3.49805c-.23047-.94727-1.06934-1.21387-1.7002-1.21387-.65625,0-1.48242.2666-1.79785,1.21387Z" style="fill:#10725a;"/><path d="m164.67571,124.7952v-8.92676h1.49414v.92285c.43652-.66797,1.20215-1.05664,2.10059-1.05664,1.82227,0,3.0127,1.43262,3.0127,3.23047,0,1.7373-1.1416,3.18262-3.02441,3.18262-.82617,0-1.59082-.33984-2.08887-1.04492v3.69238h-1.49414Zm3.29102-7.80957c-1.01953,0-1.83398.69238-1.83398,1.90723,0,1.18945.76562,2.00391,1.87109,2.00391,1.12891,0,1.77344-.88672,1.77344-1.94336,0-1.09375-.69238-1.96777-1.81055-1.96777Z" style="fill:#10725a;"/><path d="m172.6054,122.01395v-8.78125h1.49414v8.78125h-1.49414Z" style="fill:#10725a;"/><path d="m182.0302,115.86844v6.14551h-1.49414v-.92285c-.4375.66797-1.20215,1.05664-2.10156,1.05664-1.82129,0-3.01172-1.43359-3.01172-3.23145,0-1.73633,1.1416-3.18164,3.02441-3.18164.82617,0,1.59082.33984,2.08887,1.04395v-.91016h1.49414Zm-3.29199,5.02832c1.02051,0,1.83398-.69238,1.83398-1.90723,0-1.19043-.76465-2.00391-1.87012-2.00391-1.12988,0-1.77344.88672-1.77344,1.94336,0,1.09277.69238,1.96777,1.80957,1.96777Z" style="fill:#10725a;"/><path d="m183.72942,115.86844h1.49414v1.03223c.38867-.80176,1.11719-1.16602,1.99121-1.16602,1.53125,0,2.27148,1.10547,2.27148,2.87793v3.40137h-1.49414v-3.38867c0-1.06934-.44922-1.62793-1.18945-1.62793-.875,0-1.5791.65625-1.5791,1.94336v3.07324h-1.49414v-6.14551Z" style="fill:#10725a;"/><path d="m192.88567,115.86844h1.83398v1.1416h-1.83398v3.21875c0,.37598.1582.66797.5957.66797.36426,0,.60742-.25488.60742-.63184,0-.13379-.02441-.37695-.08496-.50977h1.22656c.10938.23047.13379.58301.13379.69238,0,.89844-.62012,1.7002-1.94336,1.7002-1.02051,0-2.02832-.4375-2.02832-2.12598v-3.01172h-.95996v-1.1416h1.03223l.26758-1.63965h1.15332v1.63965Z" style="fill:#10725a;"/><path d="m196.26165,117.61746h4.26367v1.27539h-4.26367v-1.27539Z" style="fill:#10725a;"/><path d="m94.32708,139.04031c-.89844,0-1.66406-.38867-2.10059-1.05664v.92285h-1.49414v-8.78125h1.49414v3.5459c.49805-.7041,1.2627-1.04395,2.08887-1.04395,1.88281,0,3.02441,1.44531,3.02441,3.18164,0,1.79785-1.19043,3.23145-3.0127,3.23145Zm-.2666-5.16211c-1.10547,0-1.8584.81348-1.8584,2.00391,0,1.21484.80176,1.90723,1.82129,1.90723,1.11816,0,1.81055-.875,1.81055-1.96777,0-1.05664-.64453-1.94336-1.77344-1.94336Z" style="fill:#10725a;"/><path d="m104.84465,132.76102v6.14551h-1.49414v-.92285c-.4375.66797-1.20215,1.05664-2.10156,1.05664-1.82129,0-3.01172-1.43359-3.01172-3.23145,0-1.73633,1.1416-3.18164,3.02441-3.18164.82617,0,1.59082.33984,2.08887,1.04395v-.91016h1.49414Zm-3.29199,5.02832c1.02051,0,1.83398-.69238,1.83398-1.90723,0-1.19043-.76465-2.00391-1.87012-2.00391-1.12988,0-1.77344.88672-1.77344,1.94336,0,1.09277.69238,1.96777,1.80957,1.96777Z" style="fill:#10725a;"/><path d="m107.18743,136.95145c.1582.60645.75293.88574,1.31152.88574.4375,0,.92383-.15723.92383-.64355,0-.31543-.29199-.49805-.66895-.65527l-.89844-.34082c-1.22656-.46094-1.54199-1.15332-1.54199-1.71191,0-1.1416.97168-1.8584,2.24609-1.8584.77734,0,1.74902.2666,2.15039,1.37207l-1.20215.4375c-.1582-.49805-.60742-.63184-.93555-.63184-.38867,0-.80176.21875-.80176.64355,0,.34082.30371.51074.64355.63184l.91113.32812c1.31152.4375,1.56641,1.22656,1.56641,1.76074,0,1.21484-1.12891,1.87109-2.4043,1.87109-.99609,0-2.12598-.41309-2.47754-1.5918l1.17773-.49707Z" style="fill:#10725a;"/><path d="m118.04485,137.8616c-.82617.92383-1.83398,1.17871-2.78125,1.17871-2.21094,0-3.53418-1.43359-3.53418-3.18262,0-1.79785,1.4209-3.23047,3.36426-3.23047,1.66406,0,3.23047,1.04395,3.23047,3.41309h-5.10156c0,.97168.79004,1.73633,2.11328,1.73633.76562,0,1.33691-.2793,1.8584-.75293l.85059.83789Zm-4.74902-2.83008h3.49805c-.23047-.94727-1.06934-1.21387-1.7002-1.21387-.65625,0-1.48242.2666-1.79785,1.21387Z" style="fill:#10725a;"/><path d="m125.70696,130.12527v8.78125h-1.49316v-.92285c-.4502.66797-1.21484,1.05664-2.11426,1.05664-1.80957,0-3-1.43359-3-3.23145,0-1.73633,1.12988-3.18164,3.0127-3.18164.82617,0,1.59082.33984,2.10156,1.04395v-3.5459h1.49316Zm-3.29102,7.66406c1.02051,0,1.82129-.69238,1.82129-1.90723,0-1.19043-.75293-2.00391-1.87012-2.00391-1.12988,0-1.76074.88672-1.76074,1.94336,0,1.09277.69238,1.96777,1.80957,1.96777Z" style="fill:#10725a;"/><path d="m131.26848,129.99149c.55859,0,.99609.41309.99609.94727s-.4375.93555-.99609.93555-.97168-.40137-.97168-.93555.41309-.94727.97168-.94727Zm-.75293,8.91504v-6.14551h1.49414v6.14551h-1.49414Z" style="fill:#10725a;"/><path d="m136.77043,132.62723c.59473,0,1.4209.13379,2.36816.82617l-.69238,1.06836c-.63184-.52246-1.37207-.55859-1.60352-.55859-1.19043,0-2.02832.76465-2.02832,1.87012,0,1.09375.83789,1.87109,2.02832,1.87109.23145,0,.97168-.04883,1.60352-.55859l.69238,1.05664c-.94727.7041-1.77344.83789-2.36816.83789-2.1377,0-3.46191-1.38477-3.46191-3.16992,0-1.82227,1.28711-3.24316,3.46191-3.24316Z" style="fill:#10725a;"/><path d="m143.06047,132.62723c1.79785,0,3.33984,1.44531,3.33984,3.20605,0,1.77344-1.54199,3.20703-3.33984,3.20703-1.77344,0-3.32812-1.4209-3.32812-3.20703,0-1.77344,1.55469-3.20605,3.32812-3.20605Zm0,5.1377c1.04492,0,1.83398-.85059,1.83398-1.93164,0-1.06836-.78906-1.93066-1.83398-1.93066-1.03223,0-1.82227.84961-1.82227,1.93066s.79004,1.93164,1.82227,1.93164Z" style="fill:#10725a;"/><path d="m147.67473,132.76102h1.49414v1.03223c.38867-.80176,1.11719-1.16602,1.99121-1.16602,1.53125,0,2.27148,1.10547,2.27148,2.87793v3.40137h-1.49414v-3.38867c0-1.06934-.44922-1.62793-1.18945-1.62793-.875,0-1.5791.65625-1.5791,1.94336v3.07324h-1.49414v-6.14551Z" style="fill:#10725a;"/><path d="m160.06145,132.76102h1.49414v1.1416h-1.49414v5.00391h-1.51758v-5.00391h-.91113v-1.1416h.91113v-.41309c0-1.88281,1.10547-2.34473,2.1377-2.34473,1.32324,0,1.89453.80176,1.89453,1.68848,0,.03613-.01172.21875-.06055.33984h-1.20312c.02441-.06055.03711-.14551.03711-.20605,0-.38867-.24316-.58301-.60742-.58301-.37695,0-.68066.29102-.68066.87402v.64453Z" style="fill:#10725a;"/><path d="m165.44133,132.62723c1.79785,0,3.33984,1.44531,3.33984,3.20605,0,1.77344-1.54199,3.20703-3.33984,3.20703-1.77344,0-3.32812-1.4209-3.32812-3.20703,0-1.77344,1.55469-3.20605,3.32812-3.20605Zm0,5.1377c1.04492,0,1.83398-.85059,1.83398-1.93164,0-1.06836-.78906-1.93066-1.83398-1.93066-1.03223,0-1.82227.84961-1.82227,1.93066s.79004,1.93164,1.82227,1.93164Z" style="fill:#10725a;"/><path d="m171.52532,134.12137c.20605-1.04492,1.02051-1.49414,1.67578-1.49414.20703,0,.32812.03613.51074.08496v1.46973c-.23145-.08496-.51074-.12207-.70508-.12207-.54688,0-1.45703.30371-1.45703,2.00488v2.8418h-1.49414v-6.14551h1.46973v1.36035Z" style="fill:#10725a;"/><path d="m178.28899,139.78055c.48535.42578,1.2627.74121,2.00391.74121,1.05664,0,1.95605-.48535,1.95605-1.80957v-.7168c-.42578.64355-1.23926,1.04492-2.10156,1.04492-1.82227,0-3.0127-1.43359-3.0127-3.23145,0-1.73633,1.14258-3.18164,3.02441-3.18164.82617,0,1.5918.33984,2.08984,1.04395v-.91016h1.49316v5.47754c0,2.53809-1.32324,3.58301-3.2666,3.58301-1.33594,0-2.1748-.37695-2.78125-.875.20605-.38867.40039-.77734.59473-1.16602Zm2.16211-1.99121c1.02051,0,1.83398-.69238,1.83398-1.90723,0-1.19043-.76562-2.00391-1.87012-2.00391-1.12988,0-1.77344.88672-1.77344,1.94336,0,1.09277.69238,1.96777,1.80957,1.96777Z" style="fill:#10725a;"/><path d="m186.89934,134.12137c.20605-1.04492,1.02051-1.49414,1.67578-1.49414.20703,0,.32812.03613.51074.08496v1.46973c-.23145-.08496-.51074-.12207-.70508-.12207-.54688,0-1.45703.30371-1.45703,2.00488v2.8418h-1.49414v-6.14551h1.46973v1.36035Z" style="fill:#10725a;"/><path d="m195.87395,137.8616c-.82617.92383-1.83398,1.17871-2.78125,1.17871-2.21094,0-3.53418-1.43359-3.53418-3.18262,0-1.79785,1.4209-3.23047,3.36426-3.23047,1.66406,0,3.23047,1.04395,3.23047,3.41309h-5.10156c0,.97168.79004,1.73633,2.11328,1.73633.76562,0,1.33691-.2793,1.8584-.75293l.85059.83789Zm-4.74902-2.83008h3.49805c-.23047-.94727-1.06934-1.21387-1.7002-1.21387-.65625,0-1.48242.2666-1.79785,1.21387Z" style="fill:#10725a;"/><path d="m203.53704,132.76102v6.14551h-1.49414v-.92285c-.4375.66797-1.20215,1.05664-2.10156,1.05664-1.82129,0-3.01172-1.43359-3.01172-3.23145,0-1.73633,1.1416-3.18164,3.02441-3.18164.82617,0,1.59082.33984,2.08887,1.04395v-.91016h1.49414Zm-3.29199,5.02832c1.02051,0,1.83398-.69238,1.83398-1.90723,0-1.19043-.76465-2.00391-1.87012-2.00391-1.12988,0-1.77344.88672-1.77344,1.94336,0,1.09277.69238,1.96777,1.80957,1.96777Z" style="fill:#10725a;"/><path d="m207.08196,132.76102h1.83398v1.1416h-1.83398v3.21875c0,.37598.1582.66797.5957.66797.36426,0,.60742-.25488.60742-.63184,0-.13379-.02441-.37695-.08496-.50977h1.22656c.10938.23047.13379.58301.13379.69238,0,.89844-.62012,1.7002-1.94336,1.7002-1.02051,0-2.02832-.4375-2.02832-2.12598v-3.01172h-.95996v-1.1416h1.03223l.26758-1.63965h1.15332v1.63965Z" style="fill:#10725a;"/><path d="m92.59075,149.65262h1.83398v1.1416h-1.83398v3.21875c0,.37598.1582.66797.59473.66797.36426,0,.60742-.25488.60742-.63184,0-.13379-.02441-.37695-.08496-.50977h1.22656c.10938.23047.13379.58301.13379.69238,0,.89844-.61914,1.7002-1.94336,1.7002-1.02051,0-2.02832-.4375-2.02832-2.12598v-3.01172h-.95996v-1.1416h1.0332l.2666-1.63965h1.1543v1.63965Z" style="fill:#10725a;"/><path d="m102.25774,149.65262v6.14551h-1.49414v-.92285c-.4375.66797-1.20215,1.05664-2.10156,1.05664-1.82129,0-3.01172-1.43359-3.01172-3.23145,0-1.73633,1.1416-3.18164,3.02441-3.18164.82617,0,1.59082.33984,2.08887,1.04395v-.91016h1.49414Zm-3.29199,5.02832c1.02051,0,1.83398-.69238,1.83398-1.90723,0-1.19043-.76465-2.00391-1.87012-2.00391-1.12988,0-1.77344.88672-1.77344,1.94336,0,1.09277.69238,1.96777,1.80957,1.96777Z" style="fill:#10725a;"/><path d="m104.60051,153.84305c.1582.60645.75293.88672,1.31152.88672.4375,0,.92383-.1582.92383-.64453,0-.31543-.29199-.49805-.66895-.65527l-.89844-.34082c-1.22656-.46094-1.54199-1.15332-1.54199-1.71191,0-1.1416.97168-1.8584,2.24609-1.8584.77734,0,1.74902.2666,2.15039,1.37207l-1.20215.4375c-.1582-.49805-.60742-.63184-.93555-.63184-.38867,0-.80176.21875-.80176.64355,0,.34082.30371.51074.64355.63184l.91113.32812c1.31152.4375,1.56641,1.22656,1.56641,1.76074,0,1.21484-1.12891,1.87109-2.4043,1.87109-.99609,0-2.12598-.41309-2.47754-1.59082l1.17773-.49805Z" style="fill:#10725a;"/><path d="m111.41301,149.65262h1.83398v1.1416h-1.83398v3.21875c0,.37598.1582.66797.5957.66797.36426,0,.60742-.25488.60742-.63184,0-.13379-.02441-.37695-.08496-.50977h1.22656c.10938.23047.13379.58301.13379.69238,0,.89844-.62012,1.7002-1.94336,1.7002-1.02051,0-2.02832-.4375-2.02832-2.12598v-3.01172h-.95996v-1.1416h1.03223l.26758-1.63965h1.15332v1.63965Z" style="fill:#10725a;"/><path d="m115.65129,146.88309c.55859,0,.99609.41309.99609.94727s-.4375.93555-.99609.93555-.97168-.40137-.97168-.93555.41309-.94727.97168-.94727Zm-.75293,8.91504v-6.14551h1.49414v6.14551h-1.49414Z" style="fill:#10725a;"/><path d="m118.11614,149.65262h1.49414v1.03223c.38867-.80176,1.11719-1.16602,1.99219-1.16602,1.53027,0,2.27148,1.10547,2.27148,2.87891v3.40039h-1.49414v-3.38867c0-1.06934-.44922-1.62793-1.19043-1.62793-.87402,0-1.5791.65625-1.5791,1.94336v3.07324h-1.49414v-6.14551Z" style="fill:#10725a;"/><path d="m126.24114,156.67313c.48535.4248,1.2627.74023,2.00391.74023,1.05664,0,1.95605-.48535,1.95605-1.80957v-.7168c-.42578.64355-1.23926,1.04492-2.10156,1.04492-1.82227,0-3.0127-1.43359-3.0127-3.23145,0-1.73633,1.14258-3.18164,3.02441-3.18164.82617,0,1.5918.33984,2.08984,1.04395v-.91016h1.49316v5.47754c0,2.53809-1.32324,3.58301-3.2666,3.58301-1.33594,0-2.1748-.37695-2.78125-.87402.20605-.38867.40039-.77734.59473-1.16602Zm2.16211-1.99219c1.02051,0,1.83398-.69238,1.83398-1.90723,0-1.19043-.76562-2.00391-1.87012-2.00391-1.12988,0-1.77344.88672-1.77344,1.94336,0,1.09277.69238,1.96777,1.80957,1.96777Z" style="fill:#10725a;"/><path d="m137.11028,153.84305c.15723.60645.75293.88672,1.31152.88672.4375,0,.92285-.1582.92285-.64453,0-.31543-.29102-.49805-.66797-.65527l-.89844-.34082c-1.22754-.46094-1.54297-1.15332-1.54297-1.71191,0-1.1416.97168-1.8584,2.24707-1.8584.77734,0,1.74902.2666,2.14941,1.37207l-1.20215.4375c-.1582-.49805-.60742-.63184-.93555-.63184-.38867,0-.80078.21875-.80078.64355,0,.34082.30273.51074.64355.63184l.91113.32812c1.31152.4375,1.56641,1.22656,1.56641,1.76074,0,1.21484-1.12988,1.87109-2.40527,1.87109-.99609,0-2.125-.41309-2.47754-1.59082l1.17871-.49805Z" style="fill:#10725a;"/><path d="m147.74895,155.79813h-1.49414v-1.03223c-.38867.80176-1.10547,1.16602-1.97949,1.16602-1.53125,0-2.28418-1.10547-2.28418-2.87891v-3.40039h1.49414v3.38867c0,.99609.38867,1.5791,1.19043,1.5791.69238,0,1.5791-.57129,1.5791-2.30859v-2.65918h1.49414v6.14551Z" style="fill:#10725a;"/><path d="m153.0302,155.93192c-.89844,0-1.66406-.38867-2.10059-1.05664v.92285h-1.49414v-8.78125h1.49414v3.5459c.49805-.7041,1.2627-1.04395,2.08887-1.04395,1.88281,0,3.02441,1.44531,3.02441,3.18164,0,1.79785-1.19043,3.23145-3.0127,3.23145Zm-.2666-5.16211c-1.10547,0-1.8584.81348-1.8584,2.00391,0,1.21484.80176,1.90723,1.82129,1.90723,1.11816,0,1.81055-.875,1.81055-1.96777,0-1.05664-.64453-1.94336-1.77344-1.94336Z" style="fill:#10725a;"/><path d="m157.98528,153.84305c.15723.60645.75293.88672,1.31152.88672.4375,0,.92285-.1582.92285-.64453,0-.31543-.29102-.49805-.66797-.65527l-.89844-.34082c-1.22754-.46094-1.54297-1.15332-1.54297-1.71191,0-1.1416.97168-1.8584,2.24707-1.8584.77734,0,1.74902.2666,2.14941,1.37207l-1.20215.4375c-.1582-.49805-.60742-.63184-.93555-.63184-.38867,0-.80078.21875-.80078.64355,0,.34082.30273.51074.64355.63184l.91113.32812c1.31152.4375,1.56641,1.22656,1.56641,1.76074,0,1.21484-1.12988,1.87109-2.40527,1.87109-.99609,0-2.125-.41309-2.47754-1.59082l1.17871-.49805Z" style="fill:#10725a;"/><path d="m164.79778,149.65262h1.83398v1.1416h-1.83398v3.21875c0,.37598.1582.66797.59473.66797.36426,0,.60742-.25488.60742-.63184,0-.13379-.02441-.37695-.08496-.50977h1.22656c.10938.23047.13379.58301.13379.69238,0,.89844-.61914,1.7002-1.94336,1.7002-1.02051,0-2.02832-.4375-2.02832-2.12598v-3.01172h-.95996v-1.1416h1.0332l.2666-1.63965h1.1543v1.63965Z" style="fill:#10725a;"/><path d="m169.03606,146.88309c.55859,0,.99609.41309.99609.94727s-.4375.93555-.99609.93555-.97168-.40137-.97168-.93555.41309-.94727.97168-.94727Zm-.75293,8.91504v-6.14551h1.49414v6.14551h-1.49414Z" style="fill:#10725a;"/><path d="m173.34661,149.65262h1.83398v1.1416h-1.83398v3.21875c0,.37598.1582.66797.5957.66797.36426,0,.60742-.25488.60742-.63184,0-.13379-.02441-.37695-.08496-.50977h1.22656c.10938.23047.13379.58301.13379.69238,0,.89844-.62012,1.7002-1.94336,1.7002-1.02051,0-2.02832-.4375-2.02832-2.12598v-3.01172h-.95996v-1.1416h1.03223l.26758-1.63965h1.15332v1.63965Z" style="fill:#10725a;"/><path d="m182.4804,155.79813h-1.49414v-1.03223c-.38867.80176-1.10547,1.16602-1.97949,1.16602-1.53125,0-2.28418-1.10547-2.28418-2.87891v-3.40039h1.49414v3.38867c0,.99609.38867,1.5791,1.19043,1.5791.69238,0,1.5791-.57129,1.5791-2.30859v-2.65918h1.49414v6.14551Z" style="fill:#10725a;"/><path d="m186.02532,149.65262h1.83398v1.1416h-1.83398v3.21875c0,.37598.1582.66797.59473.66797.36426,0,.60742-.25488.60742-.63184,0-.13379-.02441-.37695-.08496-.50977h1.22656c.10938.23047.13379.58301.13379.69238,0,.89844-.61914,1.7002-1.94336,1.7002-1.02051,0-2.02832-.4375-2.02832-2.12598v-3.01172h-.95996v-1.1416h1.0332l.2666-1.63965h1.1543v1.63965Z" style="fill:#10725a;"/><path d="m190.2636,146.88309c.55859,0,.99609.41309.99609.94727s-.4375.93555-.99609.93555-.97168-.40137-.97168-.93555.41309-.94727.97168-.94727Zm-.75293,8.91504v-6.14551h1.49414v6.14551h-1.49414Z" style="fill:#10725a;"/><path d="m195.63079,149.51883c1.79785,0,3.34082,1.44531,3.34082,3.20605,0,1.77344-1.54297,3.20703-3.34082,3.20703-1.77246,0-3.32715-1.4209-3.32715-3.20703,0-1.77344,1.55469-3.20605,3.32715-3.20605Zm0,5.1377c1.04492,0,1.83398-.85059,1.83398-1.93164,0-1.06836-.78906-1.93066-1.83398-1.93066-1.03223,0-1.82129.84961-1.82129,1.93066s.78906,1.93164,1.82129,1.93164Z" style="fill:#10725a;"/><path d="m200.24504,149.65262h1.49414v1.03223c.38867-.80176,1.11719-1.16602,1.99219-1.16602,1.53027,0,2.27148,1.10547,2.27148,2.87891v3.40039h-1.49414v-3.38867c0-1.06934-.44922-1.62793-1.19043-1.62793-.87402,0-1.5791.65625-1.5791,1.94336v3.07324h-1.49414v-6.14551Z" style="fill:#10725a;"/><path d="m208.26067,153.84305c.15723.60645.75293.88672,1.31152.88672.4375,0,.92285-.1582.92285-.64453,0-.31543-.29102-.49805-.66797-.65527l-.89844-.34082c-1.22754-.46094-1.54297-1.15332-1.54297-1.71191,0-1.1416.97168-1.8584,2.24707-1.8584.77734,0,1.74902.2666,2.14941,1.37207l-1.20215.4375c-.1582-.49805-.60742-.63184-.93555-.63184-.38867,0-.80078.21875-.80078.64355,0,.34082.30273.51074.64355.63184l.91113.32812c1.31152.4375,1.56641,1.22656,1.56641,1.76074,0,1.21484-1.12988,1.87109-2.40527,1.87109-.99609,0-2.125-.41309-2.47754-1.59082l1.17871-.49805Z" style="fill:#10725a;"/><path d="m92.59075,166.5452h1.83398v1.1416h-1.83398v3.21875c0,.37598.1582.66797.59473.66797.36426,0,.60742-.25488.60742-.63184,0-.13379-.02441-.37695-.08496-.50977h1.22656c.10938.23047.13379.58301.13379.69238,0,.89844-.61914,1.7002-1.94336,1.7002-1.02051,0-2.02832-.4375-2.02832-2.12598v-3.01172h-.95996v-1.1416h1.0332l.2666-1.63965h1.1543v1.63965Z" style="fill:#10725a;"/><path d="m96.05071,163.90945h1.49414v3.66797c.38867-.80176,1.10547-1.16602,1.97949-1.16602,1.53125,0,2.28418,1.10547,2.28418,2.87891v3.40039h-1.49414v-3.38867c0-1.06934-.46191-1.62793-1.20215-1.62793-.72949,0-1.56738.54688-1.56738,1.94336v3.07324h-1.49414v-8.78125Z" style="fill:#10725a;"/><path d="m109.62883,166.5452v6.14551h-1.49316v-.92285c-.4375.66797-1.20312,1.05664-2.10156,1.05664-1.82227,0-3.0127-1.43359-3.0127-3.23145,0-1.73633,1.14258-3.18164,3.02441-3.18164.82617,0,1.5918.33984,2.08984,1.04395v-.91016h1.49316Zm-3.29102,5.02832c1.02051,0,1.83398-.69238,1.83398-1.90723,0-1.19043-.76562-2.00391-1.87012-2.00391-1.12988,0-1.77344.88672-1.77344,1.94336,0,1.09277.69238,1.96777,1.80957,1.96777Z" style="fill:#10725a;"/><path d="m113.17473,166.5452h1.83398v1.1416h-1.83398v3.21875c0,.37598.1582.66797.59473.66797.36426,0,.60742-.25488.60742-.63184,0-.13379-.02441-.37695-.08496-.50977h1.22656c.10938.23047.13379.58301.13379.69238,0,.89844-.61914,1.7002-1.94336,1.7002-1.02051,0-2.02832-.4375-2.02832-2.12598v-3.01172h-.95996v-1.1416h1.0332l.2666-1.63965h1.1543v1.63965Z" style="fill:#10725a;"/><path d="m120.13274,166.5452v-.37695c0-2.00391,1.43262-2.38086,2.64746-2.38086.91113,0,2.0166.40137,2.38086,1.48242,0,0-1.43359.38867-1.43359.40039-.15723-.44922-.61914-.64355-.94727-.64355-.50977,0-1.12988.19434-1.12988,1.1416v.37695h4.48242v6.14551h-1.49414v-5.00391h-2.98828v5.00391h-1.51758v-5.00391h-.91113v-1.1416h.91113Z" style="fill:#10725a;"/><path d="m129.70208,166.5452h1.83398v1.1416h-1.83398v3.21875c0,.37598.1582.66797.5957.66797.36426,0,.60742-.25488.60742-.63184,0-.13379-.02441-.37695-.08496-.50977h1.22656c.10938.23047.13379.58301.13379.69238,0,.89844-.62012,1.7002-1.94336,1.7002-1.02051,0-2.02832-.4375-2.02832-2.12598v-3.01172h-.95996v-1.1416h1.03223l.26758-1.63965h1.15332v1.63965Z" style="fill:#10725a;"/><path d="m140.18254,166.5452h1.67676l-3.81445,8.92676h-1.46973l1.25098-3.14551-2.61133-5.78125h1.68848l1.67676,4.21387,1.60254-4.21387Z" style="fill:#10725a;"/><path d="m145.5136,166.41141c1.79785,0,3.33984,1.44531,3.33984,3.20605,0,1.77344-1.54199,3.20703-3.33984,3.20703-1.77344,0-3.32812-1.4209-3.32812-3.20703,0-1.77344,1.55469-3.20605,3.32812-3.20605Zm0,5.1377c1.04492,0,1.83398-.85059,1.83398-1.93164,0-1.06836-.78906-1.93066-1.83398-1.93066-1.03223,0-1.82227.84961-1.82227,1.93066s.79004,1.93164,1.82227,1.93164Z" style="fill:#10725a;"/><path d="m155.79973,172.6907h-1.49414v-1.03223c-.38867.80176-1.10449,1.16602-1.97949,1.16602-1.53027,0-2.2832-1.10547-2.2832-2.87891v-3.40039h1.49414v3.38867c0,.99609.38867,1.5791,1.18945,1.5791.69238,0,1.5791-.57129,1.5791-2.30859v-2.65918h1.49414v6.14551Z" style="fill:#10725a;"/><path d="m158.96868,167.90555c.20703-1.04492,1.02051-1.49414,1.67676-1.49414.20605,0,.32715.03613.50977.08496v1.46973c-.23047-.08496-.50977-.12207-.7041-.12207-.54688,0-1.45801.30371-1.45801,2.00488v2.8418h-1.49414v-6.14551h1.46973v1.36035Z" style="fill:#10725a;"/><path d="m164.48137,167.6868v-1.1416h.91113v-.37695c0-2.00391,1.45801-2.38086,2.98828-2.38086.91113,0,1.93066.23145,2.80566.80176v8.10156h-1.49414v-7.36035c-.49805-.26758-1.15332-.30371-1.40918-.30371-.66797,0-1.37207.14551-1.37207,1.09277v.42578h1.49414v1.1416h-1.49414v5.00391h-1.51855v-5.00391h-.91113Z" style="fill:#10725a;"/><path d="m179.11614,166.5452v6.14551h-1.49414v-.92285c-.4375.66797-1.20215,1.05664-2.10156,1.05664-1.82129,0-3.01172-1.43359-3.01172-3.23145,0-1.73633,1.1416-3.18164,3.02441-3.18164.82617,0,1.59082.33984,2.08887,1.04395v-.91016h1.49414Zm-3.29199,5.02832c1.02051,0,1.83398-.69238,1.83398-1.90723,0-1.19043-.76465-2.00391-1.87012-2.00391-1.12988,0-1.77344.88672-1.77344,1.94336,0,1.09277.69238,1.96777,1.80957,1.96777Z" style="fill:#10725a;"/><path d="m184.21575,172.6907h-1.56641l-2.47754-6.14551h1.61523l1.63965,4.48145,1.65137-4.48145h1.61621l-2.47852,6.14551Z" style="fill:#10725a;"/><path d="m190.38469,166.41141c1.79785,0,3.34082,1.44531,3.34082,3.20605,0,1.77344-1.54297,3.20703-3.34082,3.20703-1.77246,0-3.32715-1.4209-3.32715-3.20703,0-1.77344,1.55469-3.20605,3.32715-3.20605Zm0,5.1377c1.04492,0,1.83398-.85059,1.83398-1.93164,0-1.06836-.78906-1.93066-1.83398-1.93066-1.03223,0-1.82129.84961-1.82129,1.93066s.78906,1.93164,1.82129,1.93164Z" style="fill:#10725a;"/><path d="m196.46868,167.90555c.20703-1.04492,1.02051-1.49414,1.67676-1.49414.20605,0,.32715.03613.50977.08496v1.46973c-.23047-.08496-.50977-.12207-.7041-.12207-.54688,0-1.45801.30371-1.45801,2.00488v2.8418h-1.49414v-6.14551h1.46973v1.36035Z" style="fill:#10725a;"/><path d="m90.76848,189.58328v-8.78125h1.49414v8.78125h-1.49414Z" style="fill:#10725a;"/><path d="m94.7636,180.66824c.55859,0,.99609.41309.99609.94727s-.4375.93555-.99609.93555-.97168-.40137-.97168-.93555.41309-.94727.97168-.94727Zm-.75293,8.91504v-6.14551h1.49414v6.14551h-1.49414Z" style="fill:#10725a;"/><path d="m99.16008,183.43777h1.49414v1.1416h-1.49414v5.00391h-1.51758v-5.00391h-.91113v-1.1416h.91113v-.41309c0-1.88281,1.10547-2.34473,2.1377-2.34473,1.32324,0,1.89453.80176,1.89453,1.68848,0,.03613-.01172.21875-.06055.33984h-1.20312c.02441-.06055.03711-.14551.03711-.20605,0-.38867-.24316-.58301-.60742-.58301-.37695,0-.68066.29102-.68066.87402v.64453Z" style="fill:#10725a;"/><path d="m107.52825,188.53836c-.82617.92383-1.83398,1.17871-2.78125,1.17871-2.21094,0-3.53418-1.43359-3.53418-3.18262,0-1.79785,1.4209-3.23047,3.36426-3.23047,1.66406,0,3.23047,1.04395,3.23047,3.41309h-5.10156c0,.97168.79004,1.73633,2.11328,1.73633.76562,0,1.33691-.2793,1.8584-.75293l.85059.83789Zm-4.74902-2.83008h3.49805c-.23047-.94727-1.06934-1.21387-1.7002-1.21387-.65625,0-1.48242.2666-1.79785,1.21387Z" style="fill:#10725a;"/><path d="m109.62786,187.6282c.1582.60645.75293.88672,1.31152.88672.4375,0,.92383-.1582.92383-.64453,0-.31543-.29199-.49805-.66895-.65527l-.89844-.34082c-1.22656-.46094-1.54199-1.15332-1.54199-1.71191,0-1.1416.97168-1.8584,2.24609-1.8584.77734,0,1.74902.2666,2.15039,1.37207l-1.20215.4375c-.1582-.49805-.60742-.63184-.93555-.63184-.38867,0-.80176.21875-.80176.64355,0,.34082.30371.51074.64355.63184l.91113.32812c1.31152.4375,1.56641,1.22656,1.56641,1.76074,0,1.21484-1.12891,1.87109-2.4043,1.87109-.99609,0-2.12598-.41309-2.47754-1.59082l1.17773-.49805Z" style="fill:#10725a;"/><path d="m116.44133,183.43777h1.83398v1.1416h-1.83398v3.21875c0,.37598.1582.66797.59473.66797.36426,0,.60742-.25488.60742-.63184,0-.13379-.02441-.37695-.08496-.50977h1.22656c.10938.23047.13379.58301.13379.69238,0,.89844-.61914,1.7002-1.94336,1.7002-1.02051,0-2.02832-.4375-2.02832-2.12598v-3.01172h-.95996v-1.1416h1.0332l.2666-1.63965h1.1543v1.63965Z" style="fill:#10725a;"/><path d="m123.98235,183.43777h1.67676l-3.81445,8.92676h-1.46973l1.25098-3.14551-2.61133-5.78125h1.68848l1.67676,4.21387,1.60254-4.21387Z" style="fill:#10725a;"/><path d="m126.69036,189.58328v-8.78125h1.49414v8.78125h-1.49414Z" style="fill:#10725a;"/><path d="m135.79876,188.53836c-.82617.92383-1.83398,1.17871-2.78125,1.17871-2.21094,0-3.53418-1.43359-3.53418-3.18262,0-1.79785,1.4209-3.23047,3.36426-3.23047,1.66406,0,3.23047,1.04395,3.23047,3.41309h-5.10156c0,.97168.79004,1.73633,2.11328,1.73633.76562,0,1.33691-.2793,1.8584-.75293l.85059.83789Zm-4.74902-2.83008h3.49805c-.23047-.94727-1.06934-1.21387-1.7002-1.21387-.65625,0-1.48242.2666-1.79785,1.21387Z" style="fill:#10725a;"/><path d="m138.03215,187.77371c.57129,0,1.02051.4248,1.02051.9834,0,.54688-.44922.95996-1.02051.95996-.58301,0-1.01953-.41309-1.01953-.95996,0-.55859.43652-.9834,1.01953-.9834Z" style="fill:#10725a;"/><g style="clip-path:url(#clippath-3);"><path d="m54.1419,127.00559c12.848,0,23.264-10.416,23.264-23.264s-10.416-23.26399-23.264-23.26399-23.264,10.41599-23.264,23.26399,10.416,23.264,23.264,23.264" style="fill:#75c04b;"/><path d="m58.7019,91.3868c-6.231,5.77299-10.182,13.634-12.724,21.733-1.359,4.331-2.346,9.035-.978,13.364m3.767-8.291c4.255.828,8.83-.463,12.159-3.236,3.329-2.774,5.402-6.943,5.813-11.253.668-6.996-2.802-13.974-1.727-20.91901l.011.00301c-5.11,4.832-12.831,5.948-18.214,10.474-3.316,2.789-5.573,6.862-5.964,11.174-.392,4.312,1.145,8.804,4.246,11.83" style="fill:none; stroke:#fffbf7; stroke-linecap:round; stroke-linejoin:round; stroke-width:2.312px;"/><path d="m51.8551,98.12689c-.016-.08-.067-.151-.154-.215-.169-.30601-.288-.621-.358-.943-.145-.519-.164-1.012-.154-1.534" style="fill:none; stroke:#fffbf7; stroke-linecap:round; stroke-linejoin:round; stroke-width:2.312px;"/><path d="m46.1756,105.17379c.075.341.116.697.219,1.032.05.166.584,1.03101.856.943" style="fill:none; stroke:#fffbf7; stroke-linecap:round; stroke-linejoin:round; stroke-width:2.312px;"/></g><g style="clip-path:url(#clippath-4);"><path d="m51.333,111.87979c.8-.028,1.71-.33,2.42-.684.61-.302,1.125-.718,1.642-1.15701" style="fill:none; stroke:#fffbf7; stroke-linecap:round; stroke-linejoin:round; stroke-width:2.312px;"/><path d="m55.4622,103.2626c.8-.071,1.574-.262,2.32-.571,1.36-.559,2.669-1.461,3.114-2.942" style="fill:none; stroke:#fffbf7; stroke-linecap:round; stroke-linejoin:round; stroke-width:2.312px;"/></g></g></g></svg>