<?xml version="1.0" encoding="UTF-8"?><svg id="Layer_2" xmlns="http://www.w3.org/2000/svg" xmlns:xlink="http://www.w3.org/1999/xlink" viewBox="0 0 64.62642 39.727"><defs><clipPath id="clippath"><rect width="64.626" height="39.727" style="fill:none;"/></clipPath></defs><g id="Layer_1-2"><g style="clip-path:url(#clippath);"><path d="m56.1932,28.0638s.288-.324,2.251-.474c1.798-.139,4.479.205,5.686.677,0,0-.719,1.532-1.022,2.371-.313.87-.479,1.688-.581,2.335,0,0,.61,1.184,1.016,2.216.437,1.116.777,2.508.777,2.508,0,0-5.912-.807-8.193-.353-1.597.319-2.242-.079-2.242-.079l2.308-9.201Z" style="fill:#fffef6;"/><path d="m56.1932,28.0638s.288-.324,2.251-.474c1.798-.139,4.479.205,5.686.677,0,0-.719,1.532-1.022,2.371-.313.87-.479,1.688-.581,2.335,0,0,.61,1.184,1.016,2.216.437,1.116.777,2.508.777,2.508,0,0-5.912-.807-8.193-.353-1.597.319-2.242-.079-2.242-.079l2.308-9.201Z" style="fill:none; stroke:#2b3937; stroke-miterlimit:10; stroke-width:.464px;"/><path d="m8.4366,29.8343s-.289.323-2.253.474c-1.797.138-4.48-.206-5.687-.678,0,0,.718-1.532,1.023-2.37.311-.87.479-1.688.582-2.336,0,0-.612-1.186-1.016-2.214-.435-1.117-.776-2.509-.776-2.509,0,0,5.89,1.001,8.192.352,1.572-.443,2.241.081,2.241.081l-2.306,9.2Z" style="fill:#fffef6;"/><path d="m8.4366,29.8343s-.289.323-2.253.474c-1.797.138-4.48-.206-5.687-.678,0,0,.718-1.532,1.023-2.37.311-.87.479-1.688.582-2.336,0,0-.612-1.186-1.016-2.214-.435-1.117-.776-2.509-.776-2.509,0,0,5.89,1.001,8.192.352,1.572-.443,2.241.081,2.241.081l-2.306,9.2Z" style="fill:none; stroke:#2b3937; stroke-miterlimit:10; stroke-width:.464px;"/><path d="m52.7489,35.0854l1.098-3.825s5.956,1.463,5.525,3.105c-.429,1.639-6.623.72-6.623.72" style="fill:#fffef6;"/><path d="m52.7489,35.0854l1.098-3.825s5.956,1.463,5.525,3.105c-.429,1.639-6.623.72-6.623.72Z" style="fill:none; stroke:#2b3937; stroke-miterlimit:10; stroke-width:.464px;"/><path d="m11.2176,27.8572c-.617-.227-2.051-.772-3.484-1.446-3.238-1.524-3.794-2.419-3.838-2.818-.005-.05-.002-.128.091-.234.789-.903,5.209-1.236,7.131-1.301l.1,5.799Z" style="fill:#fffef6;"/><path d="m11.3459,21.8197s-7.858.197-7.68,1.799c.207,1.914,7.789,4.571,7.789,4.571l-.109-6.37Zm-.456.481l.09,5.221c-.712-.269-1.932-.749-3.15-1.322-1.09-.513-1.964-.998-2.596-1.441-.955-.67-1.093-1.055-1.108-1.193.001-.003.089-.242.972-.516.619-.193,1.474-.358,2.544-.489,1.289-.159,2.58-.231,3.248-.26" style="fill:#2b3937;"/><path d="m32.1496,39.7265c-2.567-.02-5.313-.501-8.218-1.009-3.216-.562-6.537-1.142-9.905-1.142-2.268,0-4.304.263-6.225.806-.162.046-.33.069-.499.069-.437,0-.857-.156-1.183-.436-.462-.396-.678-.986-.579-1.577,1.794-10.659,1.371-17.545-2.379-30.753-.163-.569-.018-1.174.388-1.615.341-.368.825-.579,1.332-.579.094,0,.187.007.279.022,1.073.165,2.218.249,3.403.249,4.138-.001,8.379-.995,12.477-1.957C24.9976.8765,28.7346.0005,32.2856.0005s7.287.876,11.241,1.804c4.101.962,8.341,1.957,12.48,1.957,1.185,0,2.331-.084,3.404-.249.091-.015.185-.022.278-.022.507,0,.991.211,1.331.577.408.443.555,1.048.391,1.618-3.752,13.204-4.175,20.091-2.382,30.752.1.591-.117,1.181-.579,1.577-.325.28-.746.436-1.182.436-.169,0-.338-.023-.498-.068-1.922-.544-3.958-.807-6.226-.807-3.367,0-6.689.58-9.902,1.142-2.908.508-5.654.989-8.249,1.009h-.243" style="fill:#2b3937;"/><path d="m14.7722,36.1126c3.242,0,6.436.537,9.525,1.057,2.782.466,5.408.908,7.858.927.024.001.176.002.193.002l.039-.001c2.477-.02,5.103-.462,7.884-.928,3.094-.521,6.288-1.057,9.528-1.057,2.188,0,4.154.245,6.009.749.511.139,1.084.02,1.481-.309.403-.332.592-.827.506-1.319-1.754-10.017-1.219-16.686,2.289-28.547.142-.476.013-.981-.342-1.352-.353-.367-.904-.544-1.417-.469-1.036.154-2.142.232-3.287.232-3.983,0-8.056-.918-11.996-1.806-3.789-.855-7.365-1.662-10.756-1.662-3.393,0-6.968.807-10.754,1.661-3.939.888-8.015,1.806-12.001,1.807-1.145,0-2.249-.078-3.284-.232-.508-.074-1.065.102-1.42.472-.353.368-.481.873-.341,1.348,3.508,11.863,4.042,18.533,2.289,28.547-.087.493.102.986.504,1.318.397.331.97.452,1.484.31,1.854-.503,3.821-.748,6.009-.748m17.576,2.273h-.2c-2.468-.02-5.105-.463-7.897-.932-3.08-.517-6.261-1.052-9.479-1.052-2.161,0-4.103.241-5.934.737-.602.166-1.277.023-1.746-.366-.482-.399-.709-.992-.603-1.589,1.766-10.086,1.254-16.459-2.28-28.417-.171-.575-.018-1.184.407-1.629.354-.367.857-.578,1.383-.578.099,0,.194.008.29.021,1.022.152,2.112.228,3.242.228,3.955-.001,8.013-.915,11.937-1.799,3.802-.858,7.392-1.668,10.818-1.668s7.014.81,10.815,1.668c3.93.885,7.986,1.799,11.937,1.799,1.132,0,2.222-.076,3.244-.228.605-.089,1.253.121,1.672.555.426.447.579,1.057.408,1.632-3.535,11.955-4.048,18.329-2.282,28.416.105.598-.121,1.192-.606,1.591-.467.388-1.142.53-1.743.365-1.829-.497-3.77-.738-5.932-.738-3.215,0-6.397.535-9.472,1.05-2.8.471-5.438.914-7.937.934h-.042Z" style="fill:#fffef6;"/><path d="m59.3491,34.5288c-.081-.867-2.543-1.825-5.616-1.997-15.657-.878-30.156,3.087-42.962,2.354-1.78-.102-3.25-.584-4.091-.969-.827-.379-1.426-.958-1.441-1.928-.012-.677-.026-1.111-.224-3.367-.211-2.392-.978-4.576-.978-4.576,0,0,.505,1.047,7.486,1.447,12.806.734,27.302-3.231,42.96-2.354,3.071.173,4.585.48,5.71.815.359.106,1.199.426,1.834.911.389.299.476.779.261,1.087-.57.815-1.288,1.951-1.838,3.605-.779,2.359-1.101,4.972-1.101,4.972" style="fill:#fffef6;"/><path d="m59.3491,34.5288c-.081-.867-2.543-1.825-5.616-1.997-15.657-.878-30.156,3.087-42.962,2.354-1.78-.102-3.25-.584-4.091-.969-.827-.379-1.426-.958-1.441-1.928-.012-.677-.026-1.111-.224-3.367-.211-2.392-.978-4.576-.978-4.576,0,0,.505,1.047,7.486,1.447,12.806.734,27.302-3.231,42.96-2.354,3.071.173,4.585.48,5.71.815.359.106,1.199.426,1.834.911.389.299.476.779.261,1.087-.57.815-1.288,1.951-1.838,3.605-.779,2.359-1.101,4.972-1.101,4.972Z" style="fill:none; stroke:#2b3937; stroke-linejoin:round; stroke-width:.464px;"/><path d="m15.5859,30.7617c.121-.176.189-.383.189-.589,0-.616-.42-1.053-1.017-1.044-.45.007-.899.011-1.349.011v2.082c.451,0,.902-.004,1.353-.011.319-.004.635-.179.824-.449m.966-.597c0,.49-.181.912-.542,1.239-.307.28-.735.448-1.197.456-.715.011-1.429.014-2.143.009v-3.38c.68.005,1.361.002,2.042-.008,1.13-.017,1.84.647,1.84,1.684" style="fill:#2b3937;"/><path d="m19.1823,28.9391c-.222.474-.445.948-.668,1.421.446-.022.891-.046,1.336-.072-.222-.449-.445-.899-.668-1.349m1.328,2.686c-.116-.235-.233-.471-.349-.707-.65.04-1.299.075-1.949.106-.116.248-.233.496-.349.744-.249.01-.499.021-.748.03.539-1.147,1.079-2.298,1.618-3.452.304-.015.608-.031.911-.049.538,1.096,1.076,2.189,1.614,3.279-.249.017-.499.033-.748.049" style="fill:#2b3937;"/><path d="m22.0904,31.5169v-3.38c.247-.018.493-.037.74-.056v3.38c-.247.019-.493.038-.74.056" style="fill:#2b3937;"/><path d="m27.0063,28.8006c0-.257-.185-.417-.5-.387-.556.052-1.112.102-1.668.151v.887c.557-.049,1.115-.099,1.672-.151.315-.03.496-.22.496-.5m-.021,2.299c-.249-.375-.499-.75-.748-1.125-.466.043-.933.085-1.399.126v1.195c-.246.021-.493.042-.739.063v-3.38c.83-.07,1.661-.144,2.491-.222.693-.065,1.147.339,1.147.997,0,.533-.235.901-.693,1.085.258.394.515.788.773,1.181-.277.027-.555.054-.832.08" style="fill:#2b3937;"/><path d="m30.7083,29.4147v1.317c-.246.025-.493.05-.739.075v-1.317c-.603-.627-1.205-1.255-1.807-1.884.312-.03.625-.061.937-.092.413.429.826.857,1.239,1.285.413-.512.827-1.024,1.24-1.536.312-.032.624-.064.937-.096-.603.749-1.205,1.499-1.807,2.248" style="fill:#2b3937;"/><path d="m35.7592,27.4891v.691c.592-.058,1.185-.115,1.777-.171v.649c-.592.056-1.185.113-1.777.171v1.391c-.247.024-.493.049-.74.073v-3.38c1.1-.109,2.199-.216,3.299-.315v.649c-.853.077-1.706.158-2.559.242" style="fill:#2b3937;"/><path d="m42.2381,27.36c0-.257-.185-.422-.5-.398-.556.042-1.112.086-1.668.132v.887c.557-.046,1.115-.091,1.672-.132.315-.024.496-.209.496-.489m-.021,2.298c-.249-.38-.499-.76-.748-1.14-.466.036-.933.073-1.399.112v1.195c-.246.021-.493.042-.739.063v-3.38c.83-.072,1.661-.14,2.491-.201.693-.052,1.147.367,1.147,1.025,0,.532-.235.893-.693,1.066.258.4.515.801.773,1.202-.277.019-.555.038-.832.058" style="fill:#2b3937;"/><path d="m44.1336,29.5317v-3.38c1.099-.066,2.199-.118,3.298-.154v.649c-.853.028-1.706.066-2.558.112v.691c.592-.032,1.184-.06,1.777-.084v.649c-.593.024-1.185.052-1.777.084v.742c.892-.048,1.784-.088,2.676-.116v.649c-1.139.036-2.277.09-3.416.158" style="fill:#2b3937;"/><path d="m48.6465,29.3444v-3.38c1.099-.024,2.199-.03,3.298-.015v.649c-.853-.012-1.706-.011-2.558.001v.691c.592-.008,1.184-.011,1.777-.008v.649c-.593-.003-1.185,0-1.777.008v.743c.892-.013,1.784-.014,2.676,0v.649c-1.139-.017-2.277-.012-3.416.013" style="fill:#2b3937;"/><path d="m35.5516,17.3359h.028c.465,0,.576.111.577.571l.001,2.424c.001.461-.11.572-.576.573h-.028l.001.256,2.206-.001-.001-.257h-.04c-.494,0-.607-.104-.607-.571l-.002-2.425c0-.466.112-.571.606-.571h.041v-.256l-2.206.001v.256Z" style="fill:none; stroke:#2b3937; stroke-linecap:round; stroke-linejoin:round; stroke-width:.413px;"/><path d="m35.5516,17.3359h.028c.465,0,.576.111.577.571l.001,2.424c.001.461-.11.572-.576.573h-.028l.001.256,2.206-.001-.001-.257h-.04c-.494,0-.607-.104-.607-.571l-.002-2.425c0-.466.112-.571.606-.571h.041v-.256l-2.206.001v.256Z" style="fill:#fffef6;"/><path d="m12.7905,20.9218c-.525.001-.596-.058-.596-.504l-.002-3.065c.23-.026.321-.026.527-.027.382,0,.672.04.943.131.677.223,1.093.857,1.093,1.663.001,1.126-.738,1.802-1.965,1.802Zm1.562-3.734c-.463-.129-.864-.169-1.709-.168-.401,0-.881.013-1.199.034l-.756.054-.089.006.001.249h.034c.492-.001.601.105.602.571l.001,2.419c.001.465-.108.57-.6.571h-.049v.255l2.112.007c.837-.001,1.274-.068,1.766-.258.783-.296,1.323-1.07,1.323-1.89-.001-.88-.55-1.595-1.437-1.85Z" style="fill:none; stroke:#2b3937; stroke-linecap:round; stroke-linejoin:round; stroke-width:.413px;"/><path d="m12.7905,20.9218c-.525.001-.596-.058-.596-.504l-.002-3.065c.23-.026.321-.026.527-.027.382,0,.672.04.943.131.677.223,1.093.857,1.093,1.663.001,1.126-.738,1.802-1.965,1.802m1.562-3.734c-.463-.129-.864-.169-1.709-.168-.401,0-.881.013-1.199.034l-.756.054-.089.006.001.249h.034c.492-.001.601.105.602.571l.001,2.419c.001.465-.108.57-.6.571h-.049v.255l2.112.007c.837-.001,1.274-.068,1.766-.258.783-.296,1.323-1.07,1.323-1.89-.001-.88-.55-1.595-1.437-1.85" style="fill:#fffef6;"/><path d="m19.4202,20.8086l-.935.001c-.062,0-.112,0-.147-.007-.063,0-.105-.006-.138-.033-.076-.046-.083-.098-.084-.538v-.922h1.019c.472-.001.618.097.618.413v.058h.277l-.001-1.306h-.277c-.035.401-.132.471-.624.472h-1.012l-.001-1.492,1.392-.001c.444,0,.534.087.59.585h.268l-.07-.947-3.81.003v.255h.07c.491-.001.603.105.603.571l.002,2.424c0,.467-.112.572-.602.572h-.223l.001.257,4.159-.003.09-1.033h-.264c-.13.546-.296.671-.901.671Z" style="fill:none; stroke:#2b3937; stroke-linecap:round; stroke-linejoin:round; stroke-width:.413px;"/><path d="m19.4202,20.8086l-.935.001c-.062,0-.112,0-.147-.007-.063,0-.105-.006-.138-.033-.076-.046-.083-.098-.084-.538v-.922h1.019c.472-.001.618.097.618.413v.058h.277l-.001-1.306h-.277c-.035.401-.132.471-.624.472h-1.012l-.001-1.492,1.392-.001c.444,0,.534.087.59.585h.268l-.07-.947-3.81.003v.255h.07c.491-.001.603.105.603.571l.002,2.424c0,.467-.112.572-.602.572h-.223l.001.257,4.159-.003.09-1.033h-.264c-.13.546-.296.671-.901.671" style="fill:#fffef6;"/><path d="m25.1622,20.6273c-.145.132-.304.178-.665.178h-.748c-.32.001-.353-.039-.353-.434l-.002-2.455c0-.466.108-.572.603-.572h.117l-.001-.256-2.349.002v.255h.076c.491,0,.604.105.604.571l.002,2.426c0,.466-.112.571-.604.571h-.089v.257l3.715-.003.512-1.145h-.284c-.146.203-.387.473-.534.605Z" style="fill:none; stroke:#2b3937; stroke-linecap:round; stroke-linejoin:round; stroke-width:.413px;"/><path d="m25.1622,20.6273c-.145.132-.304.178-.665.178h-.748c-.32.001-.353-.039-.353-.434l-.002-2.455c0-.466.108-.572.603-.572h.117l-.001-.256-2.349.002v.255h.076c.491,0,.604.105.604.571l.002,2.426c0,.466-.112.571-.604.571h-.089v.257l3.715-.003.512-1.145h-.284c-.146.203-.387.473-.534.605" style="fill:#fffef6;"/><path d="m26.9181,17.3467h.027c.464,0,.575.111.576.571l.001,2.424c.001.461-.11.572-.575.573h-.027l.001.256,2.205-.001v-.257h-.043c-.492,0-.603-.104-.603-.571l-.002-2.425c0-.466.11-.571.602-.571l.043-.001v-.255l-2.205.001v.256Z" style="fill:none; stroke:#2b3937; stroke-linecap:round; stroke-linejoin:round; stroke-width:.413px;"/><path d="m26.9181,17.3467h.027c.464,0,.575.111.576.571l.001,2.424c.001.461-.11.572-.575.573h-.027l.001.256,2.205-.001v-.257h-.043c-.492,0-.603-.104-.603-.571l-.002-2.425c0-.466.11-.571.602-.571l.043-.001v-.255l-2.205.001v.256Z" style="fill:#fffef6;"/><path d="m32.704,20.9291c-.99.001-1.755-.812-1.756-1.87-.001-1.037.679-1.745,1.671-1.746.666-.001,1.158.367,1.379,1.016l.27-.004-.062-1.149h-.172c-.05.053-.077.073-.14.073-.048,0-.09-.013-.221-.059-.429-.16-.708-.212-1.103-.212-1.49.001-2.66.948-2.66,2.154.001,1.189,1.103,2.12,2.518,2.119.187,0,.402-.02.603-.053l.228-.031c.147-.027.258-.041.361-.041.159,0,.298.021.409.053.166-.341.339-.848.394-1.196h-.277c-.284.604-.805.946-1.442.946Z" style="fill:none; stroke:#2b3937; stroke-linecap:round; stroke-linejoin:round; stroke-width:.413px;"/><path d="m32.704,20.9291c-.99.001-1.755-.812-1.756-1.87-.001-1.037.679-1.745,1.671-1.746.666-.001,1.158.367,1.379,1.016l.27-.004-.062-1.149h-.172c-.05.053-.077.073-.14.073-.048,0-.09-.013-.221-.059-.429-.16-.708-.212-1.103-.212-1.49.001-2.66.948-2.66,2.154.001,1.189,1.103,2.12,2.518,2.119.187,0,.402-.02.603-.053l.228-.031c.147-.027.258-.041.361-.041.159,0,.298.021.409.053.166-.341.339-.848.394-1.196h-.277c-.284.604-.805.946-1.442.946" style="fill:#fffef6;"/><path d="m41.3754,20.9595c-.978.001-1.637-.843-1.638-2.1-.001-.988.561-1.624,1.442-1.624.667-.001,1.157.359,1.428,1.053.128.307.188.628.188.955.001,1.047-.553,1.716-1.42,1.716Zm-.03-4.009c-1.539.001-2.649.934-2.648,2.224.001,1.204,1.048,2.07,2.527,2.069,1.503-.001,2.598-.933,2.597-2.204-.001-1.23-1.014-2.09-2.476-2.089Z" style="fill:none; stroke:#2b3937; stroke-linecap:round; stroke-linejoin:round; stroke-width:.413px;"/><path d="m41.3754,20.9595c-.978.001-1.637-.843-1.638-2.1-.001-.988.561-1.624,1.442-1.624.667-.001,1.157.359,1.428,1.053.128.307.188.628.188.955.001,1.047-.553,1.716-1.42,1.716m-.03-4.009c-1.539.001-2.649.934-2.648,2.224.001,1.204,1.048,2.07,2.527,2.069,1.503-.001,2.598-.933,2.597-2.204-.001-1.23-1.014-2.09-2.476-2.089" style="fill:#fffef6;"/><path d="m47.9295,17.3181h.055c.512,0,.636.151.637.795l.001,1.143c0,.361-.007.407-.021.558-.083.618-.574.986-1.329.987-.432,0-.777-.124-1.008-.354-.206-.216-.264-.395-.265-.933l-.001-1.623c0-.46.118-.572.585-.572h.035v-.256l-2.172.002v.255h.049c.484,0,.556.072.556.571l.001,1.604c0,.217.005.368.021.499.109.782.858,1.241,2.011,1.24.791,0,1.379-.256,1.698-.729.208-.317.256-.56.256-1.249l-.001-1.216c0-.585.124-.723.637-.723h.049l-.001-.256-1.793.001v.256Z" style="fill:none; stroke:#2b3937; stroke-linecap:round; stroke-linejoin:round; stroke-width:.413px;"/><path d="m47.9295,17.3181h.055c.512,0,.636.151.637.795l.001,1.143c0,.361-.007.407-.021.558-.083.618-.574.986-1.329.987-.432,0-.777-.124-1.008-.354-.206-.216-.264-.395-.265-.933l-.001-1.623c0-.46.118-.572.585-.572h.035v-.256l-2.172.002v.255h.049c.484,0,.556.072.556.571l.001,1.604c0,.217.005.368.021.499.109.782.858,1.241,2.011,1.24.791,0,1.379-.256,1.698-.729.208-.317.256-.56.256-1.249l-.001-1.216c0-.585.124-.723.637-.723h.049l-.001-.256-1.793.001v.256Z" style="fill:#fffef6;"/><path d="m52.9191,18.8438c-.154-.099-.305-.184-.465-.27-.049-.026-.195-.098-.443-.223-.451-.223-.624-.407-.624-.65,0-.255.291-.454.679-.454.533-.001.976.342,1.129.867l.277-.005-.132-1.055h-.153c-.056.056-.083.07-.131.07-.02,0-.063-.008-.111-.02-.311-.085-.707-.149-.95-.149-.83.001-1.412.438-1.412,1.069,0,.27.126.545.349.755.173.17.36.295.733.48l.396.19c.517.262.748.511.749.82,0,.368-.347.645-.805.646-.545,0-.954-.336-1.182-.986l-.273.001.175,1.191h.18c.034-.072.082-.105.146-.105.027,0,.06.007.105.014.026.013.061.019.095.032l.112.029c.333.091.601.137.836.137.859,0,1.514-.533,1.513-1.223,0-.459-.246-.814-.793-1.161Z" style="fill:none; stroke:#2b3937; stroke-linecap:round; stroke-linejoin:round; stroke-width:.413px;"/><path d="m52.9191,18.8438c-.154-.099-.305-.184-.465-.27-.049-.026-.195-.098-.443-.223-.451-.223-.624-.407-.624-.65,0-.255.291-.454.679-.454.533-.001.976.342,1.129.867l.277-.005-.132-1.055h-.153c-.056.056-.083.07-.131.07-.02,0-.063-.008-.111-.02-.311-.085-.707-.149-.95-.149-.83.001-1.412.438-1.412,1.069,0,.27.126.545.349.755.173.17.36.295.733.48l.396.19c.517.262.748.511.749.82,0,.368-.347.645-.805.646-.545,0-.954-.336-1.182-.986l-.273.001.175,1.191h.18c.034-.072.082-.105.146-.105.027,0,.06.007.105.014.026.013.061.019.095.032l.112.029c.333.091.601.137.836.137.859,0,1.514-.533,1.513-1.223,0-.459-.246-.814-.793-1.161" style="fill:#fffef6;"/><path d="m54.9692,17.4422l.007.248.163-.005c.069-.001.119-.013.151-.034.031-.021.046-.053.045-.096-.002-.046-.018-.077-.049-.095-.032-.017-.087-.025-.165-.023l-.152.005Zm.02.713l-.133.003-.024-.824.286-.009c.102-.002.173.003.215.018s.077.041.103.078c.026.036.04.075.041.117.002.063-.02.117-.062.162-.043.044-.099.071-.168.078.032.012.061.032.09.061.028.029.064.076.108.142l.104.158-.163.004-.075-.127c-.055-.091-.098-.15-.13-.177-.03-.026-.071-.039-.123-.038l-.079.003.01.351Zm.145-1.057c-.176.005-.326.072-.447.2-.122.129-.181.281-.176.458.005.176.072.326.2.446.128.121.281.18.458.175.176-.005.325-.072.446-.2.122-.128.18-.281.175-.457-.005-.177-.072-.325-.2-.447-.129-.121-.28-.18-.456-.175m-.004-.127c.137-.004.266.027.386.092.121.066.217.157.29.273.072.117.109.244.113.381.004.137-.027.266-.092.386-.065.12-.156.215-.273.287-.117.072-.244.11-.381.114-.139.004-.268-.027-.389-.092-.12-.065-.216-.155-.288-.272-.072-.116-.11-.243-.114-.381-.003-.138.028-.266.093-.386.066-.121.157-.217.274-.289.116-.072.243-.109.381-.113" style="fill:#fffef6;"/><path d="m54.9692,17.4422l.007.248.163-.005c.069-.001.119-.013.151-.034.031-.021.046-.053.045-.096-.002-.046-.018-.077-.049-.095-.032-.017-.087-.025-.165-.023l-.152.005Zm.02.713l-.133.003-.024-.824.286-.009c.102-.002.173.003.215.018s.077.041.103.078c.026.036.04.075.041.117.002.063-.02.117-.062.162-.043.044-.099.071-.168.078.032.012.061.032.09.061.028.029.064.076.108.142l.104.158-.163.004-.075-.127c-.055-.091-.098-.15-.13-.177-.03-.026-.071-.039-.123-.038l-.079.003.01.351Zm.145-1.057c-.176.005-.326.072-.447.2-.122.129-.181.281-.176.458.005.176.072.326.2.446.128.121.281.18.458.175.176-.005.325-.072.446-.2.122-.128.18-.281.175-.457-.005-.177-.072-.325-.2-.447-.129-.121-.28-.18-.456-.175Zm-.004-.127c.137-.004.266.027.386.092.121.066.217.157.29.273.072.117.109.244.113.381.004.137-.027.266-.092.386-.065.12-.156.215-.273.287-.117.072-.244.11-.381.114-.139.004-.268-.027-.389-.092-.12-.065-.216-.155-.288-.272-.072-.116-.11-.243-.114-.381-.003-.138.028-.266.093-.386.066-.121.157-.217.274-.289.116-.072.243-.109.381-.113Z" style="fill:none; stroke:#fffef6; stroke-width:.116px;"/><path d="m19.9451,11.8247l.857.005c.726,1.684,2.021,2.554,3.754,2.553,1.447-.001,2.543-.718,2.542-1.671,0-.801-.724-1.447-2.369-2.127l-1.251-.493c-1.183-.475-1.778-.798-2.327-1.24-.702-.545-1.099-1.26-1.099-1.957-.001-1.635,1.843-2.762,4.475-2.764.766,0,2.017.165,3.006.383.153.031.287.049.353.049.153,0,.24-.034.416-.166h.487l.418,2.731-.882-.002c-.483-1.36-1.89-2.245-3.578-2.244-1.227.001-2.148.512-2.147,1.177,0,.629.551,1.106,1.974,1.682.788.323,1.249.512,1.402.58.504.22.988.442,1.471.696,1.741.901,2.512,1.82,2.512,3.012.002,1.787-2.066,3.145-4.79,3.147-.744.001-1.6-.114-2.652-.346l-.353-.072c-.107-.033-.219-.05-.305-.085-.132-.016-.242-.033-.33-.033-.197,0-.353.085-.46.271h-.572l-.552-3.086Z" style="fill:#fff;"/><path d="m19.9451,11.8247l.857.005c.726,1.684,2.021,2.554,3.754,2.553,1.447-.001,2.543-.718,2.542-1.671,0-.801-.724-1.447-2.369-2.127l-1.251-.493c-1.183-.475-1.778-.798-2.327-1.24-.702-.545-1.099-1.26-1.099-1.957-.001-1.635,1.843-2.762,4.475-2.764.766,0,2.017.165,3.006.383.153.031.287.049.353.049.153,0,.24-.034.416-.166h.487l.418,2.731-.882-.002c-.483-1.36-1.89-2.245-3.578-2.244-1.227.001-2.148.512-2.147,1.177,0,.629.551,1.106,1.974,1.682.788.323,1.249.512,1.402.58.504.22.988.442,1.471.696,1.741.901,2.512,1.82,2.512,3.012.002,1.787-2.066,3.145-4.79,3.147-.744.001-1.6-.114-2.652-.346l-.353-.072c-.107-.033-.219-.05-.305-.085-.132-.016-.242-.033-.33-.033-.197,0-.353.085-.46.271h-.572l-.552-3.086Z" style="fill:none; stroke:#fff; stroke-width:.057px;"/><path d="m31.5813,9.8215c.002,3.101,2.736,5.345,6.59,5.341,3.925-.003,6.773-2.419,6.771-5.69-.002-3.17-2.634-5.396-6.452-5.392-4.014.003-6.91,2.417-6.909,5.741m2.715-.813c-.001-2.546,1.463-4.184,3.761-4.186,1.737-.001,3.022.926,3.729,2.713.326.792.489,1.619.49,2.461.001,2.7-1.445,4.42-3.707,4.421-2.551.003-4.271-2.171-4.273-5.409" style="fill:#fff;"/><path d="m31.5813,9.8215c.002,3.101,2.736,5.345,6.59,5.341,3.925-.003,6.773-2.419,6.771-5.69-.002-3.17-2.634-5.396-6.452-5.392-4.014.003-6.91,2.417-6.909,5.741Zm2.715-.813c-.001-2.546,1.463-4.184,3.761-4.186,1.737-.001,3.022.926,3.729,2.713.326.792.489,1.619.49,2.461.001,2.7-1.445,4.42-3.707,4.421-2.551.003-4.271-2.171-4.273-5.409Z" style="fill:none; stroke:#fff; stroke-width:.051px;"/><path d="m31.5821,9.8207c.001,3.102,2.735,5.346,6.589,5.342,3.926-.003,6.773-2.42,6.771-5.691-.002-3.169-2.633-5.395-6.452-5.392-4.014.004-6.91,2.418-6.908,5.741Zm2.714-.812c-.001-2.546,1.463-4.184,3.762-4.186,1.736-.001,3.022.926,3.729,2.713.325.792.489,1.619.489,2.461.002,2.699-1.445,4.419-3.707,4.421-2.55.002-4.271-2.171-4.273-5.409Zm-14.351,2.816l.857.005c.726,1.684,2.021,2.554,3.754,2.553,1.447-.001,2.543-.718,2.542-1.671,0-.801-.724-1.447-2.369-2.127l-1.251-.493c-1.183-.475-1.778-.798-2.327-1.24-.702-.545-1.099-1.26-1.099-1.957-.001-1.635,1.843-2.762,4.475-2.764.766,0,2.017.165,3.006.383.153.031.287.049.353.049.153,0,.24-.034.416-.166h.487l.418,2.731-.882-.002c-.483-1.36-1.89-2.245-3.578-2.244-1.227.001-2.148.512-2.147,1.177,0,.629.551,1.106,1.974,1.682.788.323,1.249.512,1.402.58.504.22.988.442,1.471.696,1.741.901,2.512,1.82,2.512,3.012.002,1.787-2.066,3.145-4.79,3.147-.744.001-1.6-.114-2.652-.346l-.353-.072c-.107-.033-.219-.05-.305-.085-.132-.016-.242-.033-.33-.033-.197,0-.353.085-.46.271h-.572l-.552-3.086Z" style="fill:none; stroke:#2b3937; stroke-linecap:round; stroke-linejoin:round; stroke-width:.585px;"/><path d="m19.9451,11.8247l.857.005c.726,1.684,2.021,2.554,3.754,2.553,1.447-.001,2.543-.718,2.542-1.671,0-.801-.724-1.447-2.369-2.127l-1.251-.493c-1.183-.475-1.778-.798-2.327-1.24-.702-.545-1.099-1.26-1.099-1.957-.001-1.635,1.843-2.762,4.475-2.764.766,0,2.017.165,3.006.383.153.031.287.049.353.049.153,0,.24-.034.416-.166h.487l.418,2.731-.882-.002c-.483-1.36-1.89-2.245-3.578-2.244-1.227.001-2.148.512-2.147,1.177,0,.629.551,1.106,1.974,1.682.788.323,1.249.512,1.402.58.504.22.988.442,1.471.696,1.741.901,2.512,1.82,2.512,3.012.002,1.787-2.066,3.145-4.79,3.147-.744.001-1.6-.114-2.652-.346l-.353-.072c-.107-.033-.219-.05-.305-.085-.132-.016-.242-.033-.33-.033-.197,0-.353.085-.46.271h-.572l-.552-3.086Z" style="fill:#fffef6;"/><path d="m31.5813,9.8215c.002,3.101,2.736,5.345,6.59,5.341,3.925-.003,6.773-2.419,6.771-5.69-.002-3.17-2.634-5.396-6.452-5.392-4.014.003-6.91,2.417-6.909,5.741m2.715-.813c-.001-2.546,1.463-4.184,3.761-4.186,1.737-.001,3.022.926,3.729,2.713.326.792.489,1.619.49,2.461.001,2.7-1.445,4.42-3.707,4.421-2.551.003-4.271-2.171-4.273-5.409" style="fill:#fffef6;"/></g></g></svg>