<?xml version="1.0" encoding="UTF-8"?><svg id="Layer_2" xmlns="http://www.w3.org/2000/svg" viewBox="0 0 604.46131 101.88874"><g id="Layer_1-2"><path d="m.44188,57.05762c-1.16992-2.42969.09033-4.13965,2.52002-4.76953l2.33984-.54004c2.16016-.54004,3.24023.4502,4.77002,2.16016,1.62012,1.97949,4.40967,3.23926,7.55957,3.23926,3.95996,0,6.75-2.15918,6.75-5.04004,0-2.42969-1.89014-3.68945-4.85986-4.76953l-5.8501-2.06934c-5.84961-1.7998-12.14941-5.40039-12.14941-12.87012,0-8.09961,6.65967-14.03906,16.10938-14.03906,5.75977,0,11.06982,1.88965,14.21973,7.29004,1.52979,2.33984.26953,4.22949-2.25,4.85938l-2.06982.54004c-2.16016.54004-3.33008-.27051-4.77002-1.7998-1.3501-1.62012-3.1499-2.07031-4.94971-2.07031-3.50977,0-5.58008,2.16016-5.58008,4.77051,0,2.42969,2.16016,3.68945,4.68018,4.49902l6.11963,2.16016c9.08936,2.87988,11.96924,8.18945,12.05957,13.40918,0,9.17969-8.09961,14.04004-17.45947,14.04004-7.64941,0-14.12939-3.06055-17.18945-9Z" style="fill:#faa61a;"/><path d="m43.64208,45.44824v-22.22949c0-2.42969,1.43994-3.86914,3.87012-3.86914h3.95947c2.43018,0,3.77979,1.43945,3.77979,3.86914v21.68945c0,7.83008,3.41992,11.42969,8.18994,11.42969,4.67969,0,11.78955-3.50977,11.78955-14.5791v-18.54004c0-2.42969,1.43994-3.86914,3.86963-3.86914h3.95996c2.42969,0,3.77979,1.43945,3.77979,3.86914v38.06836c0,2.43066-1.3501,3.78027-3.77979,3.78027h-3.95996c-2.42969,0-3.86963-1.34961-3.86963-3.78027v-4.31934c-2.06982,5.75977-7.46973,9.08984-14.48975,9.08984-11.15918,0-17.09912-8.09961-17.09912-20.60938Z" style="fill:#faa61a;"/><path d="m99.26073,81.44629V23.21875c0-2.42969,1.34961-3.86914,3.77979-3.86914h3.95947c2.43018,0,3.87012,1.43945,3.87012,3.86914v2.9707c3.77979-5.58008,9.35938-7.83008,15.47949-7.83008,13.22949,0,22.229,10.5293,22.229,23.84863s-8.99951,23.84961-22.229,23.84961c-6.12012,0-11.69971-2.25-15.47949-7.83008v23.21875c0,2.43066-1.43994,3.78027-3.87012,3.78027h-3.95947c-2.43018,0-3.77979-1.34961-3.77979-3.78027Zm37.7085-39.23828c0-7.73926-4.68018-14.21875-12.86963-14.21875-8.00977,0-13.40967,6.0293-13.49951,14.21875.08984,8.19043,5.48975,14.21973,13.49951,14.21973,8.18945,0,12.86963-6.38965,12.86963-14.21973Z" style="fill:#faa61a;"/><path d="m154.79052,42.38867c0-13.0498,9.98926-24.0293,24.83887-24.0293,12.23926,0,22.85889,7.37988,23.75879,21.95898.18018,2.33984-1.34961,3.59961-3.77979,3.59961h-33.56836c-.18018,6.92969,5.93945,12.59961,15.38916,12.59961,3.77979,0,7.55957-.99023,11.24951-3.33008,1.97998-1.16992,3.77979-.98926,5.31006.7207l.80957.98926c1.62012,1.7998,1.53027,4.0498-.71973,5.75977-5.21973,4.0498-11.42969,5.40039-17.18945,5.40039-16.19922,0-26.09863-10.62012-26.09863-23.66895Zm37.43848-5.75977c-1.80029-7.2002-7.56006-9-12.41992-9-5.03955,0-11.06934,2.07031-13.229,9h25.64893Z" style="fill:#faa61a;"/><path d="m212.29931,61.28711V23.21875c0-2.42969,1.34961-3.86914,3.77979-3.86914h3.77979c2.42969,0,3.77979,1.43945,3.77979,3.86914v6.2998c1.52979-7.8291,7.37988-11.15918,12.05957-11.15918.35986,0,1.3501.08984,1.7998.17969,1.97998.18066,2.33984,1.7998,2.33984,3.59961v4.5c0,2.33984-1.08008,3.33008-2.78955,3.06055-.81006-.18066-1.62012-.27051-2.34033-.27051-4.31982,0-10.79932,2.61035-10.79932,17.5498v14.30859c0,2.43066-1.43994,3.78027-3.87012,3.78027h-3.95947c-2.43018,0-3.77979-1.34961-3.77979-3.78027Z" style="fill:#faa61a;"/><path d="m279.25829,58.22754v3.05957c0,2.43066-1.3501,3.78027-3.78027,3.78027h-3.95947c-2.43018,0-3.87012-1.34961-3.87012-3.78027V3.78027c0-2.43066,1.43994-3.78027,3.87012-3.78027h3.95947c2.43018,0,3.78027,1.34961,3.78027,3.78027v22.40918c3.86963-5.58008,9.44922-7.83008,15.479-7.83008,13.22949,0,22.31934,10.5293,22.31934,23.84863s-9.08984,23.84961-22.31934,23.84961c-6.02979,0-11.60938-2.25-15.479-7.83008Zm26.18848-16.01953c0-7.73926-4.67969-14.21875-12.95898-14.21875-7.91992,0-13.31982,6.0293-13.40967,14.21875.08984,8.19043,5.48975,14.21973,13.40967,14.21973,8.2793,0,12.95898-6.38965,12.95898-14.21973Z" style="fill:#faa61a;"/><path d="m326.68798,61.28711V3.78027c0-2.43066,1.3501-3.78027,3.77979-3.78027h4.0498c2.43018,0,3.77979,1.34961,3.77979,3.78027v57.50684c0,2.43066-1.34961,3.78027-3.77979,3.78027h-4.0498c-2.42969,0-3.77979-1.34961-3.77979-3.78027Z" style="fill:#faa61a;"/><path d="m347.74804,42.38867c0-13.0498,9.98926-24.0293,24.83887-24.0293,12.23926,0,22.85889,7.37988,23.75879,21.95898.18018,2.33984-1.34961,3.59961-3.77979,3.59961h-33.56836c-.18018,6.92969,5.93945,12.59961,15.38916,12.59961,3.77979,0,7.55957-.99023,11.24951-3.33008,1.97998-1.16992,3.77979-.98926,5.31006.7207l.80956.98926c1.62013,1.7998,1.53028,4.0498-.71972,5.75977-5.21973,4.0498-11.42969,5.40039-17.18945,5.40039-16.19922,0-26.09863-10.62012-26.09863-23.66895Zm37.43848-5.75977c-1.80029-7.2002-7.56006-9-12.41943-9-5.04004,0-11.06982,2.07031-13.22949,9h25.64893Z" style="fill:#faa61a;"/><path d="m405.25731,61.28711V23.21875c0-2.42969,1.34961-3.86914,3.77979-3.86914h3.95947c2.43018,0,3.87012,1.43945,3.87012,3.86914v4.23047c2.06982-5.75977,7.46973-9.08984,14.48926-9.08984,11.15967,0,17.09961,8.09961,17.09961,20.60938v22.31836c0,2.43066-1.43994,3.78027-3.87012,3.78027h-3.95996c-2.42969,0-3.77979-1.34961-3.77979-3.78027v-21.77832c0-7.83008-3.41992-11.42969-8.18945-11.42969-4.67969,0-11.78955,3.50977-11.78955,14.66895v18.53906c0,2.43066-1.43994,3.78027-3.87012,3.78027h-3.95947c-2.43018,0-3.77979-1.34961-3.77979-3.78027Z" style="fill:#faa61a;"/><path d="m457.27636,42.20801c0-13.31934,8.99951-23.84863,22.229-23.84863,6.12012,0,11.69971,2.25,15.47949,7.83008V3.78027c0-2.43066,1.43994-3.78027,3.87012-3.78027h3.95947c2.43018,0,3.77979,1.34961,3.77979,3.78027v57.50684c0,2.43066-1.34961,3.78027-3.77979,3.78027h-3.95947c-2.43018,0-3.87012-1.34961-3.87012-3.78027v-3.05957c-3.77979,5.58008-9.35938,7.83008-15.47949,7.83008-13.22949,0-22.229-10.53027-22.229-23.84961Zm37.97852,0c-.08984-8.18945-5.48975-14.21875-13.49951-14.21875-8.18945,0-12.86914,6.47949-12.86914,14.21875,0,7.83008,4.67969,14.21973,12.86914,14.21973,8.00977,0,13.40967-6.0293,13.49951-14.21973Z" style="fill:#faa61a;"/><path d="m516.40673,57.05762c-1.17041-2.42969.08984-4.13965,2.51953-4.76953l2.33984-.54004c2.16016-.54004,3.24023.4502,4.77002,2.16016,1.62012,1.97949,4.40967,3.23926,7.55957,3.23926,3.95996,0,6.75-2.15918,6.75-5.04004,0-2.42969-1.89014-3.68945-4.85986-4.76953l-5.8501-2.06934c-5.84961-1.7998-12.14941-5.40039-12.14941-12.87012,0-8.09961,6.65967-14.03906,16.10938-14.03906,5.75977,0,11.06982,1.88965,14.21973,7.29004,1.52979,2.33984.27002,4.22949-2.25,4.85938l-2.06982.54004c-2.16016.54004-3.33008-.27051-4.77002-1.7998-1.3501-1.62012-3.1499-2.07031-4.94971-2.07031-3.50977,0-5.58008,2.16016-5.58008,4.77051,0,2.42969,2.16016,3.68945,4.68018,4.49902l6.11963,2.16016c9.08984,2.87988,11.96973,8.18945,12.05957,13.40918,0,9.17969-8.09961,14.04004-17.45947,14.04004-7.64941,0-14.12939-3.06055-17.18896-9Z" style="fill:#faa61a;"/><path d="m486.50292,99.30469c-.03809-.71875.44824-1.38574,1.16699-1.42285,1.03223-.17383,1.89551,1.02246,3.33398.94727,1.1582-.06055,2.21777-1.23828,2.17188-2.11523-.09082-.95703-1.25293-1.7373-2.61719-2.54688-1.57129-.95898-2.78027-1.85742-2.85352-3.25488-.14258-2.71582,3.66016-5.03809,6.69531-5.19727,1.59375-.16406,3.10742.43848,3.16602,1.55566.07715,1.47852-1.20703,1.42676-2.48535,1.49316-1.12012.01855-2.18555.31348-3.19727.88867-1.00879.61328-1.01953,1.1748-.06738,1.76465,2.6123,1.70508,4.21387,2.46289,4.3584,5.21777.14258,2.7168-2.41602,5.09277-5.37207,5.24805-1.95703.10254-4.22461-1.14062-4.2998-2.57812Z" style="fill:#faa61a;"/><path d="m509.6494,100.01465c-.03125-1.36035.68555-3.7207,1.4209-7.2832.12793-.60742-.60352-.80957-.93848-.3125-.37207.54199-1.6582,2.73145-2.00391,3.0293-.94531,1.05078-2.23535.87793-2.78613-.4541-.40332-.82031-.72461-3.88672-1.64355-3.83887-.75879.04004-1.81055,4.41895-2.2041,6.84277-.21094,1.33301-.89746,1.96973-1.82715,1.81836-.68945-.16406-1.20605-.85742-1.16602-1.62109.0127-.52051.10938-.9668.2041-1.45215.72168-3.04102,2.3584-9.25391,3.2832-10.70508.70898-.99805,1.86328-1.13867,2.75-.26367.7959.67871,1.35547,2.17188,2.07812,3.73535.40723.89941.84863.91699,1.44531.08398l1.53223-2.12305c2.12891-2.91406,3.21387-3.6123,4.40332-3.07324,1.14551.46094,1.32617,1.61328.81445,4.08203-1.01172,5.13867-2.32324,11.45605-2.56836,12.10938-.32422.69824-.94922,1.01074-1.67578.88965-.76953-.16113-1.07422-.625-1.11816-1.46387Z" style="fill:#faa61a;"/><path d="m516.28612,96.70312c-.26562-5.07227,3.56543-12.20117,7.79883-12.42285,1.99707-.10547,2.62305,2.66602,2.73242,4.74219.30078,4.99121-2.65625,11.23145-6.76953,11.44727-2.11621.11133-3.64648-1.56934-3.76172-3.7666Zm7.65527-7.53027c-.0293-.55859-.17969-1.15234-.73926-1.12305-1.79785.09473-4.14844,5.66406-4.02734,7.98145.0459.87793.35254,1.38281.95117,1.35156,2.08594.05078,3.94922-5.6543,3.81543-8.20996Z" style="fill:#faa61a;"/><path d="m528.38964,96.06836c-.26562-5.07227,3.56543-12.20117,7.79883-12.42285,1.99707-.10449,2.62305,2.66602,2.73242,4.74219.30078,4.99121-2.65625,11.23242-6.76953,11.44727-2.11621.11133-3.64648-1.56934-3.76172-3.7666Zm7.65527-7.53027c-.0293-.55859-.18066-1.15137-.73926-1.12207-1.79785.09375-4.14844,5.66406-4.02734,7.98145.0459.87793.35252,1.38281.95117,1.35156,2.08594.0498,3.94922-5.65527,3.81543-8.21094Z" style="fill:#faa61a;"/><path d="m543.79003,97.98438c.15918-.76855,1.36914-4.43652,3.44531-10.67285.12207-.72656-.41406-1.02051-1.33301-.97168-1.39551.11328-2.35156.20312-2.99023.23633-1.75293.17285-2.71191.22266-2.94531-1.16602-.13184-.99512.75293-1.68164,2.35156-1.76562l7.22852-.37891c6.8291-.35742,7.82324-.49023,8.48145-.16406.53516.29199.84473.83691.75586,1.44238-.11426.8877-.73828,1.19922-2.25586,1.2793-1.39748.07324-2.83594.14844-4.27539.18359-.95996.00977-1.57617.48438-1.8877,1.4209-.40625,1.42285-.89355,2.81055-1.38184,4.19824-1.31934,3.87305-2.27637,7.00684-2.57812,7.34277-.40625.66309-1.11426.89941-1.80664.69629-.61328-.24902-.97363-.99121-.80859-1.68066Z" style="fill:#faa61a;"/><path d="m557.58007,97.42285c.21387-2.01367,3.55273-13.20215,4.50391-14.93457.25586-.4541.68262-.7168,1.16016-.78125,1.19824-.06348,1.7334.99121,1.45605,1.80664-.13672.44629-1.47852,4.6416-1.75684,5.45703-.20215.73145.06152,1.15918.82227,1.15918l1.39746-.07324c1.99707-.10449,2.00781.09473,2.65527-2.0625.41504-1.26172.72363-2.24023,1.20117-3.82617.38086-1.1416,1.02441-1.85645,1.7832-1.89551.91797-.04883,1.84961.90332,1.42285,1.92676-1.19727,3.14746-2.06543,6.43652-2.93848,9.64551-.70117,2.67969-.80664,2.9668-.99512,3.17676-.41016.58203-1.03906.81543-1.56836.64258-1.09279-.22363-1.19629-1.41895-.81934-2.63965.48828-1.3877.17969-1.93262-.81934-1.88086-.48145-.01465-1.1582.06055-2.47656.12988-.63867.0332-1.06152.37695-1.18945.98438-.4043,1.46191-.81641,3.52637-1.18652,4.10645-.4082.62207-1.15625.8623-1.80762.65625-.61426-.24902-.92773-.87305-.84473-1.59766Z" style="fill:#faa61a;"/><path d="m572.5996,95.875c-.05273-.99902,1.11523-3.94434,1.68848-5.97656,1.17871-3.50488,1.54492-5.6875,1.84961-6.74512.33887-1.17871.91504-1.64941,1.68457-1.49023,1.09277.22363,1.37988,1.13086,1,3.03125-.84766,3.68945-2.01758,7.35547-3.22949,10.9834-.4248,1.0625-1.07031,1.73828-2.08984,1.39062-.5293-.17285-.83203-.59668-.90332-1.19336Z" style="fill:#faa61a;"/><path d="m579.27636,96.40625c-.05664-1.0791,1.41113-5.92188,2.20898-8.28711,1.27049-4.03027,1.71387-5.49609,2.10742-6.39648.39746-.82324,1.01562-1.25488,1.89453-1.30078,1.1582-.06152,6.10547-.40039,6.70703-.3916.68164.00391,1.27344.61328,1.31348,1.37207-.00684.6416-.45801,1.18555-1.12891,1.38086-.35547.09961-3.74414.39551-4.8623.4541-1,.01367-1.57812.44434-1.76855,1.41602-.09766.4043-.51465,1.62793-.61816,1.9541-.16602.64941.13867,1.11328.81934,1.11719,2.25.12305,3.65137.12988,3.2998,1.83105-.08789.60449-.54883.98926-1.10547,1.05859-.99219.17285-3.80859-.08008-4.37793.50977-.26562.29395-.87305,2.44824-1.03125,3.25781-.26758,1.01562.89551,1.03418,1.85352.98438l3.03516-.15918c1.23828-.06543,1.94434.41895,1.98828,1.25781.00586.88086-.68164,1.51758-1.7959,1.65625-2.18945.23438-6.46973.33887-7.20312.0957-.85742-.31445-1.29004-.93262-1.33594-1.81055Z" style="fill:#faa61a;"/><path d="m593.39452,93.70312c-.03809-.71875.44824-1.38574,1.16699-1.42383,1.03223-.17285,1.89551,1.02344,3.33301.94824,1.1582-.06152,2.21777-1.23926,2.17188-2.11621-.08984-.95605-1.25195-1.73633-2.61621-2.54688-1.57227-.95801-2.78027-1.85645-2.85352-3.25391-.14258-2.71582,3.66016-5.03809,6.69531-5.19727,1.59375-.16406,3.10742.43848,3.16602,1.55566.07715,1.47852-1.20703,1.42578-2.48535,1.49316-1.12012.01855-2.18555.31348-3.19727.88867-1.00879.6123-1.01955,1.1748-.06738,1.76465,2.6123,1.70508,4.21387,2.46289,4.3584,5.21777.14258,2.7168-2.41602,5.09277-5.37207,5.24805-1.95703.10254-4.22461-1.14062-4.2998-2.57812Z" style="fill:#faa61a;"/></g></svg>